Cormorant-Regular Italic.ufo
<glyph name="exclam" format="1">
  <advance width="187"/>
  <unicode hex="0021"/>
  <outline>
    <contour>
      <point x="121" y="275"/>
      <point x="151" y="418"/>
      <point x="189" y="531" type="curve" smooth="yes"/>
      <point x="190" y="535"/>
      <point x="175" y="541"/>
      <point x="159" y="541" type="curve" smooth="yes"/>
      <point x="144" y="541"/>
      <point x="128" y="535"/>
      <point x="128" y="531" type="curve" smooth="yes"/>
      <point x="125" y="418"/>
      <point x="103" y="277"/>
      <point x="87" y="164" type="curve" smooth="yes"/>
      <point x="86" y="159"/>
      <point x="96" y="157"/>
      <point x="97" y="163" type="curve" smooth="yes"/>
    </contour>
    <component base="period" xOffset="12"/>
  </outline>
</glyph>
<glyph name="numbersign" format="1">
  <advance width="370"/>
  <unicode hex="0023"/>
  <outline>
    <contour>
      <point x="213" y="404" type="line" smooth="yes"/>
      <point x="215" y="409"/>
      <point x="191" y="417"/>
      <point x="190" y="412" type="curve" smooth="yes"/>
      <point x="31" y="-64" type="line" smooth="yes"/>
      <point x="29" y="-68"/>
      <point x="53" y="-75"/>
      <point x="54" y="-70" type="curve" smooth="yes"/>
    </contour>
    <contour>
      <point x="290" y="66" type="line" smooth="yes"/>
      <point x="294" y="66"/>
      <point x="295" y="98"/>
      <point x="291" y="98" type="curve" smooth="yes"/>
      <point x="24" y="98" type="line" smooth="yes"/>
      <point x="20" y="98"/>
      <point x="20" y="66"/>
      <point x="24" y="66" type="curve" smooth="yes"/>
    </contour>
    <contour>
      <point x="342" y="404" type="line" smooth="yes"/>
      <point x="344" y="409"/>
      <point x="320" y="417"/>
      <point x="319" y="412" type="curve" smooth="yes"/>
      <point x="160" y="-64" type="line" smooth="yes"/>
      <point x="158" y="-68"/>
      <point x="182" y="-75"/>
      <point x="183" y="-70" type="curve" smooth="yes"/>
    </contour>
    <contour>
      <point x="347" y="236" type="line" smooth="yes"/>
      <point x="351" y="236"/>
      <point x="352" y="268"/>
      <point x="348" y="268" type="curve" smooth="yes"/>
      <point x="81" y="268" type="line" smooth="yes"/>
      <point x="77" y="268"/>
      <point x="77" y="236"/>
      <point x="81" y="236" type="curve" smooth="yes"/>
    </contour>
  </outline>
</glyph>
<glyph name="dollar" format="1">
  <advance width="314"/>
  <unicode hex="0024"/>
  <outline>
    <contour>
      <point x="105" y="-94"/>
      <point x="120" y="-96"/>
      <point x="121" y="-88" type="curve" smooth="yes"/>
      <point x="221" y="479" type="line" smooth="yes"/>
      <point x="223" y="487"/>
      <point x="208" y="489"/>
      <point x="206" y="481" type="curve" smooth="yes"/>
      <point x="106" y="-86" type="line" smooth="yes"/>
    </contour>
    <contour>
      <point x="123" y="368"/>
      <point x="151" y="399"/>
      <point x="192" y="399" type="curve" smooth="yes"/>
      <point x="241" y="399"/>
      <point x="270" y="350"/>
      <point x="269" y="305" type="curve" smooth="yes"/>
      <point x="269" y="299"/>
      <point x="277" y="298"/>
      <point x="278" y="303" type="curve" smooth="yes"/>
      <point x="284" y="376" type="line" smooth="yes"/>
      <point x="285" y="384"/>
      <point x="283" y="385"/>
      <point x="274" y="390" type="curve" smooth="yes"/>
      <point x="249" y="405"/>
      <point x="226" y="410"/>
      <point x="206" y="410" type="curve" smooth="yes"/>
      <point x="148" y="410"/>
      <point x="89" y="376"/>
      <point x="77" y="311" type="curve" smooth="yes"/>
      <point x="66" y="248"/>
      <point x="107" y="221"/>
      <point x="149" y="193" type="curve" smooth="yes"/>
      <point x="189" y="166"/>
      <point x="230" y="138"/>
      <point x="219" y="80" type="curve" smooth="yes"/>
      <point x="209" y="21"/>
      <point x="166" y="2"/>
      <point x="133" y="2" type="curve" smooth="yes"/>
      <point x="81" y="2"/>
      <point x="42" y="51"/>
      <point x="43" y="116" type="curve" smooth="yes"/>
      <point x="43" y="122"/>
      <point x="34" y="122"/>
      <point x="34" y="117" type="curve" smooth="yes"/>
      <point x="29" y="36" type="line" smooth="yes"/>
      <point x="28" y="28"/>
      <point x="28" y="23"/>
      <point x="34" y="20" type="curve" smooth="yes"/>
      <point x="58" y="-2"/>
      <point x="85" y="-10"/>
      <point x="115" y="-10" type="curve" smooth="yes"/>
      <point x="195" y="-10"/>
      <point x="250" y="40"/>
      <point x="261" y="100" type="curve" smooth="yes"/>
      <point x="272" y="164"/>
      <point x="228" y="192"/>
      <point x="186" y="219" type="curve" smooth="yes"/>
      <point x="146" y="245"/>
      <point x="106" y="271"/>
      <point x="115" y="325" type="curve" smooth="yes"/>
    </contour>
    <contour>
      <point x="191" y="400" type="move" name="top"/>
    </contour>
    <contour>
      <point x="119" y="0" type="move" name="bottom"/>
    </contour>
  </outline>
</glyph>
<glyph name="percent" format="1">
  <advance width="442"/>
  <unicode hex="0025"/>
  <outline>
    <contour>
      <point x="418" y="460" type="line" smooth="yes"/>
      <point x="421" y="463"/>
      <point x="406" y="474"/>
      <point x="403" y="470" type="curve" smooth="yes"/>
      <point x="36" y="5" type="line" smooth="yes"/>
      <point x="33" y="2"/>
      <point x="49" y="-7"/>
      <point x="51" y="-4" type="curve" smooth="yes"/>
    </contour>
    <contour>
      <point x="352" y="-4"/>
      <point x="398" y="44"/>
      <point x="409" y="105" type="curve" smooth="yes"/>
      <point x="420" y="166"/>
      <point x="391" y="216"/>
      <point x="337" y="216" type="curve" smooth="yes"/>
      <point x="283" y="216"/>
      <point x="236" y="167"/>
      <point x="226" y="107" type="curve" smooth="yes"/>
      <point x="215" y="45"/>
      <point x="245" y="-4"/>
      <point x="299" y="-4" type="curve" smooth="yes"/>
    </contour>
    <contour>
      <point x="262" y="5"/>
      <point x="256" y="51"/>
      <point x="267" y="110" type="curve" smooth="yes"/>
      <point x="276" y="163"/>
      <point x="292" y="207"/>
      <point x="331" y="207" type="curve" smooth="yes"/>
      <point x="367" y="207"/>
      <point x="380" y="170"/>
      <point x="367" y="99" type="curve" smooth="yes"/>
      <point x="358" y="45"/>
      <point x="345" y="5"/>
      <point x="306" y="5" type="curve" smooth="yes"/>
    </contour>
    <contour>
      <point x="185" y="259"/>
      <point x="231" y="307"/>
      <point x="242" y="368" type="curve" smooth="yes"/>
      <point x="253" y="429"/>
      <point x="225" y="479"/>
      <point x="171" y="479" type="curve" smooth="yes"/>
      <point x="117" y="479"/>
      <point x="69" y="430"/>
      <point x="59" y="370" type="curve" smooth="yes"/>
      <point x="48" y="308"/>
      <point x="78" y="259"/>
      <point x="132" y="259" type="curve" smooth="yes"/>
    </contour>
    <contour>
      <point x="95" y="268"/>
      <point x="89" y="314"/>
      <point x="100" y="373" type="curve" smooth="yes"/>
      <point x="109" y="426"/>
      <point x="125" y="470"/>
      <point x="164" y="470" type="curve" smooth="yes"/>
      <point x="200" y="470"/>
      <point x="213" y="433"/>
      <point x="200" y="362" type="curve" smooth="yes"/>
      <point x="191" y="308"/>
      <point x="178" y="268"/>
      <point x="139" y="268" type="curve" smooth="yes"/>
    </contour>
  </outline>
</glyph>
<glyph name="quotesingle" format="1">
  <advance width="109"/>
  <unicode hex="0027"/>
  <outline>
    <contour>
      <point x="54" y="259"/>
      <point x="61" y="260"/>
      <point x="62" y="263" type="curve" smooth="yes"/>
      <point x="153" y="545" type="line" smooth="yes"/>
      <point x="156" y="554"/>
      <point x="97" y="538"/>
      <point x="95" y="521" type="curve" smooth="yes"/>
      <point x="54" y="262" type="line" smooth="yes"/>
    </contour>
  </outline>
</glyph>
<glyph name="parenleft" format="1">
  <advance width="238"/>
  <unicode hex="0028"/>
  <outline>
    <contour>
      <point x="167" y="-102"/>
      <point x="172" y="-96"/>
      <point x="170" y="-93" type="curve" smooth="yes"/>
      <point x="104" y="-11"/>
      <point x="89" y="106"/>
      <point x="116" y="260" type="curve" smooth="yes"/>
      <point x="143" y="414"/>
      <point x="200" y="531"/>
      <point x="296" y="613" type="curve" smooth="yes"/>
      <point x="299" y="615"/>
      <point x="294" y="622"/>
      <point x="291" y="620" type="curve" smooth="yes"/>
      <point x="180" y="558"/>
      <point x="99" y="420"/>
      <point x="71" y="260" type="curve" smooth="yes"/>
      <point x="43" y="100"/>
      <point x="75" y="-38"/>
      <point x="164" y="-100" type="curve" smooth="yes"/>
    </contour>
    <contour>
      <point x="243" y="330" type="move" name="top"/>
    </contour>
  </outline>
</glyph>
<glyph name="asterisk" format="1">
  <advance width="383"/>
  <unicode hex="002A"/>
  <outline>
    <contour>
      <point x="217" y="415" type="line" smooth="yes"/>
      <point x="219" y="417"/>
      <point x="213" y="422"/>
      <point x="210" y="420" type="curve" smooth="yes"/>
      <point x="85" y="345" type="line" smooth="yes"/>
      <point x="77" y="340"/>
      <point x="136" y="317"/>
      <point x="146" y="331" type="curve" smooth="yes"/>
    </contour>
    <contour>
      <point x="268" y="260"/>
      <point x="308" y="309"/>
      <point x="299" y="323" type="curve" smooth="yes"/>
      <point x="240" y="417" type="line" smooth="yes"/>
      <point x="239" y="419"/>
      <point x="232" y="414"/>
      <point x="233" y="411" type="curve" smooth="yes"/>
      <point x="266" y="269" type="line" smooth="yes"/>
    </contour>
    <contour>
      <point x="211" y="436"/>
      <point x="214" y="443"/>
      <point x="211" y="445" type="curve" smooth="yes"/>
      <point x="101" y="541" type="line" smooth="yes"/>
      <point x="94" y="548"/>
      <point x="90" y="485"/>
      <point x="106" y="478" type="curve" smooth="yes"/>
      <point x="208" y="437" type="line" smooth="yes"/>
    </contour>
    <contour>
      <point x="404" y="416"/>
      <point x="370" y="469"/>
      <point x="354" y="465" type="curve" smooth="yes"/>
      <point x="246" y="439" type="line" smooth="yes"/>
      <point x="244" y="438"/>
      <point x="246" y="430"/>
      <point x="249" y="430" type="curve" smooth="yes"/>
      <point x="394" y="417" type="line" smooth="yes"/>
    </contour>
    <contour>
      <point x="227" y="449"/>
      <point x="235" y="449"/>
      <point x="236" y="452" type="curve" smooth="yes"/>
      <point x="293" y="586" type="line" smooth="yes"/>
      <point x="297" y="595"/>
      <point x="236" y="579"/>
      <point x="235" y="562" type="curve" smooth="yes"/>
      <point x="227" y="452" type="line" smooth="yes"/>
    </contour>
  </outline>
</glyph>
<glyph name="comma" format="1">
  <advance width="190"/>
  <unicode hex="002C"/>
  <outline>
    <contour>
      <point x="59" y="-100"/>
      <point x="94" y="-64"/>
      <point x="102" y="-18" type="curve" smooth="yes"/>
      <point x="110" y="27"/>
      <point x="90" y="54"/>
      <point x="60" y="54" type="curve" smooth="yes"/>
      <point x="36" y="54"/>
      <point x="22" y="43"/>
      <point x="22" y="23" type="curve" smooth="yes"/>
      <point x="22" y="5"/>
      <point x="33" y="-7"/>
      <point x="53" y="-7" type="curve" smooth="yes"/>
      <point x="70" y="-7"/>
      <point x="83" y="3"/>
      <point x="82" y="23" type="curve"/>
      <point x="59" y="17" type="line"/>
      <point x="71" y="14"/>
      <point x="83" y="3"/>
      <point x="78" y="-29" type="curve" smooth="yes"/>
      <point x="72" y="-66"/>
      <point x="48" y="-97"/>
      <point x="5" y="-128" type="curve" smooth="yes"/>
      <point x="1" y="-131"/>
      <point x="7" y="-139"/>
      <point x="11" y="-136" type="curve" smooth="yes"/>
    </contour>
  </outline>
</glyph>
<glyph name="hyphen" format="1">
  <advance width="261"/>
  <unicode hex="002D"/>
  <outline>
    <contour>
      <point x="239" y="184" type="line" smooth="yes"/>
      <point x="244" y="185"/>
      <point x="244" y="221"/>
      <point x="239" y="220" type="curve" smooth="yes"/>
      <point x="26" y="180" type="line" smooth="yes"/>
      <point x="22" y="179"/>
      <point x="22" y="143"/>
      <point x="27" y="144" type="curve" smooth="yes"/>
    </contour>
  </outline>
</glyph>
<glyph name="period" format="1">
  <advance width="167"/>
  <unicode hex="002E"/>
  <outline>
    <contour>
      <point x="77" y="-9"/>
      <point x="89" y="3"/>
      <point x="89" y="24" type="curve" smooth="yes"/>
      <point x="89" y="44"/>
      <point x="77" y="56"/>
      <point x="56" y="56" type="curve" smooth="yes"/>
      <point x="35" y="56"/>
      <point x="22" y="44"/>
      <point x="22" y="24" type="curve" smooth="yes"/>
      <point x="22" y="3"/>
      <point x="35" y="-9"/>
      <point x="56" y="-9" type="curve" smooth="yes"/>
    </contour>
  </outline>
</glyph>
<glyph name="slash" format="1">
  <advance width="261"/>
  <unicode hex="002F"/>
  <outline>
    <contour>
      <point x="320" y="614" type="line" smooth="yes"/>
      <point x="324" y="621"/>
      <point x="298" y="631"/>
      <point x="295" y="624" type="curve" smooth="yes"/>
      <point x="-33" y="-133" type="line" smooth="yes"/>
      <point x="-35" y="-138"/>
      <point x="-9" y="-148"/>
      <point x="-7" y="-142" type="curve" smooth="yes"/>
    </contour>
  </outline>
</glyph>
<glyph name="zero" format="1">
  <advance width="373"/>
  <unicode hex="0030"/>
  <outline>
    <contour>
      <point x="246" y="-11"/>
      <point x="325" y="62"/>
      <point x="343" y="165" type="curve" smooth="yes"/>
      <point x="362" y="268"/>
      <point x="309" y="341"/>
      <point x="219" y="341" type="curve" smooth="yes"/>
      <point x="128" y="341"/>
      <point x="48" y="269"/>
      <point x="30" y="168" type="curve" smooth="yes"/>
      <point x="12" y="63"/>
      <point x="66" y="-11"/>
      <point x="156" y="-11" type="curve" smooth="yes"/>
    </contour>
    <contour>
      <point x="93" y="-1"/>
      <point x="61" y="74"/>
      <point x="78" y="174" type="curve" smooth="yes"/>
      <point x="94" y="264"/>
      <point x="143" y="331"/>
      <point x="210" y="331" type="curve" smooth="yes"/>
      <point x="271" y="331"/>
      <point x="315" y="275"/>
      <point x="294" y="155" type="curve" smooth="yes"/>
      <point x="278" y="63"/>
      <point x="235" y="-1"/>
      <point x="167" y="-1" type="curve" smooth="yes"/>
    </contour>
    <contour>
      <point x="224" y="330" type="move" name="top"/>
    </contour>
  </outline>
</glyph>
<glyph name="one" format="1">
  <advance width="249"/>
  <unicode hex="0031"/>
  <outline>
    <contour>
      <point x="40" y="0"/>
      <point x="74" y="2"/>
      <point x="110" y="2" type="curve" smooth="yes"/>
      <point x="146" y="2"/>
      <point x="179" y="0"/>
      <point x="205" y="0" type="curve" smooth="yes"/>
      <point x="209" y="0"/>
      <point x="209" y="10"/>
      <point x="205" y="10" type="curve" smooth="yes"/>
      <point x="138" y="10"/>
      <point x="129" y="20"/>
      <point x="138" y="69" type="curve" smooth="yes"/>
      <point x="185" y="334" type="line" smooth="yes"/>
      <point x="186" y="337"/>
      <point x="182" y="340"/>
      <point x="179" y="338" type="curve" smooth="yes"/>
      <point x="57" y="278" type="line" smooth="yes"/>
      <point x="52" y="276"/>
      <point x="56" y="267"/>
      <point x="61" y="269" type="curve" smooth="yes"/>
      <point x="138" y="305"/>
      <point x="141" y="301"/>
      <point x="129" y="230" type="curve" smooth="yes"/>
      <point x="100" y="69" type="line" smooth="yes"/>
      <point x="91" y="20"/>
      <point x="77" y="10"/>
      <point x="14" y="10" type="curve" smooth="yes"/>
      <point x="9" y="10"/>
      <point x="9" y="0"/>
      <point x="14" y="0" type="curve" smooth="yes"/>
    </contour>
    <contour>
      <point x="255" y="566" type="move" name="top"/>
    </contour>
    <contour>
      <point x="69" y="0" type="move" name="bottom"/>
    </contour>
    <contour>
      <point x="246" y="330" type="move" name="topright"/>
    </contour>
  </outline>
</glyph>
<glyph name="two" format="1">
  <advance width="308"/>
  <unicode hex="0032"/>
  <outline>
    <contour>
      <point x="0" y="7"/>
      <point x="4" y="0"/>
      <point x="9" y="0" type="curve" smooth="yes"/>
      <point x="85" y="0"/>
      <point x="169" y="0"/>
      <point x="243" y="0" type="curve" smooth="yes"/>
      <point x="247" y="0"/>
      <point x="250" y="4"/>
      <point x="251" y="8" type="curve" smooth="yes"/>
      <point x="276" y="92" type="line" smooth="yes"/>
      <point x="277" y="97"/>
      <point x="268" y="99"/>
      <point x="266" y="95" type="curve" smooth="yes"/>
      <point x="245" y="38"/>
      <point x="227" y="35"/>
      <point x="66" y="35" type="curve" smooth="yes"/>
      <point x="62" y="35"/>
      <point x="60" y="37"/>
      <point x="64" y="39" type="curve" smooth="yes"/>
      <point x="205" y="144"/>
      <point x="256" y="196"/>
      <point x="267" y="253" type="curve" smooth="yes"/>
      <point x="277" y="306"/>
      <point x="249" y="341"/>
      <point x="198" y="341" type="curve" smooth="yes"/>
      <point x="163" y="341"/>
      <point x="134" y="325"/>
      <point x="118" y="325" type="curve" smooth="yes"/>
      <point x="111" y="325"/>
      <point x="105" y="329"/>
      <point x="111" y="347" type="curve" smooth="yes"/>
      <point x="112" y="351"/>
      <point x="104" y="353"/>
      <point x="103" y="350" type="curve" smooth="yes"/>
      <point x="54" y="224" type="line" smooth="yes"/>
      <point x="52" y="220"/>
      <point x="62" y="216"/>
      <point x="64" y="221" type="curve" smooth="yes"/>
      <point x="93" y="289"/>
      <point x="128" y="324"/>
      <point x="170" y="324" type="curve" smooth="yes"/>
      <point x="211" y="324"/>
      <point x="233" y="293"/>
      <point x="226" y="249" type="curve" smooth="yes"/>
      <point x="216" y="183"/>
      <point x="145" y="117"/>
      <point x="5" y="12" type="curve" smooth="yes"/>
    </contour>
  </outline>
</glyph>
<glyph name="three" format="1">
  <advance width="300"/>
  <unicode hex="0033"/>
  <outline>
    <contour>
      <point x="137" y="-160"/>
      <point x="217" y="-89"/>
      <point x="231" y="-6" type="curve" smooth="yes"/>
      <point x="244" y="64"/>
      <point x="207" y="117"/>
      <point x="131" y="117" type="curve" smooth="yes"/>
      <point x="99" y="117"/>
      <point x="74" y="109"/>
      <point x="60" y="101" type="curve" smooth="yes"/>
      <point x="56" y="99"/>
      <point x="60" y="90"/>
      <point x="64" y="92" type="curve" smooth="yes"/>
      <point x="75" y="98"/>
      <point x="89" y="103"/>
      <point x="108" y="103" type="curve" smooth="yes"/>
      <point x="171" y="103"/>
      <point x="191" y="45"/>
      <point x="180" y="-16" type="curve" smooth="yes"/>
      <point x="168" y="-84"/>
      <point x="119" y="-151"/>
      <point x="-33" y="-226" type="curve" smooth="yes"/>
      <point x="-37" y="-228"/>
      <point x="-33" y="-237"/>
      <point x="-29" y="-235" type="curve" smooth="yes"/>
    </contour>
    <contour>
      <point x="197" y="139"/>
      <point x="243" y="189"/>
      <point x="253" y="244" type="curve" smooth="yes"/>
      <point x="262" y="294"/>
      <point x="239" y="341"/>
      <point x="181" y="341" type="curve" smooth="yes"/>
      <point x="144" y="341"/>
      <point x="114" y="323"/>
      <point x="98" y="323" type="curve" smooth="yes"/>
      <point x="91" y="323"/>
      <point x="84" y="327"/>
      <point x="92" y="346" type="curve" smooth="yes"/>
      <point x="93" y="350"/>
      <point x="84" y="353"/>
      <point x="82" y="349" type="curve" smooth="yes"/>
      <point x="31" y="224" type="line" smooth="yes"/>
      <point x="29" y="220"/>
      <point x="39" y="217"/>
      <point x="41" y="221" type="curve" smooth="yes"/>
      <point x="72" y="294"/>
      <point x="108" y="324"/>
      <point x="153" y="324" type="curve" smooth="yes"/>
      <point x="203" y="324"/>
      <point x="216" y="285"/>
      <point x="206" y="229" type="curve" smooth="yes"/>
      <point x="197" y="179"/>
      <point x="173" y="140"/>
      <point x="130" y="110" type="curve"/>
      <point x="133" y="106" type="line"/>
    </contour>
  </outline>
</glyph>
<glyph name="four" format="1">
  <advance width="360"/>
  <unicode hex="0034"/>
  <outline>
    <contour>
      <point x="201" y="-147" type="line" smooth="yes"/>
      <point x="205" y="-145"/>
      <point x="208" y="-141"/>
      <point x="209" y="-135" type="curve" smooth="yes"/>
      <point x="292" y="335" type="line" smooth="yes"/>
      <point x="293" y="340"/>
      <point x="284" y="342"/>
      <point x="281" y="339" type="curve" smooth="yes"/>
      <point x="-14" y="17" type="line" smooth="yes"/>
      <point x="-19" y="12"/>
      <point x="-15" y="7"/>
      <point x="-11" y="7" type="curve" smooth="yes"/>
      <point x="138" y="7"/>
      <point x="219" y="6"/>
      <point x="301" y="1" type="curve" smooth="yes"/>
      <point x="306" y="1"/>
      <point x="312" y="37"/>
      <point x="308" y="37" type="curve" smooth="yes"/>
      <point x="219" y="34"/>
      <point x="148" y="32"/>
      <point x="29" y="32" type="curve" smooth="yes"/>
      <point x="24" y="32"/>
      <point x="23" y="34"/>
      <point x="26" y="38" type="curve" smooth="yes"/>
      <point x="261" y="289" type="line"/>
      <point x="244" y="278" type="line"/>
      <point x="167" y="-156" type="line" smooth="yes"/>
      <point x="166" y="-163"/>
      <point x="168" y="-164"/>
      <point x="174" y="-161" type="curve" smooth="yes"/>
    </contour>
  </outline>
</glyph>
<glyph name="five" format="1">
  <advance width="320"/>
  <unicode hex="0035"/>
  <outline>
    <contour>
      <point x="147" y="-156"/>
      <point x="223" y="-89"/>
      <point x="241" y="8" type="curve" smooth="yes"/>
      <point x="257" y="102"/>
      <point x="208" y="168"/>
      <point x="59" y="168" type="curve"/>
      <point x="55" y="147" type="line"/>
      <point x="97" y="274" type="line" smooth="yes"/>
      <point x="100" y="282"/>
      <point x="104" y="286"/>
      <point x="111" y="286" type="curve" smooth="yes"/>
      <point x="257" y="290" type="line" smooth="yes"/>
      <point x="269" y="290"/>
      <point x="275" y="291"/>
      <point x="282" y="305" type="curve" smooth="yes"/>
      <point x="307" y="358" type="line" smooth="yes"/>
      <point x="309" y="362"/>
      <point x="300" y="365"/>
      <point x="298" y="362" type="curve" smooth="yes"/>
      <point x="287" y="339"/>
      <point x="285" y="338"/>
      <point x="104" y="315" type="curve" smooth="yes"/>
      <point x="95" y="314"/>
      <point x="94" y="313"/>
      <point x="92" y="305" type="curve" smooth="yes"/>
      <point x="41" y="153" type="line" smooth="yes"/>
      <point x="39" y="148"/>
      <point x="41" y="143"/>
      <point x="46" y="143" type="curve" smooth="yes"/>
      <point x="159" y="143"/>
      <point x="209" y="86"/>
      <point x="193" y="-7" type="curve" smooth="yes"/>
      <point x="180" y="-81"/>
      <point x="127" y="-152"/>
      <point x="-24" y="-226" type="curve" smooth="yes"/>
      <point x="-28" y="-228"/>
      <point x="-24" y="-237"/>
      <point x="-20" y="-235" type="curve" smooth="yes"/>
    </contour>
  </outline>
</glyph>
<glyph name="six" format="1">
  <advance width="358"/>
  <unicode hex="0036"/>
  <outline>
    <contour>
      <point x="242" y="-11"/>
      <point x="314" y="48"/>
      <point x="326" y="121" type="curve" smooth="yes"/>
      <point x="335" y="180"/>
      <point x="316" y="241"/>
      <point x="241" y="241" type="curve" smooth="yes"/>
      <point x="195" y="241"/>
      <point x="153" y="221"/>
      <point x="118" y="182" type="curve" smooth="yes"/>
      <point x="116" y="179"/>
      <point x="122" y="173"/>
      <point x="125" y="176" type="curve" smooth="yes"/>
      <point x="161" y="207"/>
      <point x="186" y="220"/>
      <point x="215" y="220" type="curve" smooth="yes"/>
      <point x="272" y="220"/>
      <point x="289" y="166"/>
      <point x="278" y="99" type="curve" smooth="yes"/>
      <point x="268" y="39"/>
      <point x="234" y="4"/>
      <point x="188" y="4" type="curve" smooth="yes"/>
      <point x="100" y="4"/>
      <point x="62" y="89"/>
      <point x="85" y="193" type="curve" smooth="yes"/>
      <point x="108" y="325"/>
      <point x="213" y="479"/>
      <point x="381" y="555" type="curve" smooth="yes"/>
      <point x="385" y="557"/>
      <point x="382" y="566"/>
      <point x="378" y="565" type="curve" smooth="yes"/>
      <point x="197" y="499"/>
      <point x="66" y="336"/>
      <point x="38" y="178" type="curve" smooth="yes"/>
      <point x="13" y="57"/>
      <point x="67" y="-11"/>
      <point x="163" y="-11" type="curve" smooth="yes"/>
    </contour>
  </outline>
</glyph>
<glyph name="seven" format="1">
  <advance width="330"/>
  <unicode hex="0037"/>
  <outline>
    <contour>
      <point x="48" y="-209" type="line" smooth="yes"/>
      <point x="57" y="-204"/>
      <point x="62" y="-199"/>
      <point x="68" y="-188" type="curve" smooth="yes"/>
      <point x="328" y="319" type="line" smooth="yes"/>
      <point x="330" y="323"/>
      <point x="328" y="330"/>
      <point x="323" y="330" type="curve" smooth="yes"/>
      <point x="259" y="330"/>
      <point x="150" y="330"/>
      <point x="119" y="330" type="curve" smooth="yes"/>
      <point x="85" y="330"/>
      <point x="80" y="333"/>
      <point x="87" y="352" type="curve" smooth="yes"/>
      <point x="88" y="355"/>
      <point x="78" y="358"/>
      <point x="77" y="355" type="curve" smooth="yes"/>
      <point x="31" y="239" type="line" smooth="yes"/>
      <point x="29" y="235"/>
      <point x="40" y="232"/>
      <point x="41" y="236" type="curve" smooth="yes"/>
      <point x="65" y="289"/>
      <point x="75" y="295"/>
      <point x="294" y="295" type="curve" smooth="yes"/>
      <point x="298" y="295"/>
      <point x="299" y="293"/>
      <point x="296" y="289" type="curve" smooth="yes"/>
      <point x="-1" y="-229" type="line" smooth="yes"/>
      <point x="-3" y="-232"/>
      <point x="1" y="-236"/>
      <point x="3" y="-235" type="curve" smooth="yes"/>
    </contour>
    <contour>
      <point x="191" y="330" type="move" name="top"/>
    </contour>
  </outline>
</glyph>
<glyph name="eight" format="1">
  <advance width="376"/>
  <unicode hex="0038"/>
  <outline>
    <contour>
      <point x="248" y="-11"/>
      <point x="330" y="52"/>
      <point x="345" y="138" type="curve" smooth="yes"/>
      <point x="372" y="296"/>
      <point x="139" y="293"/>
      <point x="160" y="413" type="curve" smooth="yes"/>
      <point x="166" y="455"/>
      <point x="195" y="478"/>
      <point x="232" y="478" type="curve" smooth="yes"/>
      <point x="283" y="478"/>
      <point x="310" y="433"/>
      <point x="301" y="383" type="curve" smooth="yes"/>
      <point x="295" y="348"/>
      <point x="274" y="320"/>
      <point x="232" y="290" type="curve"/>
      <point x="235" y="285" type="line"/>
      <point x="292" y="315"/>
      <point x="334" y="359"/>
      <point x="342" y="393" type="curve" smooth="yes"/>
      <point x="351" y="434"/>
      <point x="319" y="491"/>
      <point x="250" y="491" type="curve" smooth="yes"/>
      <point x="198" y="491"/>
      <point x="131" y="458"/>
      <point x="120" y="390" type="curve" smooth="yes"/>
      <point x="98" y="267"/>
      <point x="330" y="278"/>
      <point x="300" y="113" type="curve" smooth="yes"/>
      <point x="289" y="43"/>
      <point x="241" y="3"/>
      <point x="189" y="3" type="curve" smooth="yes"/>
      <point x="106" y="3"/>
      <point x="64" y="74"/>
      <point x="78" y="150" type="curve" smooth="yes"/>
      <point x="89" y="213"/>
      <point x="133" y="264"/>
      <point x="199" y="291" type="curve"/>
      <point x="195" y="298" type="line"/>
      <point x="128" y="275"/>
      <point x="43" y="207"/>
      <point x="29" y="127" type="curve" smooth="yes"/>
      <point x="16" y="56"/>
      <point x="67" y="-11"/>
      <point x="165" y="-11" type="curve" smooth="yes"/>
    </contour>
  </outline>
</glyph>
<glyph name="nine" format="1">
  <advance width="358"/>
  <unicode hex="0039"/>
  <outline>
    <contour>
      <point x="161" y="-169"/>
      <point x="292" y="-6"/>
      <point x="320" y="152" type="curve" smooth="yes"/>
      <point x="340" y="264"/>
      <point x="291" y="341"/>
      <point x="195" y="341" type="curve" smooth="yes"/>
      <point x="116" y="341"/>
      <point x="45" y="287"/>
      <point x="32" y="219" type="curve" smooth="yes"/>
      <point x="21" y="163"/>
      <point x="50" y="89"/>
      <point x="128" y="89" type="curve" smooth="yes"/>
      <point x="168" y="89"/>
      <point x="208" y="109"/>
      <point x="240" y="148" type="curve" smooth="yes"/>
      <point x="242" y="151"/>
      <point x="235" y="156"/>
      <point x="232" y="153" type="curve" smooth="yes"/>
      <point x="203" y="125"/>
      <point x="181" y="110"/>
      <point x="154" y="110" type="curve" smooth="yes"/>
      <point x="98" y="110"/>
      <point x="66" y="172"/>
      <point x="80" y="241" type="curve" smooth="yes"/>
      <point x="92" y="300"/>
      <point x="127" y="326"/>
      <point x="170" y="326" type="curve" smooth="yes"/>
      <point x="258" y="326"/>
      <point x="294" y="231"/>
      <point x="273" y="137" type="curve" smooth="yes"/>
      <point x="244" y="6"/>
      <point x="145" y="-149"/>
      <point x="-23" y="-225" type="curve" smooth="yes"/>
      <point x="-27" y="-227"/>
      <point x="-24" y="-236"/>
      <point x="-20" y="-235" type="curve" smooth="yes"/>
    </contour>
  </outline>
</glyph>
<glyph name="question" format="1">
  <advance width="252"/>
  <unicode hex="003F"/>
  <outline>
    <contour>
      <point x="117" y="159"/>
      <point x="126" y="158"/>
      <point x="126" y="163" type="curve" smooth="yes"/>
      <point x="126" y="181"/>
      <point x="126" y="198"/>
      <point x="129" y="212" type="curve" smooth="yes"/>
      <point x="136" y="251"/>
      <point x="151" y="279"/>
      <point x="197" y="318" type="curve" smooth="yes"/>
      <point x="226" y="343"/>
      <point x="270" y="373"/>
      <point x="282" y="432" type="curve" smooth="yes"/>
      <point x="295" y="496"/>
      <point x="255" y="534"/>
      <point x="190" y="534" type="curve" smooth="yes"/>
      <point x="136" y="534"/>
      <point x="85" y="508"/>
      <point x="80" y="477" type="curve" smooth="yes"/>
      <point x="78" y="463"/>
      <point x="85" y="451"/>
      <point x="100" y="451" type="curve" smooth="yes"/>
      <point x="118" y="451"/>
      <point x="126" y="469"/>
      <point x="131" y="483" type="curve" smooth="yes"/>
      <point x="138" y="502"/>
      <point x="147" y="524"/>
      <point x="184" y="524" type="curve" smooth="yes"/>
      <point x="228" y="524"/>
      <point x="250" y="493"/>
      <point x="240" y="442" type="curve" smooth="yes"/>
      <point x="222" y="349"/>
      <point x="129" y="347"/>
      <point x="115" y="265" type="curve" smooth="yes"/>
      <point x="111" y="241"/>
      <point x="110" y="195"/>
      <point x="117" y="163" type="curve" smooth="yes"/>
    </contour>
    <component base="period" xOffset="44"/>
  </outline>
</glyph>
<glyph name="at" format="1">
  <advance width="613"/>
  <unicode hex="0040"/>
  <outline>
    <contour>
      <point x="352" y="-81"/>
      <point x="419" y="-73"/>
      <point x="481" y="-24" type="curve" smooth="yes"/>
      <point x="484" y="-22"/>
      <point x="479" y="-15"/>
      <point x="476" y="-17" type="curve" smooth="yes"/>
      <point x="422" y="-47"/>
      <point x="388" y="-56"/>
      <point x="334" y="-56" type="curve" smooth="yes"/>
      <point x="195" y="-56"/>
      <point x="98" y="34"/>
      <point x="98" y="169" type="curve" smooth="yes"/>
      <point x="98" y="296"/>
      <point x="173" y="400"/>
      <point x="311" y="400" type="curve" smooth="yes"/>
      <point x="430" y="400"/>
      <point x="521" y="311"/>
      <point x="521" y="202" type="curve" smooth="yes"/>
      <point x="521" y="110"/>
      <point x="464" y="58"/>
      <point x="417" y="58" type="curve" smooth="yes"/>
      <point x="382" y="58"/>
      <point x="383" y="83"/>
      <point x="389" y="116" type="curve" smooth="yes"/>
      <point x="424" y="308" type="line" smooth="yes"/>
      <point x="425" y="310"/>
      <point x="410" y="311"/>
      <point x="409" y="309" type="curve" smooth="yes"/>
      <point x="406" y="292"/>
      <point x="392" y="279"/>
      <point x="382" y="277" type="curve"/>
      <point x="407" y="261" type="line"/>
      <point x="404" y="291"/>
      <point x="380" y="303"/>
      <point x="357" y="303" type="curve" smooth="yes"/>
      <point x="290" y="303"/>
      <point x="200" y="201"/>
      <point x="186" y="107" type="curve" smooth="yes"/>
      <point x="180" y="60"/>
      <point x="201" y="41"/>
      <point x="228" y="41" type="curve" smooth="yes"/>
      <point x="280" y="41"/>
      <point x="343" y="111"/>
      <point x="383" y="206" type="curve"/>
      <point x="371" y="195" type="line"/>
      <point x="356" y="116" type="line" smooth="yes"/>
      <point x="349" y="73"/>
      <point x="361" y="43"/>
      <point x="399" y="43" type="curve" smooth="yes"/>
      <point x="479" y="43"/>
      <point x="548" y="130"/>
      <point x="548" y="226" type="curve" smooth="yes"/>
      <point x="548" y="331"/>
      <point x="467" y="420"/>
      <point x="337" y="420" type="curve" smooth="yes"/>
      <point x="195" y="420"/>
      <point x="65" y="311"/>
      <point x="65" y="150" type="curve" smooth="yes"/>
      <point x="65" y="3"/>
      <point x="173" y="-81"/>
      <point x="308" y="-81" type="curve" smooth="yes"/>
    </contour>
    <contour>
      <point x="222" y="69"/>
      <point x="217" y="90"/>
      <point x="223" y="131" type="curve" smooth="yes"/>
      <point x="236" y="213"/>
      <point x="293" y="282"/>
      <point x="337" y="283" type="curve" smooth="yes"/>
      <point x="370" y="284"/>
      <point x="383" y="259"/>
      <point x="377" y="230" type="curve" smooth="yes"/>
      <point x="360" y="154"/>
      <point x="296" y="69"/>
      <point x="246" y="69" type="curve" smooth="yes"/>
    </contour>
  </outline>
</glyph>
<glyph name="A" format="1">
  <advance width="512"/>
  <unicode hex="0041"/>
  <outline>
    <contour>
      <point x="0" y="0"/>
      <point x="16" y="3"/>
      <point x="50" y="3" type="curve" smooth="yes"/>
      <point x="79" y="3"/>
      <point x="112" y="0"/>
      <point x="134" y="0" type="curve" smooth="yes"/>
      <point x="139" y="0"/>
      <point x="139" y="10"/>
      <point x="135" y="10" type="curve" smooth="yes"/>
      <point x="84" y="10"/>
      <point x="60" y="22"/>
      <point x="110" y="114" type="curve" smooth="yes"/>
      <point x="323" y="502" type="line"/>
      <point x="309" y="487" type="line"/>
      <point x="371" y="72" type="line" smooth="yes"/>
      <point x="378" y="24"/>
      <point x="369" y="10"/>
      <point x="314" y="10" type="curve" smooth="yes"/>
      <point x="310" y="10"/>
      <point x="310" y="0"/>
      <point x="314" y="0" type="curve" smooth="yes"/>
      <point x="341" y="0"/>
      <point x="363" y="3"/>
      <point x="395" y="3" type="curve" smooth="yes"/>
      <point x="427" y="3"/>
      <point x="453" y="0"/>
      <point x="480" y="0" type="curve" smooth="yes"/>
      <point x="484" y="0"/>
      <point x="484" y="10"/>
      <point x="480" y="10" type="curve" smooth="yes"/>
      <point x="427" y="10"/>
      <point x="420" y="25"/>
      <point x="413" y="72" type="curve" smooth="yes"/>
      <point x="342" y="541" type="line" smooth="yes"/>
      <point x="341" y="545"/>
      <point x="329" y="547"/>
      <point x="327" y="543" type="curve" smooth="yes"/>
      <point x="80" y="103" type="line" smooth="yes"/>
      <point x="38" y="28"/>
      <point x="0" y="10"/>
      <point x="-29" y="10" type="curve" smooth="yes"/>
      <point x="-33" y="10"/>
      <point x="-33" y="0"/>
      <point x="-29" y="0" type="curve" smooth="yes"/>
    </contour>
    <contour>
      <point x="368" y="290" type="line"/>
      <point x="366" y="306" type="line"/>
      <point x="206" y="306" type="line"/>
      <point x="193" y="290" type="line"/>
    </contour>
    <contour>
      <point x="355" y="10" type="move" name="ogonek"/>
    </contour>
    <contour>
      <point x="232" y="0" type="move" name="bottom"/>
    </contour>
    <contour>
      <point x="332" y="534" type="move" name="top"/>
    </contour>
  </outline>
</glyph>
<glyph name="B" format="1">
  <advance width="437"/>
  <unicode hex="0042"/>
  <outline>
    <contour>
      <point x="328" y="314"/>
      <point x="380" y="356"/>
      <point x="394" y="420" type="curve" smooth="yes"/>
      <point x="408" y="484"/>
      <point x="379" y="537"/>
      <point x="280" y="537" type="curve" smooth="yes"/>
      <point x="258" y="537"/>
      <point x="216" y="532"/>
      <point x="189" y="532" type="curve" smooth="yes"/>
      <point x="157" y="532"/>
      <point x="126" y="534"/>
      <point x="101" y="534" type="curve" smooth="yes"/>
      <point x="97" y="534"/>
      <point x="97" y="524"/>
      <point x="101" y="524" type="curve" smooth="yes"/>
      <point x="159" y="524"/>
      <point x="167" y="515"/>
      <point x="159" y="466" type="curve" smooth="yes"/>
      <point x="89" y="70" type="line" smooth="yes"/>
      <point x="80" y="21"/>
      <point x="67" y="10"/>
      <point x="8" y="10" type="curve" smooth="yes"/>
      <point x="4" y="10"/>
      <point x="4" y="0"/>
      <point x="8" y="0" type="curve" smooth="yes"/>
      <point x="31" y="0"/>
      <point x="63" y="2"/>
      <point x="97" y="2" type="curve" smooth="yes"/>
      <point x="132" y="2"/>
      <point x="176" y="-3"/>
      <point x="210" y="-3" type="curve" smooth="yes"/>
      <point x="300" y="-3"/>
      <point x="380" y="68"/>
      <point x="395" y="155" type="curve" smooth="yes"/>
      <point x="410" y="239"/>
      <point x="359" y="302"/>
      <point x="264" y="302" type="curve"/>
      <point x="254" y="294" type="line"/>
    </contour>
    <contour>
      <point x="347" y="526"/>
      <point x="363" y="475"/>
      <point x="353" y="420" type="curve" smooth="yes"/>
      <point x="341" y="353"/>
      <point x="297" y="300"/>
      <point x="205" y="300" type="curve" smooth="yes"/>
      <point x="203" y="300"/>
      <point x="180" y="300"/>
      <point x="147" y="303" type="curve"/>
      <point x="169" y="296" type="line"/>
      <point x="198" y="462" type="line" smooth="yes"/>
      <point x="209" y="523"/>
      <point x="223" y="526"/>
      <point x="262" y="526" type="curve" smooth="yes"/>
    </contour>
    <contour>
      <point x="132" y="10"/>
      <point x="121" y="25"/>
      <point x="129" y="68" type="curve" smooth="yes"/>
      <point x="168" y="289" type="line"/>
      <point x="146" y="280" type="line"/>
      <point x="174" y="284"/>
      <point x="201" y="285"/>
      <point x="231" y="284" type="curve" smooth="yes"/>
      <point x="320" y="282"/>
      <point x="361" y="227"/>
      <point x="347" y="140" type="curve" smooth="yes"/>
      <point x="335" y="66"/>
      <point x="288" y="10"/>
      <point x="200" y="10" type="curve" smooth="yes"/>
    </contour>
    <contour>
      <point x="147" y="303" type="move"/>
    </contour>
    <contour>
      <point x="284" y="534" type="move" name="top"/>
    </contour>
    <contour>
      <point x="190" y="0" type="move" name="bottom"/>
    </contour>
  </outline>
</glyph>
<glyph name="C" format="1">
  <advance width="500"/>
  <unicode hex="0043"/>
  <outline>
    <contour>
      <point x="314" y="-11"/>
      <point x="367" y="-4"/>
      <point x="421" y="13" type="curve" smooth="yes"/>
      <point x="431" y="16"/>
      <point x="432" y="19"/>
      <point x="436" y="33" type="curve" smooth="yes"/>
      <point x="462" y="124" type="line" smooth="yes"/>
      <point x="463" y="127"/>
      <point x="455" y="131"/>
      <point x="453" y="127" type="curve" smooth="yes"/>
      <point x="407" y="40"/>
      <point x="341" y="-1"/>
      <point x="275" y="-1" type="curve" smooth="yes"/>
      <point x="153" y="-1"/>
      <point x="81" y="132"/>
      <point x="110" y="296" type="curve" smooth="yes"/>
      <point x="134" y="434"/>
      <point x="224" y="526"/>
      <point x="339" y="526" type="curve" smooth="yes"/>
      <point x="421" y="526"/>
      <point x="478" y="494"/>
      <point x="484" y="402" type="curve" smooth="yes"/>
      <point x="484" y="398"/>
      <point x="492" y="398"/>
      <point x="493" y="402" type="curve" smooth="yes"/>
      <point x="500" y="492" type="line" smooth="yes"/>
      <point x="501" y="504"/>
      <point x="501" y="506"/>
      <point x="493" y="512" type="curve" smooth="yes"/>
      <point x="467" y="533"/>
      <point x="416" y="544"/>
      <point x="370" y="544" type="curve" smooth="yes"/>
      <point x="233" y="544"/>
      <point x="87" y="434"/>
      <point x="58" y="273" type="curve" smooth="yes"/>
      <point x="34" y="141"/>
      <point x="79" y="-11"/>
      <point x="270" y="-11" type="curve" smooth="yes"/>
    </contour>
    <contour>
      <point x="357" y="534" type="move" name="top"/>
    </contour>
    <contour>
      <point x="261" y="0" type="move" name="bottom"/>
    </contour>
  </outline>
</glyph>
<glyph name="D" format="1">
  <advance width="518"/>
  <unicode hex="0044"/>
  <outline>
    <contour>
      <point x="333" y="-3"/>
      <point x="469" y="105"/>
      <point x="499" y="276" type="curve" smooth="yes"/>
      <point x="525" y="423"/>
      <point x="439" y="536"/>
      <point x="283" y="536" type="curve" smooth="yes"/>
      <point x="258" y="536"/>
      <point x="218" y="532"/>
      <point x="187" y="532" type="curve" smooth="yes"/>
      <point x="154" y="532"/>
      <point x="124" y="534"/>
      <point x="101" y="534" type="curve" smooth="yes"/>
      <point x="98" y="534"/>
      <point x="98" y="524"/>
      <point x="101" y="524" type="curve" smooth="yes"/>
      <point x="156" y="524"/>
      <point x="164" y="514"/>
      <point x="155" y="465" type="curve" smooth="yes"/>
      <point x="85" y="69" type="line" smooth="yes"/>
      <point x="76" y="20"/>
      <point x="64" y="10"/>
      <point x="9" y="10" type="curve" smooth="yes"/>
      <point x="6" y="10"/>
      <point x="6" y="0"/>
      <point x="9" y="0" type="curve" smooth="yes"/>
      <point x="32" y="0"/>
      <point x="60" y="2"/>
      <point x="94" y="2" type="curve" smooth="yes"/>
      <point x="127" y="2"/>
      <point x="171" y="-3"/>
      <point x="198" y="-3" type="curve" smooth="yes"/>
    </contour>
    <contour>
      <point x="128" y="8"/>
      <point x="118" y="30"/>
      <point x="127" y="79" type="curve" smooth="yes"/>
      <point x="195" y="463" type="line" smooth="yes"/>
      <point x="205" y="517"/>
      <point x="228" y="525"/>
      <point x="288" y="525" type="curve" smooth="yes"/>
      <point x="414" y="525"/>
      <point x="473" y="407"/>
      <point x="446" y="257" type="curve" smooth="yes"/>
      <point x="417" y="96"/>
      <point x="314" y="8"/>
      <point x="193" y="8" type="curve" smooth="yes"/>
    </contour>
    <contour>
      <point x="279" y="267" type="move" name="center"/>
    </contour>
    <contour>
      <point x="222" y="0" type="move" name="bottom"/>
    </contour>
    <contour>
      <point x="278" y="534" type="move" name="top"/>
    </contour>
  </outline>
</glyph>
<glyph name="E" format="1">
  <advance width="436"/>
  <unicode hex="0045"/>
  <outline>
    <contour>
      <point x="358" y="0" type="line" smooth="yes"/>
      <point x="367" y="0"/>
      <point x="370" y="3"/>
      <point x="372" y="13" type="curve" smooth="yes"/>
      <point x="378" y="48"/>
      <point x="388" y="94"/>
      <point x="398" y="124" type="curve" smooth="yes"/>
      <point x="399" y="127"/>
      <point x="389" y="129"/>
      <point x="388" y="126" type="curve" smooth="yes"/>
      <point x="369" y="61"/>
      <point x="332" y="15"/>
      <point x="294" y="15" type="curve" smooth="yes"/>
      <point x="182" y="15" type="line" smooth="yes"/>
      <point x="128" y="15"/>
      <point x="121" y="25"/>
      <point x="129" y="73" type="curve" smooth="yes"/>
      <point x="198" y="464" type="line" smooth="yes"/>
      <point x="207" y="513"/>
      <point x="217" y="522"/>
      <point x="271" y="522" type="curve" smooth="yes"/>
      <point x="356" y="522" type="line" smooth="yes"/>
      <point x="399" y="522"/>
      <point x="419" y="482"/>
      <point x="409" y="423" type="curve" smooth="yes"/>
      <point x="408" y="420"/>
      <point x="418" y="418"/>
      <point x="419" y="422" type="curve" smooth="yes"/>
      <point x="423" y="446"/>
      <point x="430" y="496"/>
      <point x="435" y="527" type="curve" smooth="yes"/>
      <point x="436" y="532"/>
      <point x="435" y="534"/>
      <point x="430" y="534" type="curve" smooth="yes"/>
      <point x="104" y="534" type="line" smooth="yes"/>
      <point x="101" y="534"/>
      <point x="101" y="524"/>
      <point x="104" y="524" type="curve" smooth="yes"/>
      <point x="159" y="524"/>
      <point x="167" y="514"/>
      <point x="158" y="465" type="curve" smooth="yes"/>
      <point x="88" y="69" type="line" smooth="yes"/>
      <point x="79" y="20"/>
      <point x="68" y="10"/>
      <point x="13" y="10" type="curve" smooth="yes"/>
      <point x="10" y="10"/>
      <point x="10" y="0"/>
      <point x="13" y="0" type="curve" smooth="yes"/>
    </contour>
    <contour>
      <point x="351" y="229"/>
      <point x="354" y="252"/>
      <point x="358" y="278" type="curve" smooth="yes"/>
      <point x="361" y="298"/>
      <point x="365" y="312"/>
      <point x="370" y="344" type="curve" smooth="yes"/>
      <point x="371" y="349"/>
      <point x="361" y="350"/>
      <point x="360" y="345" type="curve" smooth="yes"/>
      <point x="353" y="302"/>
      <point x="337" y="286"/>
      <point x="293" y="286" type="curve" smooth="yes"/>
      <point x="149" y="286" type="line"/>
      <point x="146" y="270" type="line" smooth="yes"/>
      <point x="287" y="270" type="line" smooth="yes"/>
      <point x="334" y="270"/>
      <point x="345" y="252"/>
      <point x="336" y="201" type="curve" smooth="yes"/>
      <point x="335" y="196"/>
      <point x="345" y="195"/>
      <point x="346" y="200" type="curve" smooth="yes"/>
    </contour>
    <contour>
      <point x="345" y="10" type="move" name="ogonek"/>
    </contour>
    <contour>
      <point x="283" y="534" type="move" name="top"/>
    </contour>
    <contour>
      <point x="85" y="534" type="move" name="topleft"/>
    </contour>
    <contour>
      <point x="231" y="0" type="move" name="bottom"/>
    </contour>
  </outline>
</glyph>
<glyph name="F" format="1">
  <advance width="413"/>
  <unicode hex="0046"/>
  <outline>
    <contour>
      <point x="33" y="0"/>
      <point x="63" y="2"/>
      <point x="94" y="2" type="curve" smooth="yes"/>
      <point x="140" y="2"/>
      <point x="180" y="0"/>
      <point x="211" y="0" type="curve" smooth="yes"/>
      <point x="214" y="0"/>
      <point x="214" y="10"/>
      <point x="211" y="10" type="curve" smooth="yes"/>
      <point x="124" y="10"/>
      <point x="118" y="22"/>
      <point x="127" y="73" type="curve" smooth="yes"/>
      <point x="196" y="464" type="line" smooth="yes"/>
      <point x="205" y="513"/>
      <point x="215" y="522"/>
      <point x="269" y="522" type="curve" smooth="yes"/>
      <point x="354" y="522" type="line" smooth="yes"/>
      <point x="397" y="522"/>
      <point x="417" y="482"/>
      <point x="407" y="423" type="curve" smooth="yes"/>
      <point x="406" y="420"/>
      <point x="416" y="418"/>
      <point x="417" y="422" type="curve" smooth="yes"/>
      <point x="421" y="446"/>
      <point x="428" y="496"/>
      <point x="433" y="527" type="curve" smooth="yes"/>
      <point x="434" y="532"/>
      <point x="433" y="534"/>
      <point x="428" y="534" type="curve" smooth="yes"/>
      <point x="102" y="534" type="line" smooth="yes"/>
      <point x="99" y="534"/>
      <point x="99" y="524"/>
      <point x="102" y="524" type="curve" smooth="yes"/>
      <point x="157" y="524"/>
      <point x="165" y="513"/>
      <point x="156" y="465" type="curve" smooth="yes"/>
      <point x="86" y="69" type="line" smooth="yes"/>
      <point x="77" y="20"/>
      <point x="66" y="10"/>
      <point x="11" y="10" type="curve" smooth="yes"/>
      <point x="8" y="10"/>
      <point x="8" y="0"/>
      <point x="11" y="0" type="curve"/>
    </contour>
    <contour>
      <point x="339" y="219"/>
      <point x="341" y="242"/>
      <point x="346" y="268" type="curve" smooth="yes"/>
      <point x="350" y="288"/>
      <point x="353" y="302"/>
      <point x="358" y="334" type="curve" smooth="yes"/>
      <point x="359" y="339"/>
      <point x="349" y="340"/>
      <point x="348" y="335" type="curve" smooth="yes"/>
      <point x="341" y="292"/>
      <point x="325" y="276"/>
      <point x="281" y="276" type="curve" smooth="yes"/>
      <point x="137" y="276" type="line"/>
      <point x="134" y="260" type="line" smooth="yes"/>
      <point x="275" y="260" type="line" smooth="yes"/>
      <point x="322" y="260"/>
      <point x="333" y="242"/>
      <point x="324" y="191" type="curve" smooth="yes"/>
      <point x="323" y="186"/>
      <point x="333" y="185"/>
      <point x="334" y="190" type="curve" smooth="yes"/>
    </contour>
    <contour>
      <point x="272" y="534" type="move" name="top"/>
    </contour>
    <contour>
      <point x="178" y="0" type="move" name="bottom"/>
    </contour>
  </outline>
</glyph>
<glyph name="G" format="1">
  <advance width="539"/>
  <unicode hex="0047"/>
  <outline>
    <contour>
      <point x="331" y="-10"/>
      <point x="387" y="0"/>
      <point x="438" y="14" type="curve" smooth="yes"/>
      <point x="445" y="16"/>
      <point x="447" y="17"/>
      <point x="448" y="24" type="curve" smooth="yes"/>
      <point x="451" y="38"/>
      <point x="446" y="42"/>
      <point x="456" y="99" type="curve" smooth="yes"/>
      <point x="472" y="190"/>
      <point x="477" y="200"/>
      <point x="513" y="199" type="curve" smooth="yes"/>
      <point x="518" y="199"/>
      <point x="517" y="211"/>
      <point x="513" y="211" type="curve" smooth="yes"/>
      <point x="458" y="208"/>
      <point x="413" y="208"/>
      <point x="354" y="213" type="curve" smooth="yes"/>
      <point x="349" y="213"/>
      <point x="348" y="199"/>
      <point x="354" y="199" type="curve" smooth="yes"/>
      <point x="433" y="199"/>
      <point x="435" y="190"/>
      <point x="421" y="108" type="curve" smooth="yes"/>
      <point x="406" y="20"/>
      <point x="376" y="4"/>
      <point x="303" y="4" type="curve" smooth="yes"/>
      <point x="163" y="4"/>
      <point x="81" y="121"/>
      <point x="113" y="294" type="curve" smooth="yes"/>
      <point x="139" y="434"/>
      <point x="232" y="526"/>
      <point x="367" y="526" type="curve" smooth="yes"/>
      <point x="449" y="526"/>
      <point x="498" y="484"/>
      <point x="501" y="402" type="curve" smooth="yes"/>
      <point x="501" y="398"/>
      <point x="510" y="397"/>
      <point x="511" y="402" type="curve" smooth="yes"/>
      <point x="518" y="492" type="line" smooth="yes"/>
      <point x="519" y="501"/>
      <point x="521" y="504"/>
      <point x="514" y="511" type="curve" smooth="yes"/>
      <point x="489" y="533"/>
      <point x="446" y="544"/>
      <point x="400" y="544" type="curve" smooth="yes"/>
      <point x="235" y="544"/>
      <point x="90" y="428"/>
      <point x="60" y="263" type="curve" smooth="yes"/>
      <point x="32" y="109"/>
      <point x="112" y="-10"/>
      <point x="282" y="-10" type="curve" smooth="yes"/>
    </contour>
    <contour>
      <point x="379" y="534" type="move" name="top"/>
    </contour>
    <contour>
      <point x="294" y="0" type="move" name="bottom"/>
    </contour>
  </outline>
</glyph>
<glyph name="H" format="1">
  <advance width="573"/>
  <unicode hex="0048"/>
  <outline>
    <contour>
      <point x="31" y="0"/>
      <point x="61" y="2"/>
      <point x="92" y="2" type="curve" smooth="yes"/>
      <point x="126" y="2"/>
      <point x="156" y="0"/>
      <point x="179" y="0" type="curve" smooth="yes"/>
      <point x="182" y="0"/>
      <point x="182" y="10"/>
      <point x="179" y="10" type="curve" smooth="yes"/>
      <point x="123" y="10"/>
      <point x="116" y="20"/>
      <point x="125" y="69" type="curve" smooth="yes"/>
      <point x="195" y="463" type="line" smooth="yes"/>
      <point x="204" y="512"/>
      <point x="215" y="524"/>
      <point x="270" y="524" type="curve" smooth="yes"/>
      <point x="273" y="524"/>
      <point x="273" y="534"/>
      <point x="270" y="534" type="curve" smooth="yes"/>
      <point x="248" y="534"/>
      <point x="216" y="532"/>
      <point x="184" y="532" type="curve" smooth="yes"/>
      <point x="152" y="532"/>
      <point x="123" y="534"/>
      <point x="101" y="534" type="curve" smooth="yes"/>
      <point x="98" y="534"/>
      <point x="98" y="524"/>
      <point x="101" y="524" type="curve" smooth="yes"/>
      <point x="156" y="524"/>
      <point x="163" y="514"/>
      <point x="155" y="465" type="curve" smooth="yes"/>
      <point x="85" y="69" type="line" smooth="yes"/>
      <point x="76" y="20"/>
      <point x="64" y="10"/>
      <point x="9" y="10" type="curve" smooth="yes"/>
      <point x="6" y="10"/>
      <point x="6" y="0"/>
      <point x="9" y="0" type="curve" smooth="yes"/>
    </contour>
    <contour>
      <point x="466" y="270" type="line"/>
      <point x="468" y="286" type="line"/>
      <point x="141" y="286" type="line"/>
      <point x="138" y="270" type="line"/>
    </contour>
    <contour>
      <point x="361" y="0"/>
      <point x="392" y="2"/>
      <point x="424" y="2" type="curve" smooth="yes"/>
      <point x="456" y="2"/>
      <point x="486" y="0"/>
      <point x="508" y="0" type="curve" smooth="yes"/>
      <point x="511" y="0"/>
      <point x="511" y="10"/>
      <point x="508" y="10" type="curve" smooth="yes"/>
      <point x="453" y="10"/>
      <point x="445" y="20"/>
      <point x="453" y="69" type="curve" smooth="yes"/>
      <point x="523" y="465" type="line" smooth="yes"/>
      <point x="532" y="514"/>
      <point x="544" y="524"/>
      <point x="598" y="524" type="curve" smooth="yes"/>
      <point x="601" y="524"/>
      <point x="601" y="534"/>
      <point x="598" y="534" type="curve" smooth="yes"/>
      <point x="576" y="534"/>
      <point x="544" y="532"/>
      <point x="513" y="532" type="curve" smooth="yes"/>
      <point x="481" y="532"/>
      <point x="451" y="534"/>
      <point x="429" y="534" type="curve" smooth="yes"/>
      <point x="426" y="534"/>
      <point x="426" y="524"/>
      <point x="429" y="524" type="curve" smooth="yes"/>
      <point x="485" y="524"/>
      <point x="491" y="512"/>
      <point x="482" y="463" type="curve" smooth="yes"/>
      <point x="413" y="69" type="line" smooth="yes"/>
      <point x="404" y="20"/>
      <point x="394" y="10"/>
      <point x="338" y="10" type="curve" smooth="yes"/>
      <point x="335" y="10"/>
      <point x="335" y="0"/>
      <point x="338" y="0" type="curve" smooth="yes"/>
    </contour>
    <contour>
      <point x="268" y="0" type="move" name="bottom"/>
    </contour>
    <contour>
      <point x="352" y="534" type="move" name="top"/>
    </contour>
    <contour>
      <point x="85" y="534" type="move" name="topleft"/>
    </contour>
    <contour>
      <point x="278" y="267" type="move" name="center"/>
    </contour>
  </outline>
</glyph>
<glyph name="I" format="1">
  <advance width="257"/>
  <unicode hex="0049"/>
  <outline>
    <contour>
      <point x="39" y="0"/>
      <point x="69" y="2"/>
      <point x="101" y="2" type="curve" smooth="yes"/>
      <point x="136" y="2"/>
      <point x="164" y="0"/>
      <point x="187" y="0" type="curve" smooth="yes"/>
      <point x="190" y="0"/>
      <point x="190" y="10"/>
      <point x="187" y="10" type="curve" smooth="yes"/>
      <point x="131" y="10"/>
      <point x="123" y="20"/>
      <point x="132" y="69" type="curve" smooth="yes"/>
      <point x="202" y="463" type="line" smooth="yes"/>
      <point x="211" y="512"/>
      <point x="222" y="524"/>
      <point x="277" y="524" type="curve" smooth="yes"/>
      <point x="280" y="524"/>
      <point x="280" y="534"/>
      <point x="277" y="534" type="curve" smooth="yes"/>
      <point x="255" y="534"/>
      <point x="226" y="532"/>
      <point x="190" y="532" type="curve" smooth="yes"/>
      <point x="158" y="532"/>
      <point x="129" y="534"/>
      <point x="106" y="534" type="curve" smooth="yes"/>
      <point x="103" y="534"/>
      <point x="103" y="524"/>
      <point x="106" y="524" type="curve" smooth="yes"/>
      <point x="161" y="524"/>
      <point x="170" y="514"/>
      <point x="161" y="465" type="curve" smooth="yes"/>
      <point x="91" y="69" type="line" smooth="yes"/>
      <point x="82" y="20"/>
      <point x="71" y="10"/>
      <point x="16" y="10" type="curve" smooth="yes"/>
      <point x="13" y="10"/>
      <point x="13" y="0"/>
      <point x="16" y="0" type="curve" smooth="yes"/>
    </contour>
    <contour>
      <point x="112" y="10" type="move" name="ogonek"/>
    </contour>
    <contour>
      <point x="191" y="534" type="move" name="top"/>
    </contour>
    <contour>
      <point x="85" y="534" type="move" name="topleft"/>
    </contour>
    <contour>
      <point x="100" y="0" type="move" name="bottom"/>
    </contour>
  </outline>
</glyph>
<glyph name="J" format="1">
  <advance width="232"/>
  <unicode hex="004A"/>
  <outline>
    <contour>
      <point x="65" y="-125"/>
      <point x="97" y="-76"/>
      <point x="121" y="57" type="curve" smooth="yes"/>
      <point x="193" y="463" type="line" smooth="yes"/>
      <point x="202" y="512"/>
      <point x="213" y="524"/>
      <point x="268" y="524" type="curve" smooth="yes"/>
      <point x="271" y="524"/>
      <point x="271" y="534"/>
      <point x="268" y="534" type="curve" smooth="yes"/>
      <point x="246" y="534"/>
      <point x="217" y="532"/>
      <point x="181" y="532" type="curve" smooth="yes"/>
      <point x="149" y="532"/>
      <point x="120" y="534"/>
      <point x="97" y="534" type="curve" smooth="yes"/>
      <point x="94" y="534"/>
      <point x="94" y="524"/>
      <point x="97" y="524" type="curve" smooth="yes"/>
      <point x="152" y="524"/>
      <point x="161" y="514"/>
      <point x="152" y="465" type="curve" smooth="yes"/>
      <point x="76" y="34" type="line" smooth="yes"/>
      <point x="59" y="-60"/>
      <point x="32" y="-124"/>
      <point x="-21" y="-156" type="curve" smooth="yes"/>
      <point x="-24" y="-158"/>
      <point x="-19" y="-167"/>
      <point x="-16" y="-165" type="curve" smooth="yes"/>
    </contour>
    <contour>
      <point x="181" y="534" type="move" name="top"/>
    </contour>
    <contour>
      <point x="87" y="0" type="move" name="bottom"/>
    </contour>
  </outline>
</glyph>
<glyph name="K" format="1">
  <advance width="502"/>
  <unicode hex="004B"/>
  <outline>
    <contour>
      <point x="31" y="0"/>
      <point x="61" y="2"/>
      <point x="92" y="2" type="curve" smooth="yes"/>
      <point x="126" y="2"/>
      <point x="146" y="0"/>
      <point x="169" y="0" type="curve" smooth="yes"/>
      <point x="172" y="0"/>
      <point x="172" y="10"/>
      <point x="169" y="10" type="curve" smooth="yes"/>
      <point x="113" y="10"/>
      <point x="116" y="20"/>
      <point x="125" y="69" type="curve" smooth="yes"/>
      <point x="195" y="463" type="line" smooth="yes"/>
      <point x="204" y="512"/>
      <point x="215" y="524"/>
      <point x="270" y="524" type="curve" smooth="yes"/>
      <point x="273" y="524"/>
      <point x="273" y="534"/>
      <point x="270" y="534" type="curve" smooth="yes"/>
      <point x="248" y="534"/>
      <point x="216" y="532"/>
      <point x="184" y="532" type="curve" smooth="yes"/>
      <point x="152" y="532"/>
      <point x="123" y="534"/>
      <point x="101" y="534" type="curve" smooth="yes"/>
      <point x="98" y="534"/>
      <point x="98" y="524"/>
      <point x="101" y="524" type="curve" smooth="yes"/>
      <point x="156" y="524"/>
      <point x="163" y="514"/>
      <point x="155" y="465" type="curve" smooth="yes"/>
      <point x="85" y="69" type="line" smooth="yes"/>
      <point x="76" y="20"/>
      <point x="64" y="10"/>
      <point x="9" y="10" type="curve" smooth="yes"/>
      <point x="6" y="10"/>
      <point x="6" y="0"/>
      <point x="9" y="0" type="curve" smooth="yes"/>
    </contour>
    <contour>
      <point x="402" y="0"/>
      <point x="424" y="0"/>
      <point x="462" y="0" type="curve" smooth="yes"/>
      <point x="465" y="0"/>
      <point x="465" y="10"/>
      <point x="462" y="10" type="curve" smooth="yes"/>
      <point x="418" y="10"/>
      <point x="401" y="13"/>
      <point x="311" y="170" type="curve" smooth="yes"/>
      <point x="222" y="325" type="line"/>
      <point x="186" y="298" type="line"/>
      <point x="286" y="124" type="line" smooth="yes"/>
      <point x="361" y="-6"/>
      <point x="342" y="0"/>
      <point x="391" y="0" type="curve" smooth="yes"/>
    </contour>
    <contour>
      <point x="146" y="252" type="line"/>
      <point x="390" y="465" type="line" smooth="yes"/>
      <point x="439" y="512"/>
      <point x="487" y="524"/>
      <point x="521" y="524" type="curve" smooth="yes"/>
      <point x="524" y="524"/>
      <point x="524" y="534"/>
      <point x="521" y="534" type="curve" smooth="yes"/>
      <point x="501" y="534"/>
      <point x="483" y="532"/>
      <point x="447" y="532" type="curve" smooth="yes"/>
      <point x="408" y="532"/>
      <point x="389" y="534"/>
      <point x="366" y="534" type="curve" smooth="yes"/>
      <point x="363" y="534"/>
      <point x="363" y="524"/>
      <point x="366" y="524" type="curve" smooth="yes"/>
      <point x="417" y="524"/>
      <point x="419" y="514"/>
      <point x="374" y="470" type="curve" smooth="yes"/>
      <point x="128" y="251" type="line"/>
    </contour>
    <contour>
      <point x="324" y="534" type="move" name="top"/>
    </contour>
    <contour>
      <point x="248" y="0" type="move" name="bottom"/>
    </contour>
  </outline>
</glyph>
<glyph name="M" format="1">
  <advance width="624"/>
  <unicode hex="004D"/>
  <outline>
    <contour>
      <point x="422" y="0"/>
      <point x="451" y="2"/>
      <point x="484" y="2" type="curve" smooth="yes"/>
      <point x="517" y="2"/>
      <point x="547" y="0"/>
      <point x="569" y="0" type="curve" smooth="yes"/>
      <point x="572" y="0"/>
      <point x="572" y="10"/>
      <point x="569" y="10" type="curve" smooth="yes"/>
      <point x="514" y="10"/>
      <point x="507" y="20"/>
      <point x="514" y="69" type="curve" smooth="yes"/>
      <point x="573" y="467" type="line" smooth="yes"/>
      <point x="580" y="515"/>
      <point x="606" y="524"/>
      <point x="653" y="524" type="curve" smooth="yes"/>
      <point x="655" y="524"/>
      <point x="655" y="534"/>
      <point x="653" y="534" type="curve" smooth="yes"/>
      <point x="636" y="534"/>
      <point x="622" y="533"/>
      <point x="597" y="533" type="curve" smooth="yes"/>
      <point x="585" y="533"/>
      <point x="571" y="534"/>
      <point x="565" y="534" type="curve" smooth="yes"/>
      <point x="557" y="534"/>
      <point x="546" y="526"/>
      <point x="539" y="513" type="curve" smooth="yes"/>
      <point x="278" y="30" type="line"/>
      <point x="300" y="63" type="line"/>
      <point x="209" y="490" type="line" smooth="yes"/>
      <point x="201" y="527"/>
      <point x="196" y="534"/>
      <point x="183" y="534" type="curve" smooth="yes"/>
      <point x="177" y="534"/>
      <point x="168" y="533"/>
      <point x="154" y="533" type="curve" smooth="yes"/>
      <point x="143" y="533"/>
      <point x="123" y="534"/>
      <point x="109" y="534" type="curve" smooth="yes"/>
      <point x="106" y="534"/>
      <point x="106" y="524"/>
      <point x="109" y="524" type="curve" smooth="yes"/>
      <point x="131" y="524"/>
      <point x="162" y="517"/>
      <point x="173" y="463" type="curve" smooth="yes"/>
      <point x="269" y="7" type="line" smooth="yes"/>
      <point x="270" y="2"/>
      <point x="279" y="2"/>
      <point x="281" y="6" type="curve" smooth="yes"/>
      <point x="561" y="524" type="line"/>
      <point x="539" y="504" type="line"/>
      <point x="474" y="69" type="line" smooth="yes"/>
      <point x="467" y="20"/>
      <point x="455" y="10"/>
      <point x="399" y="10" type="curve" smooth="yes"/>
      <point x="396" y="10"/>
      <point x="396" y="0"/>
      <point x="399" y="0" type="curve" smooth="yes"/>
    </contour>
    <contour>
      <point x="35" y="0"/>
      <point x="57" y="2"/>
      <point x="80" y="2" type="curve" smooth="yes"/>
      <point x="106" y="2"/>
      <point x="125" y="0"/>
      <point x="143" y="0" type="curve" smooth="yes"/>
      <point x="146" y="0"/>
      <point x="146" y="10"/>
      <point x="143" y="10" type="curve" smooth="yes"/>
      <point x="102" y="10"/>
      <point x="93" y="31"/>
      <point x="103" y="89" type="curve" smooth="yes"/>
      <point x="179" y="513" type="line"/>
      <point x="165" y="515" type="line"/>
      <point x="87" y="89" type="line" smooth="yes"/>
      <point x="76" y="31"/>
      <point x="57" y="10"/>
      <point x="16" y="10" type="curve" smooth="yes"/>
      <point x="13" y="10"/>
      <point x="13" y="0"/>
      <point x="16" y="0" type="curve" smooth="yes"/>
    </contour>
    <contour>
      <point x="367" y="534" type="move" name="top"/>
    </contour>
    <contour>
      <point x="283" y="0" type="move" name="bottom"/>
    </contour>
  </outline>
</glyph>
<glyph name="N" format="1">
  <advance width="556"/>
  <unicode hex="004E"/>
  <outline>
    <contour>
      <point x="423" y="-14"/>
      <point x="430" y="-13"/>
      <point x="431" y="-9" type="curve" smooth="yes"/>
      <point x="436" y="56" type="line"/>
      <point x="215" y="490" type="line" smooth="yes"/>
      <point x="199" y="522"/>
      <point x="203" y="534"/>
      <point x="190" y="534" type="curve" smooth="yes"/>
      <point x="184" y="534"/>
      <point x="171" y="533"/>
      <point x="157" y="533" type="curve" smooth="yes"/>
      <point x="143" y="533"/>
      <point x="122" y="534"/>
      <point x="106" y="534" type="curve" smooth="yes"/>
      <point x="103" y="534"/>
      <point x="103" y="524"/>
      <point x="106" y="524" type="curve" smooth="yes"/>
      <point x="130" y="524"/>
      <point x="153" y="511"/>
      <point x="177" y="464" type="curve" smooth="yes"/>
      <point x="421" y="-9" type="line" smooth="yes"/>
    </contour>
    <contour>
      <point x="32" y="0"/>
      <point x="54" y="2"/>
      <point x="77" y="2" type="curve" smooth="yes"/>
      <point x="103" y="2"/>
      <point x="122" y="0"/>
      <point x="140" y="0" type="curve" smooth="yes"/>
      <point x="143" y="0"/>
      <point x="143" y="10"/>
      <point x="140" y="10" type="curve" smooth="yes"/>
      <point x="99" y="10"/>
      <point x="90" y="31"/>
      <point x="100" y="89" type="curve" smooth="yes"/>
      <point x="173" y="513" type="line"/>
      <point x="159" y="515" type="line"/>
      <point x="84" y="89" type="line" smooth="yes"/>
      <point x="74" y="31"/>
      <point x="54" y="10"/>
      <point x="13" y="10" type="curve" smooth="yes"/>
      <point x="10" y="10"/>
      <point x="10" y="0"/>
      <point x="13" y="0" type="curve" smooth="yes"/>
    </contour>
    <contour>
      <point x="511" y="445" type="line" smooth="yes"/>
      <point x="521" y="503"/>
      <point x="541" y="524"/>
      <point x="582" y="524" type="curve" smooth="yes"/>
      <point x="585" y="524"/>
      <point x="585" y="534"/>
      <point x="582" y="534" type="curve" smooth="yes"/>
      <point x="563" y="534"/>
      <point x="541" y="532"/>
      <point x="518" y="532" type="curve" smooth="yes"/>
      <point x="492" y="532"/>
      <point x="473" y="534"/>
      <point x="455" y="534" type="curve" smooth="yes"/>
      <point x="452" y="534"/>
      <point x="452" y="524"/>
      <point x="455" y="524" type="curve" smooth="yes"/>
      <point x="496" y="524"/>
      <point x="505" y="503"/>
      <point x="495" y="445" type="curve" smooth="yes"/>
      <point x="421" y="17" type="line"/>
      <point x="431" y="-9" type="line"/>
    </contour>
    <contour>
      <point x="333" y="534" type="move" name="top"/>
    </contour>
    <contour>
      <point x="264" y="0" type="move" name="bottom"/>
    </contour>
  </outline>
</glyph>
<glyph name="O" format="1">
  <advance width="556"/>
  <unicode hex="004F"/>
  <outline>
    <contour>
      <point x="377" y="-10"/>
      <point x="506" y="104"/>
      <point x="535" y="268" type="curve" smooth="yes"/>
      <point x="562" y="416"/>
      <point x="495" y="544"/>
      <point x="350" y="544" type="curve" smooth="yes"/>
      <point x="213" y="544"/>
      <point x="89" y="429"/>
      <point x="61" y="268" type="curve" smooth="yes"/>
      <point x="34" y="115"/>
      <point x="104" y="-10"/>
      <point x="244" y="-10" type="curve" smooth="yes"/>
    </contour>
    <contour>
      <point x="140" y="12"/>
      <point x="75" y="151"/>
      <point x="107" y="313" type="curve" smooth="yes"/>
      <point x="132" y="441"/>
      <point x="207" y="523"/>
      <point x="315" y="523" type="curve" smooth="yes"/>
      <point x="452" y="523"/>
      <point x="524" y="393"/>
      <point x="488" y="222" type="curve" smooth="yes"/>
      <point x="459" y="85"/>
      <point x="381" y="12"/>
      <point x="280" y="12" type="curve" smooth="yes"/>
    </contour>
    <contour>
      <point x="263" y="0" type="move" name="bottom"/>
    </contour>
    <contour>
      <point x="340" y="10" type="move" name="ogonek"/>
    </contour>
    <contour>
      <point x="341" y="534" type="move" name="top"/>
    </contour>
    <contour>
      <point x="495" y="493" type="move" name="topright"/>
    </contour>
    <contour>
      <point x="85" y="534" type="move" name="topleft"/>
    </contour>
    <contour>
      <point x="293" y="267" type="move" name="center"/>
    </contour>
  </outline>
</glyph>
<glyph name="P" format="1">
  <advance width="424"/>
  <unicode hex="0050"/>
  <outline>
    <contour>
      <point x="32" y="0"/>
      <point x="62" y="2"/>
      <point x="93" y="2" type="curve" smooth="yes"/>
      <point x="127" y="2"/>
      <point x="157" y="0"/>
      <point x="180" y="0" type="curve" smooth="yes"/>
      <point x="183" y="0"/>
      <point x="183" y="10"/>
      <point x="180" y="10" type="curve" smooth="yes"/>
      <point x="124" y="10"/>
      <point x="117" y="20"/>
      <point x="126" y="69" type="curve" smooth="yes"/>
      <point x="195" y="463" type="line" smooth="yes"/>
      <point x="206" y="524"/>
      <point x="217" y="526"/>
      <point x="272" y="526" type="curve" smooth="yes"/>
      <point x="339" y="526"/>
      <point x="395" y="469"/>
      <point x="376" y="370" type="curve" smooth="yes"/>
      <point x="358" y="278"/>
      <point x="278" y="236"/>
      <point x="210" y="236" type="curve" smooth="yes"/>
      <point x="202" y="236"/>
      <point x="193" y="237"/>
      <point x="185" y="239" type="curve" smooth="yes"/>
      <point x="181" y="240"/>
      <point x="178" y="229"/>
      <point x="181" y="228" type="curve" smooth="yes"/>
      <point x="192" y="225"/>
      <point x="203" y="224"/>
      <point x="216" y="224" type="curve" smooth="yes"/>
      <point x="293" y="224"/>
      <point x="406" y="273"/>
      <point x="427" y="387" type="curve" smooth="yes"/>
      <point x="446" y="492"/>
      <point x="375" y="537"/>
      <point x="291" y="537" type="curve" smooth="yes"/>
      <point x="249" y="537"/>
      <point x="210" y="532"/>
      <point x="185" y="532" type="curve" smooth="yes"/>
      <point x="153" y="532"/>
      <point x="124" y="534"/>
      <point x="102" y="534" type="curve" smooth="yes"/>
      <point x="99" y="534"/>
      <point x="99" y="524"/>
      <point x="102" y="524" type="curve" smooth="yes"/>
      <point x="157" y="524"/>
      <point x="165" y="514"/>
      <point x="156" y="465" type="curve" smooth="yes"/>
      <point x="86" y="69" type="line" smooth="yes"/>
      <point x="77" y="20"/>
      <point x="65" y="10"/>
      <point x="10" y="10" type="curve" smooth="yes"/>
      <point x="7" y="10"/>
      <point x="7" y="0"/>
      <point x="10" y="0" type="curve" smooth="yes"/>
    </contour>
    <contour>
      <point x="277" y="534" type="move" name="top"/>
    </contour>
    <contour>
      <point x="183" y="0" type="move" name="bottom"/>
    </contour>
  </outline>
</glyph>
<glyph name="Q" format="1">
  <advance width="556"/>
  <unicode hex="0051"/>
  <outline>
    <contour>
      <point x="530" y="-167"/>
      <point x="556" y="-163"/>
      <point x="582" y="-157" type="curve" smooth="yes"/>
      <point x="585" y="-156"/>
      <point x="582" y="-147"/>
      <point x="579" y="-148" type="curve" smooth="yes"/>
      <point x="571" y="-150"/>
      <point x="558" y="-151"/>
      <point x="548" y="-151" type="curve" smooth="yes"/>
      <point x="485" y="-151"/>
      <point x="404" y="-78"/>
      <point x="362" y="25" type="curve"/>
      <point x="313" y="8" type="line"/>
      <point x="365" y="-106"/>
      <point x="446" y="-167"/>
      <point x="509" y="-167" type="curve" smooth="yes"/>
    </contour>
    <component base="O"/>
    <contour>
      <point x="343" y="534" type="move" name="top"/>
    </contour>
    <contour>
      <point x="249" y="0" type="move" name="bottom"/>
    </contour>
  </outline>
</glyph>
<glyph name="T" format="1">
  <advance width="473"/>
  <unicode hex="0054"/>
  <outline>
    <contour>
      <point x="150" y="0"/>
      <point x="180" y="2"/>
      <point x="212" y="2" type="curve" smooth="yes"/>
      <point x="247" y="2"/>
      <point x="275" y="0"/>
      <point x="298" y="0" type="curve" smooth="yes"/>
      <point x="301" y="0"/>
      <point x="301" y="10"/>
      <point x="298" y="10" type="curve" smooth="yes"/>
      <point x="242" y="10"/>
      <point x="234" y="20"/>
      <point x="243" y="69" type="curve" smooth="yes"/>
      <point x="312" y="463" type="line" smooth="yes"/>
      <point x="320" y="509"/>
      <point x="329" y="521"/>
      <point x="377" y="521" type="curve" smooth="yes"/>
      <point x="400" y="521" type="line" smooth="yes"/>
      <point x="477" y="521"/>
      <point x="492" y="493"/>
      <point x="476" y="404" type="curve" smooth="yes"/>
      <point x="475" y="400"/>
      <point x="485" y="399"/>
      <point x="486" y="403" type="curve" smooth="yes"/>
      <point x="490" y="429"/>
      <point x="510" y="522"/>
      <point x="519" y="554" type="curve" smooth="yes"/>
      <point x="520" y="558"/>
      <point x="511" y="559"/>
      <point x="510" y="556" type="curve" smooth="yes"/>
      <point x="502" y="538"/>
      <point x="485" y="534"/>
      <point x="453" y="534" type="curve" smooth="yes"/>
      <point x="415" y="534"/>
      <point x="371" y="532"/>
      <point x="303" y="532" type="curve" smooth="yes"/>
      <point x="249" y="532"/>
      <point x="188" y="533"/>
      <point x="146" y="534" type="curve" smooth="yes"/>
      <point x="133" y="534"/>
      <point x="110" y="535"/>
      <point x="113" y="552" type="curve" smooth="yes"/>
      <point x="114" y="556"/>
      <point x="104" y="557"/>
      <point x="103" y="553" type="curve" smooth="yes"/>
      <point x="96" y="516"/>
      <point x="75" y="431"/>
      <point x="66" y="403" type="curve" smooth="yes"/>
      <point x="65" y="400"/>
      <point x="75" y="398"/>
      <point x="76" y="401" type="curve" smooth="yes"/>
      <point x="102" y="492"/>
      <point x="129" y="521"/>
      <point x="201" y="521" type="curve" smooth="yes"/>
      <point x="224" y="521" type="line" smooth="yes"/>
      <point x="273" y="521"/>
      <point x="280" y="511"/>
      <point x="272" y="465" type="curve" smooth="yes"/>
      <point x="202" y="69" type="line" smooth="yes"/>
      <point x="193" y="20"/>
      <point x="182" y="10"/>
      <point x="127" y="10" type="curve" smooth="yes"/>
      <point x="124" y="10"/>
      <point x="124" y="0"/>
      <point x="127" y="0" type="curve" smooth="yes"/>
    </contour>
    <contour>
      <point x="235" y="267" type="move" name="center"/>
    </contour>
    <contour>
      <point x="210" y="0" type="move" name="bottom"/>
    </contour>
    <contour>
      <point x="302" y="534" type="move" name="top"/>
    </contour>
  </outline>
</glyph>
<glyph name="U" format="1">
  <advance width="528"/>
  <unicode hex="0055"/>
  <outline>
    <contour>
      <point x="438" y="200" type="line" smooth="yes"/>
      <point x="418" y="85"/>
      <point x="348" y="14"/>
      <point x="253" y="14" type="curve" smooth="yes"/>
      <point x="159" y="14"/>
      <point x="108" y="83"/>
      <point x="132" y="221" type="curve" smooth="yes"/>
      <point x="175" y="462" type="line" smooth="yes"/>
      <point x="184" y="511"/>
      <point x="196" y="524"/>
      <point x="255" y="524" type="curve" smooth="yes"/>
      <point x="259" y="524"/>
      <point x="259" y="534"/>
      <point x="255" y="534" type="curve" smooth="yes"/>
      <point x="233" y="534"/>
      <point x="202" y="532"/>
      <point x="166" y="532" type="curve" smooth="yes"/>
      <point x="133" y="532"/>
      <point x="103" y="534"/>
      <point x="78" y="534" type="curve" smooth="yes"/>
      <point x="74" y="534"/>
      <point x="74" y="524"/>
      <point x="78" y="524" type="curve" smooth="yes"/>
      <point x="135" y="524"/>
      <point x="144" y="515"/>
      <point x="135" y="466" type="curve" smooth="yes"/>
      <point x="87" y="193" type="line" smooth="yes"/>
      <point x="65" y="68"/>
      <point x="121" y="-11"/>
      <point x="235" y="-11" type="curve" smooth="yes"/>
      <point x="345" y="-11"/>
      <point x="431" y="64"/>
      <point x="455" y="199" type="curve" smooth="yes"/>
      <point x="498" y="444" type="line" smooth="yes"/>
      <point x="508" y="498"/>
      <point x="531" y="524"/>
      <point x="574" y="524" type="curve" smooth="yes"/>
      <point x="578" y="524"/>
      <point x="578" y="534"/>
      <point x="574" y="534" type="curve" smooth="yes"/>
      <point x="555" y="534"/>
      <point x="530" y="532"/>
      <point x="505" y="532" type="curve" smooth="yes"/>
      <point x="477" y="532"/>
      <point x="454" y="534"/>
      <point x="431" y="534" type="curve" smooth="yes"/>
      <point x="427" y="534"/>
      <point x="427" y="524"/>
      <point x="431" y="524" type="curve" smooth="yes"/>
      <point x="475" y="524"/>
      <point x="491" y="500"/>
      <point x="482" y="446" type="curve" smooth="yes"/>
    </contour>
    <contour>
      <point x="309" y="11" type="move" name="ogonek"/>
    </contour>
    <contour>
      <point x="344" y="534" type="move" name="top"/>
    </contour>
    <contour>
      <point x="573" y="534" type="move" name="topright"/>
    </contour>
    <contour>
      <point x="235" y="0" type="move" name="bottom"/>
    </contour>
  </outline>
</glyph>
<glyph name="V" format="1">
  <advance width="505"/>
  <unicode hex="0056"/>
  <outline>
    <contour>
      <point x="223" y="-3"/>
      <point x="236" y="-4"/>
      <point x="239" y="1" type="curve" smooth="yes"/>
      <point x="480" y="465" type="line" smooth="yes"/>
      <point x="505" y="514"/>
      <point x="531" y="524"/>
      <point x="560" y="524" type="curve" smooth="yes"/>
      <point x="564" y="524"/>
      <point x="564" y="534"/>
      <point x="560" y="534" type="curve" smooth="yes"/>
      <point x="535" y="534"/>
      <point x="522" y="532"/>
      <point x="495" y="532" type="curve" smooth="yes"/>
      <point x="462" y="532"/>
      <point x="445" y="534"/>
      <point x="423" y="534" type="curve" smooth="yes"/>
      <point x="420" y="534"/>
      <point x="420" y="524"/>
      <point x="423" y="524" type="curve" smooth="yes"/>
      <point x="477" y="524"/>
      <point x="485" y="509"/>
      <point x="465" y="470" type="curve" smooth="yes"/>
      <point x="232" y="21" type="line"/>
      <point x="258" y="48" type="line"/>
      <point x="166" y="472" type="line" smooth="yes"/>
      <point x="157" y="513"/>
      <point x="178" y="524"/>
      <point x="215" y="524" type="curve" smooth="yes"/>
      <point x="219" y="524"/>
      <point x="219" y="534"/>
      <point x="215" y="534" type="curve" smooth="yes"/>
      <point x="193" y="534"/>
      <point x="168" y="532"/>
      <point x="133" y="532" type="curve" smooth="yes"/>
      <point x="114" y="532"/>
      <point x="91" y="534"/>
      <point x="72" y="534" type="curve" smooth="yes"/>
      <point x="69" y="534"/>
      <point x="69" y="524"/>
      <point x="72" y="524" type="curve" smooth="yes"/>
      <point x="102" y="524"/>
      <point x="116" y="508"/>
      <point x="125" y="463" type="curve" smooth="yes"/>
      <point x="222" y="1" type="line" smooth="yes"/>
    </contour>
    <contour>
      <point x="318" y="534" type="move" name="top"/>
    </contour>
    <contour>
      <point x="224" y="0" type="move" name="bottom"/>
    </contour>
  </outline>
</glyph>
<glyph name="W" format="1">
  <advance width="702"/>
  <unicode hex="0057"/>
  <outline>
    <contour>
      <point x="419" y="-3"/>
      <point x="432" y="-3"/>
      <point x="434" y="1" type="curve" smooth="yes"/>
      <point x="676" y="465" type="line" smooth="yes"/>
      <point x="701" y="514"/>
      <point x="726" y="524"/>
      <point x="756" y="524" type="curve" smooth="yes"/>
      <point x="760" y="524"/>
      <point x="760" y="534"/>
      <point x="756" y="534" type="curve" smooth="yes"/>
      <point x="731" y="534"/>
      <point x="718" y="532"/>
      <point x="691" y="532" type="curve" smooth="yes"/>
      <point x="658" y="532"/>
      <point x="641" y="534"/>
      <point x="618" y="534" type="curve" smooth="yes"/>
      <point x="614" y="534"/>
      <point x="614" y="524"/>
      <point x="618" y="524" type="curve" smooth="yes"/>
      <point x="673" y="524"/>
      <point x="683" y="510"/>
      <point x="662" y="470" type="curve" smooth="yes"/>
      <point x="425" y="9" type="line"/>
      <point x="453" y="48" type="line"/>
      <point x="362" y="472" type="line" smooth="yes"/>
      <point x="352" y="519"/>
      <point x="354" y="524"/>
      <point x="385" y="524" type="curve" smooth="yes"/>
      <point x="390" y="524"/>
      <point x="390" y="534"/>
      <point x="385" y="534" type="curve" smooth="yes"/>
      <point x="371" y="534"/>
      <point x="353" y="532"/>
      <point x="329" y="532" type="curve" smooth="yes"/>
      <point x="309" y="532"/>
      <point x="286" y="534"/>
      <point x="267" y="534" type="curve" smooth="yes"/>
      <point x="263" y="534"/>
      <point x="263" y="524"/>
      <point x="267" y="524" type="curve" smooth="yes"/>
      <point x="298" y="524"/>
      <point x="310" y="508"/>
      <point x="320" y="463" type="curve" smooth="yes"/>
      <point x="418" y="1" type="line" smooth="yes"/>
    </contour>
    <contour>
      <point x="223" y="-3"/>
      <point x="236" y="-3"/>
      <point x="239" y="1" type="curve" smooth="yes"/>
      <point x="382" y="276" type="line"/>
      <point x="374" y="290" type="line"/>
      <point x="230" y="9" type="line"/>
      <point x="258" y="48" type="line"/>
      <point x="166" y="472" type="line" smooth="yes"/>
      <point x="157" y="513"/>
      <point x="178" y="524"/>
      <point x="215" y="524" type="curve" smooth="yes"/>
      <point x="219" y="524"/>
      <point x="219" y="534"/>
      <point x="215" y="534" type="curve" smooth="yes"/>
      <point x="193" y="534"/>
      <point x="168" y="532"/>
      <point x="133" y="532" type="curve" smooth="yes"/>
      <point x="114" y="532"/>
      <point x="91" y="534"/>
      <point x="72" y="534" type="curve" smooth="yes"/>
      <point x="68" y="534"/>
      <point x="68" y="524"/>
      <point x="72" y="524" type="curve" smooth="yes"/>
      <point x="102" y="524"/>
      <point x="116" y="508"/>
      <point x="125" y="463" type="curve" smooth="yes"/>
      <point x="222" y="1" type="line" smooth="yes"/>
    </contour>
    <contour>
      <point x="485" y="465" type="line" smooth="yes"/>
      <point x="510" y="514"/>
      <point x="536" y="524"/>
      <point x="565" y="524" type="curve" smooth="yes"/>
      <point x="569" y="524"/>
      <point x="569" y="534"/>
      <point x="565" y="534" type="curve" smooth="yes"/>
      <point x="540" y="534"/>
      <point x="527" y="532"/>
      <point x="500" y="532" type="curve" smooth="yes"/>
      <point x="479" y="532"/>
      <point x="468" y="534"/>
      <point x="453" y="534" type="curve" smooth="yes"/>
      <point x="449" y="534"/>
      <point x="449" y="524"/>
      <point x="453" y="524" type="curve" smooth="yes"/>
      <point x="488" y="524"/>
      <point x="492" y="510"/>
      <point x="471" y="470" type="curve" smooth="yes"/>
      <point x="379" y="290" type="line"/>
      <point x="387" y="276" type="line"/>
    </contour>
    <contour>
      <point x="420" y="534" type="move" name="top"/>
    </contour>
    <contour>
      <point x="322" y="0" type="move" name="bottom"/>
    </contour>
  </outline>
</glyph>
<glyph name="X" format="1">
  <advance width="495"/>
  <unicode hex="0058"/>
  <outline>
    <contour>
      <point x="312" y="0"/>
      <point x="342" y="2"/>
      <point x="380" y="2" type="curve" smooth="yes"/>
      <point x="406" y="2"/>
      <point x="430" y="0"/>
      <point x="450" y="0" type="curve" smooth="yes"/>
      <point x="454" y="0"/>
      <point x="454" y="10"/>
      <point x="450" y="10" type="curve" smooth="yes"/>
      <point x="408" y="10"/>
      <point x="386" y="26"/>
      <point x="369" y="71" type="curve" smooth="yes"/>
      <point x="207" y="490" type="line" smooth="yes"/>
      <point x="197" y="515"/>
      <point x="207" y="524"/>
      <point x="247" y="524" type="curve" smooth="yes"/>
      <point x="251" y="524"/>
      <point x="251" y="534"/>
      <point x="247" y="534" type="curve" smooth="yes"/>
      <point x="222" y="534"/>
      <point x="189" y="532"/>
      <point x="148" y="532" type="curve" smooth="yes"/>
      <point x="131" y="532"/>
      <point x="112" y="534"/>
      <point x="95" y="534" type="curve" smooth="yes"/>
      <point x="91" y="534"/>
      <point x="91" y="524"/>
      <point x="95" y="524" type="curve" smooth="yes"/>
      <point x="130" y="524"/>
      <point x="150" y="508"/>
      <point x="167" y="463" type="curve" smooth="yes"/>
      <point x="329" y="44" type="line" smooth="yes"/>
      <point x="339" y="19"/>
      <point x="328" y="10"/>
      <point x="288" y="10" type="curve" smooth="yes"/>
      <point x="284" y="10"/>
      <point x="283" y="0"/>
      <point x="288" y="0" type="curve" smooth="yes"/>
    </contour>
    <contour>
      <point x="15" y="0"/>
      <point x="26" y="2"/>
      <point x="50" y="2" type="curve" smooth="yes"/>
      <point x="87" y="2"/>
      <point x="106" y="0"/>
      <point x="131" y="0" type="curve" smooth="yes"/>
      <point x="135" y="0"/>
      <point x="135" y="10"/>
      <point x="131" y="10" type="curve" smooth="yes"/>
      <point x="85" y="10"/>
      <point x="82" y="34"/>
      <point x="117" y="79" type="curve" smooth="yes"/>
      <point x="256" y="256" type="line"/>
      <point x="247" y="264" type="line"/>
      <point x="100" y="79" type="line" smooth="yes"/>
      <point x="64" y="34"/>
      <point x="26" y="10"/>
      <point x="-7" y="10" type="curve" smooth="yes"/>
      <point x="-11" y="10"/>
      <point x="-11" y="0"/>
      <point x="-7" y="0" type="curve" smooth="yes"/>
    </contour>
    <contour>
      <point x="415" y="447" type="line" smooth="yes"/>
      <point x="454" y="495"/>
      <point x="492" y="524"/>
      <point x="526" y="524" type="curve" smooth="yes"/>
      <point x="531" y="524"/>
      <point x="531" y="534"/>
      <point x="526" y="534" type="curve" smooth="yes"/>
      <point x="505" y="534"/>
      <point x="493" y="532"/>
      <point x="470" y="532" type="curve" smooth="yes"/>
      <point x="432" y="532"/>
      <point x="414" y="534"/>
      <point x="389" y="534" type="curve" smooth="yes"/>
      <point x="385" y="534"/>
      <point x="385" y="524"/>
      <point x="389" y="524" type="curve" smooth="yes"/>
      <point x="434" y="524"/>
      <point x="437" y="498"/>
      <point x="398" y="448" type="curve" smooth="yes"/>
      <point x="266" y="278" type="line"/>
      <point x="274" y="270" type="line"/>
    </contour>
    <contour>
      <point x="313" y="534" type="move" name="top"/>
    </contour>
    <contour>
      <point x="219" y="0" type="move" name="bottom"/>
    </contour>
  </outline>
</glyph>
<glyph name="Y" format="1">
  <advance width="451"/>
  <unicode hex="0059"/>
  <outline>
    <contour>
      <point x="401" y="447" type="line" smooth="yes"/>
      <point x="438" y="497"/>
      <point x="476" y="524"/>
      <point x="512" y="524" type="curve" smooth="yes"/>
      <point x="516" y="524"/>
      <point x="516" y="534"/>
      <point x="512" y="534" type="curve" smooth="yes"/>
      <point x="491" y="534"/>
      <point x="479" y="532"/>
      <point x="455" y="532" type="curve" smooth="yes"/>
      <point x="418" y="532"/>
      <point x="400" y="534"/>
      <point x="374" y="534" type="curve" smooth="yes"/>
      <point x="370" y="534"/>
      <point x="370" y="524"/>
      <point x="374" y="524" type="curve" smooth="yes"/>
      <point x="417" y="524"/>
      <point x="420" y="498"/>
      <point x="384" y="448" type="curve" smooth="yes"/>
      <point x="233" y="238" type="line"/>
      <point x="241" y="231" type="line"/>
    </contour>
    <contour>
      <point x="138" y="0"/>
      <point x="167" y="2"/>
      <point x="201" y="2" type="curve" smooth="yes"/>
      <point x="234" y="2"/>
      <point x="262" y="0"/>
      <point x="285" y="0" type="curve" smooth="yes"/>
      <point x="289" y="0"/>
      <point x="289" y="10"/>
      <point x="285" y="10" type="curve" smooth="yes"/>
      <point x="229" y="10"/>
      <point x="222" y="20"/>
      <point x="231" y="69" type="curve" smooth="yes"/>
      <point x="267" y="273" type="line"/>
      <point x="225" y="265" type="line"/>
      <point x="191" y="69" type="line" smooth="yes"/>
      <point x="183" y="20"/>
      <point x="170" y="10"/>
      <point x="115" y="10" type="curve" smooth="yes"/>
      <point x="111" y="10"/>
      <point x="111" y="0"/>
      <point x="115" y="0" type="curve" smooth="yes"/>
    </contour>
    <contour>
      <point x="267" y="271" type="line"/>
      <point x="176" y="490" type="line" smooth="yes"/>
      <point x="166" y="515"/>
      <point x="174" y="524"/>
      <point x="214" y="524" type="curve" smooth="yes"/>
      <point x="218" y="524"/>
      <point x="220" y="534"/>
      <point x="216" y="534" type="curve" smooth="yes"/>
      <point x="191" y="534"/>
      <point x="156" y="532"/>
      <point x="118" y="532" type="curve" smooth="yes"/>
      <point x="101" y="532"/>
      <point x="81" y="534"/>
      <point x="65" y="534" type="curve" smooth="yes"/>
      <point x="61" y="534"/>
      <point x="61" y="524"/>
      <point x="65" y="524" type="curve" smooth="yes"/>
      <point x="100" y="524"/>
      <point x="117" y="507"/>
      <point x="136" y="463" type="curve" smooth="yes"/>
      <point x="234" y="232" type="line"/>
    </contour>
    <contour>
      <point x="293" y="534" type="move" name="top"/>
    </contour>
    <contour>
      <point x="207" y="0" type="move" name="bottom"/>
    </contour>
    <contour>
      <point x="85" y="534" type="move" name="topleft"/>
    </contour>
  </outline>
</glyph>
<glyph name="bracketleft" format="1">
  <advance width="211"/>
  <unicode hex="005B"/>
  <outline>
    <contour>
      <point x="68" y="-100"/>
      <point x="114" y="-100"/>
      <point x="137" y="-100" type="curve" smooth="yes"/>
      <point x="142" y="-100"/>
      <point x="142" y="-90"/>
      <point x="137" y="-90" type="curve" smooth="yes"/>
      <point x="75" y="-90"/>
      <point x="66" y="-78"/>
      <point x="75" y="-29" type="curve" smooth="yes"/>
      <point x="177" y="549" type="line" smooth="yes"/>
      <point x="185" y="598"/>
      <point x="200" y="610"/>
      <point x="262" y="610" type="curve" smooth="yes"/>
      <point x="266" y="610"/>
      <point x="266" y="620"/>
      <point x="262" y="620" type="curve" smooth="yes"/>
      <point x="239" y="620"/>
      <point x="195" y="620"/>
      <point x="159" y="620" type="curve" smooth="yes"/>
      <point x="153" y="620"/>
      <point x="152" y="619"/>
      <point x="151" y="611" type="curve" smooth="yes"/>
      <point x="27" y="-91" type="line" smooth="yes"/>
      <point x="25" y="-99"/>
      <point x="26" y="-100"/>
      <point x="32" y="-100" type="curve" smooth="yes"/>
    </contour>
    <contour>
      <point x="102" y="10" type="move" name="ogonek"/>
    </contour>
    <contour>
      <point x="207" y="534" type="move" name="top"/>
    </contour>
  </outline>
</glyph>
<glyph name="backslash" format="1">
  <advance width="261"/>
  <unicode hex="005C"/>
  <outline>
    <contour>
      <point x="161" y="-147"/>
      <point x="190" y="-143"/>
      <point x="189" y="-136" type="curve" smooth="yes"/>
      <point x="127" y="622" type="line" smooth="yes"/>
      <point x="126" y="630"/>
      <point x="97" y="626"/>
      <point x="98" y="618" type="curve" smooth="yes"/>
      <point x="160" y="-139" type="line" smooth="yes"/>
    </contour>
  </outline>
</glyph>
<glyph name="bracketright" format="1">
  <advance width="211"/>
  <unicode hex="005D"/>
  <outline>
    <component base="bracketleft" xOffset="245" yOffset="520" xScale="-1" yScale="-1"/>
    <contour>
      <point x="-65" y="10" type="move" name="ogonek"/>
    </contour>
    <contour>
      <point x="169" y="534" type="move" name="top"/>
    </contour>
  </outline>
</glyph>
<glyph name="underscore" format="1">
  <advance width="310"/>
  <unicode hex="005F"/>
  <outline>
    <contour>
      <point x="266" y="-64" type="line" smooth="yes"/>
      <point x="271" y="-64"/>
      <point x="271" y="-32"/>
      <point x="266" y="-32" type="curve" smooth="yes"/>
      <point x="-7" y="-32" type="line" smooth="yes"/>
      <point x="-11" y="-32"/>
      <point x="-11" y="-64"/>
      <point x="-6" y="-64" type="curve" smooth="yes"/>
    </contour>
  </outline>
</glyph>
<glyph name="b" format="1">
  <advance width="368"/>
  <unicode hex="0062"/>
  <outline>
    <contour>
      <point x="201" y="-11"/>
      <point x="319" y="67"/>
      <point x="349" y="215" type="curve" smooth="yes"/>
      <point x="364" y="288"/>
      <point x="336" y="341"/>
      <point x="283" y="341" type="curve" smooth="yes"/>
      <point x="193" y="341"/>
      <point x="101" y="230"/>
      <point x="80" y="99" type="curve"/>
      <point x="85" y="82" type="line"/>
      <point x="110" y="216"/>
      <point x="178" y="307"/>
      <point x="251" y="307" type="curve" smooth="yes"/>
      <point x="304" y="307"/>
      <point x="314" y="253"/>
      <point x="301" y="188" type="curve" smooth="yes"/>
      <point x="280" y="75"/>
      <point x="216" y="10"/>
      <point x="160" y="10" type="curve" smooth="yes"/>
      <point x="109" y="10"/>
      <point x="78" y="40"/>
      <point x="85" y="82" type="curve" smooth="yes"/>
      <point x="182" y="613" type="line"/>
      <point x="183" y="616"/>
      <point x="177" y="622"/>
      <point x="173" y="620" type="curve" smooth="yes"/>
      <point x="68" y="569" type="line" smooth="yes"/>
      <point x="63" y="567"/>
      <point x="67" y="557"/>
      <point x="72" y="559" type="curve" smooth="yes"/>
      <point x="125" y="585"/>
      <point x="140" y="573"/>
      <point x="133" y="536" type="curve" smooth="yes"/>
      <point x="44" y="64" type="line" smooth="yes"/>
      <point x="35" y="17"/>
      <point x="69" y="-11"/>
      <point x="124" y="-11" type="curve" smooth="yes"/>
    </contour>
    <contour>
      <point x="213" y="330" type="move" name="top"/>
    </contour>
    <contour>
      <point x="155" y="0" type="move" name="bottom"/>
    </contour>
  </outline>
</glyph>
<glyph name="c" format="1">
  <advance width="295"/>
  <unicode hex="0063"/>
  <outline>
    <contour>
      <point x="175" y="-11"/>
      <point x="219" y="8"/>
      <point x="267" y="50" type="curve" smooth="yes"/>
      <point x="270" y="53"/>
      <point x="263" y="60"/>
      <point x="260" y="57" type="curve" smooth="yes"/>
      <point x="235" y="37"/>
      <point x="207" y="15"/>
      <point x="165" y="15" type="curve" smooth="yes"/>
      <point x="82" y="15"/>
      <point x="58" y="104"/>
      <point x="76" y="198" type="curve" smooth="yes"/>
      <point x="89" y="266"/>
      <point x="122" y="324"/>
      <point x="184" y="324" type="curve" smooth="yes"/>
      <point x="215" y="324"/>
      <point x="228" y="304"/>
      <point x="232" y="292" type="curve" smooth="yes"/>
      <point x="238" y="276"/>
      <point x="247" y="268"/>
      <point x="260" y="268" type="curve" smooth="yes"/>
      <point x="275" y="268"/>
      <point x="283" y="280"/>
      <point x="284" y="292" type="curve" smooth="yes"/>
      <point x="287" y="320"/>
      <point x="253" y="341"/>
      <point x="212" y="341" type="curve" smooth="yes"/>
      <point x="139" y="341"/>
      <point x="54" y="281"/>
      <point x="31" y="173" type="curve" smooth="yes"/>
      <point x="13" y="90"/>
      <point x="37" y="-11"/>
      <point x="133" y="-11" type="curve" smooth="yes"/>
    </contour>
    <contour>
      <point x="192" y="330" type="move" name="top"/>
    </contour>
    <contour>
      <point x="129" y="0" type="move" name="bottom"/>
    </contour>
  </outline>
</glyph>
<glyph name="d" format="1">
  <advance width="379"/>
  <unicode hex="0064"/>
  <outline>
    <contour>
      <point x="163" y="-11"/>
      <point x="232" y="82"/>
      <point x="285" y="210" type="curve"/>
      <point x="319" y="284" type="line"/>
      <point x="315" y="325"/>
      <point x="283" y="341"/>
      <point x="252" y="341" type="curve" smooth="yes"/>
      <point x="152" y="341"/>
      <point x="46" y="234"/>
      <point x="24" y="108" type="curve" smooth="yes"/>
      <point x="9" y="20"/>
      <point x="47" y="-11"/>
      <point x="89" y="-11" type="curve" smooth="yes"/>
    </contour>
    <contour>
      <point x="74" y="26"/>
      <point x="51" y="62"/>
      <point x="64" y="139" type="curve" smooth="yes"/>
      <point x="84" y="252"/>
      <point x="150" y="312"/>
      <point x="226" y="314" type="curve" smooth="yes"/>
      <point x="267" y="315"/>
      <point x="287" y="288"/>
      <point x="279" y="242" type="curve" smooth="yes"/>
      <point x="266" y="170"/>
      <point x="191" y="26"/>
      <point x="113" y="26" type="curve" smooth="yes"/>
    </contour>
    <contour>
      <point x="298" y="-8"/>
      <point x="327" y="16"/>
      <point x="365" y="59" type="curve" smooth="yes"/>
      <point x="369" y="63"/>
      <point x="362" y="70"/>
      <point x="358" y="66" type="curve" smooth="yes"/>
      <point x="333" y="40"/>
      <point x="312" y="24"/>
      <point x="299" y="24" type="curve" smooth="yes"/>
      <point x="284" y="24"/>
      <point x="277" y="41"/>
      <point x="284" y="76" type="curve" smooth="yes"/>
      <point x="384" y="613" type="line" smooth="yes"/>
      <point x="385" y="616"/>
      <point x="379" y="622"/>
      <point x="375" y="620" type="curve" smooth="yes"/>
      <point x="270" y="569" type="line" smooth="yes"/>
      <point x="265" y="567"/>
      <point x="269" y="557"/>
      <point x="274" y="559" type="curve" smooth="yes"/>
      <point x="327" y="585"/>
      <point x="342" y="573"/>
      <point x="335" y="536" type="curve" smooth="yes"/>
      <point x="248" y="76" type="line" smooth="yes"/>
      <point x="236" y="14"/>
      <point x="242" y="-8"/>
      <point x="269" y="-8" type="curve" smooth="yes"/>
    </contour>
    <contour>
      <point x="181" y="0" type="move" name="bottom"/>
    </contour>
    <contour>
      <point x="219" y="330" type="move" name="top"/>
    </contour>
    <contour>
      <point x="358" y="330" type="move" name="topright"/>
    </contour>
    <contour>
      <point x="160" y="165" type="move" name="center"/>
    </contour>
  </outline>
</glyph>
<glyph name="e" format="1">
  <advance width="290"/>
  <unicode hex="0065"/>
  <outline>
    <contour>
      <point x="171" y="-10"/>
      <point x="210" y="3"/>
      <point x="254" y="38" type="curve"/>
      <point x="257" y="41"/>
      <point x="251" y="47"/>
      <point x="248" y="45" type="curve"/>
      <point x="219" y="24"/>
      <point x="188" y="17"/>
      <point x="160" y="17" type="curve" smooth="yes"/>
      <point x="86" y="17"/>
      <point x="54" y="89"/>
      <point x="73" y="186" type="curve" smooth="yes"/>
      <point x="85" y="257"/>
      <point x="121" y="318"/>
      <point x="184" y="318" type="curve" smooth="yes"/>
      <point x="208" y="318"/>
      <point x="235" y="309"/>
      <point x="226" y="277" type="curve" smooth="yes"/>
      <point x="214" y="233"/>
      <point x="148" y="205"/>
      <point x="59" y="193" type="curve"/>
      <point x="57" y="182" type="line"/>
      <point x="165" y="195"/>
      <point x="263" y="242"/>
      <point x="275" y="295" type="curve" smooth="yes"/>
      <point x="281" y="323"/>
      <point x="261" y="341"/>
      <point x="221" y="341" type="curve" smooth="yes"/>
      <point x="126" y="341"/>
      <point x="43" y="243"/>
      <point x="28" y="158" type="curve" smooth="yes"/>
      <point x="11" y="68"/>
      <point x="43" y="-10"/>
      <point x="132" y="-10" type="curve" smooth="yes"/>
    </contour>
    <contour>
      <point x="222" y="10" type="move" name="ogonek"/>
    </contour>
    <contour>
      <point x="161" y="-10" type="move" name="bottom"/>
    </contour>
    <contour>
      <point x="193" y="330" type="move" name="top"/>
    </contour>
  </outline>
</glyph>
<glyph name="f" format="1">
  <advance width="222"/>
  <unicode hex="0066"/>
  <outline>
    <contour>
      <point x="33" y="-235"/>
      <point x="62" y="-181"/>
      <point x="86" y="-18" type="curve" smooth="yes"/>
      <point x="143" y="375" type="line" smooth="yes"/>
      <point x="165" y="530"/>
      <point x="199" y="609"/>
      <point x="245" y="609" type="curve" smooth="yes"/>
      <point x="282" y="609"/>
      <point x="274" y="555"/>
      <point x="303" y="555" type="curve" smooth="yes"/>
      <point x="315" y="555"/>
      <point x="326" y="561"/>
      <point x="329" y="577" type="curve" smooth="yes"/>
      <point x="332" y="599"/>
      <point x="310" y="621"/>
      <point x="272" y="621" type="curve" smooth="yes"/>
      <point x="174" y="621"/>
      <point x="137" y="564"/>
      <point x="103" y="357" type="curve" smooth="yes"/>
      <point x="98" y="328"/>
      <point x="83" y="319"/>
      <point x="41" y="319" type="curve" smooth="yes"/>
      <point x="38" y="319"/>
      <point x="36" y="309"/>
      <point x="40" y="309" type="curve" smooth="yes"/>
      <point x="90" y="309"/>
      <point x="95" y="304"/>
      <point x="89" y="262" type="curve" smooth="yes"/>
      <point x="45" y="-40" type="line" smooth="yes"/>
      <point x="23" y="-194"/>
      <point x="13" y="-220"/>
      <point x="-8" y="-220" type="curve" smooth="yes"/>
      <point x="-35" y="-220"/>
      <point x="-22" y="-177"/>
      <point x="-55" y="-177" type="curve" smooth="yes"/>
      <point x="-72" y="-177"/>
      <point x="-83" y="-188"/>
      <point x="-84" y="-201" type="curve" smooth="yes"/>
      <point x="-86" y="-218"/>
      <point x="-73" y="-235"/>
      <point x="-35" y="-235" type="curve" smooth="yes"/>
    </contour>
    <contour>
      <point x="214" y="291"/>
      <point x="229" y="310"/>
      <point x="231" y="320" type="curve" smooth="yes"/>
      <point x="232" y="324"/>
      <point x="230" y="327"/>
      <point x="225" y="327" type="curve" smooth="yes"/>
      <point x="214" y="327"/>
      <point x="149" y="321"/>
      <point x="113" y="321" type="curve"/>
      <point x="111" y="302" type="line"/>
      <point x="147" y="302"/>
      <point x="178" y="297"/>
      <point x="202" y="293" type="curve" smooth="yes"/>
    </contour>
    <contour>
      <point x="140" y="330" type="move" name="top"/>
    </contour>
    <contour>
      <point x="82" y="0" type="move" name="bottom"/>
    </contour>
  </outline>
</glyph>
<glyph name="l" format="1">
  <advance width="201"/>
  <unicode hex="006C"/>
  <outline>
    <contour>
      <point x="106" y="-8"/>
      <point x="135" y="16"/>
      <point x="173" y="59" type="curve" smooth="yes"/>
      <point x="177" y="63"/>
      <point x="170" y="70"/>
      <point x="166" y="66" type="curve" smooth="yes"/>
      <point x="141" y="40"/>
      <point x="120" y="24"/>
      <point x="107" y="24" type="curve" smooth="yes"/>
      <point x="92" y="24"/>
      <point x="85" y="41"/>
      <point x="92" y="76" type="curve" smooth="yes"/>
      <point x="192" y="613" type="line" smooth="yes"/>
      <point x="193" y="616"/>
      <point x="187" y="622"/>
      <point x="183" y="620" type="curve" smooth="yes"/>
      <point x="78" y="569" type="line" smooth="yes"/>
      <point x="73" y="567"/>
      <point x="77" y="557"/>
      <point x="82" y="559" type="curve" smooth="yes"/>
      <point x="135" y="585"/>
      <point x="148" y="573"/>
      <point x="141" y="536" type="curve" smooth="yes"/>
      <point x="55" y="76" type="line" smooth="yes"/>
      <point x="43" y="14"/>
      <point x="50" y="-8"/>
      <point x="77" y="-8" type="curve" smooth="yes"/>
    </contour>
    <contour>
      <point x="79" y="0" type="move" name="bottom"/>
    </contour>
    <contour>
      <point x="142" y="566" type="move" name="top"/>
    </contour>
    <contour>
      <point x="179" y="330" type="move" name="topright"/>
    </contour>
    <contour>
      <point x="101" y="165" type="move" name="center"/>
    </contour>
  </outline>
</glyph>
<glyph name="m" format="1">
  <advance width="576"/>
  <unicode hex="006D"/>
  <outline>
    <contour>
      <point x="496" y="-8"/>
      <point x="525" y="16"/>
      <point x="563" y="59" type="curve" smooth="yes"/>
      <point x="567" y="63"/>
      <point x="560" y="70"/>
      <point x="556" y="66" type="curve" smooth="yes"/>
      <point x="531" y="40"/>
      <point x="510" y="24"/>
      <point x="496" y="24" type="curve" smooth="yes"/>
      <point x="482" y="24"/>
      <point x="476" y="41"/>
      <point x="482" y="76" type="curve" smooth="yes"/>
      <point x="510" y="228" type="line" smooth="yes"/>
      <point x="523" y="309"/>
      <point x="510" y="341"/>
      <point x="464" y="341" type="curve" smooth="yes"/>
      <point x="382" y="341"/>
      <point x="305" y="204"/>
      <point x="271" y="6" type="curve"/>
      <point x="280" y="5" type="line"/>
      <point x="315" y="200"/>
      <point x="386" y="312"/>
      <point x="440" y="312" type="curve" smooth="yes"/>
      <point x="474" y="312"/>
      <point x="482" y="280"/>
      <point x="471" y="212" type="curve" smooth="yes"/>
      <point x="446" y="76" type="line" smooth="yes"/>
      <point x="435" y="14"/>
      <point x="440" y="-8"/>
      <point x="467" y="-8" type="curve" smooth="yes"/>
    </contour>
    <contour>
      <point x="83" y="-7"/>
      <point x="91" y="-2"/>
      <point x="92" y="5" type="curve" smooth="yes"/>
      <point x="137" y="254" type="line" smooth="yes"/>
      <point x="148" y="316"/>
      <point x="143" y="338"/>
      <point x="116" y="338" type="curve" smooth="yes"/>
      <point x="87" y="338"/>
      <point x="56" y="316"/>
      <point x="18" y="273" type="curve" smooth="yes"/>
      <point x="14" y="269"/>
      <point x="21" y="262"/>
      <point x="25" y="266" type="curve" smooth="yes"/>
      <point x="50" y="292"/>
      <point x="73" y="306"/>
      <point x="86" y="306" type="curve" smooth="yes"/>
      <point x="101" y="306"/>
      <point x="107" y="289"/>
      <point x="101" y="254" type="curve" smooth="yes"/>
      <point x="65" y="58" type="line" smooth="yes"/>
      <point x="60" y="33"/>
      <point x="53" y="2"/>
      <point x="53" y="-2" type="curve" smooth="yes"/>
      <point x="53" y="-5"/>
      <point x="55" y="-7"/>
      <point x="70" y="-7" type="curve" smooth="yes"/>
    </contour>
    <contour>
      <point x="271" y="-7"/>
      <point x="279" y="-2"/>
      <point x="280" y="5" type="curve" smooth="yes"/>
      <point x="320" y="228" type="line" smooth="yes"/>
      <point x="335" y="309"/>
      <point x="320" y="341"/>
      <point x="276" y="341" type="curve" smooth="yes"/>
      <point x="194" y="341"/>
      <point x="117" y="204"/>
      <point x="83" y="6" type="curve"/>
      <point x="92" y="5" type="line"/>
      <point x="127" y="200"/>
      <point x="198" y="312"/>
      <point x="252" y="312" type="curve" smooth="yes"/>
      <point x="283" y="312"/>
      <point x="291" y="280"/>
      <point x="281" y="212" type="curve" smooth="yes"/>
      <point x="254" y="63" type="line" smooth="yes"/>
      <point x="250" y="38"/>
      <point x="241" y="2"/>
      <point x="241" y="-2" type="curve" smooth="yes"/>
      <point x="241" y="-5"/>
      <point x="243" y="-7"/>
      <point x="258" y="-7" type="curve" smooth="yes"/>
    </contour>
    <contour>
      <point x="317" y="330" type="move" name="top"/>
    </contour>
    <contour>
      <point x="264" y="0" type="move" name="bottom"/>
    </contour>
  </outline>
</glyph>
<glyph name="n" format="1">
  <advance width="396"/>
  <unicode hex="006E"/>
  <outline>
    <contour>
      <point x="316" y="-8"/>
      <point x="345" y="16"/>
      <point x="383" y="59" type="curve" smooth="yes"/>
      <point x="387" y="63"/>
      <point x="380" y="70"/>
      <point x="376" y="66" type="curve" smooth="yes"/>
      <point x="351" y="40"/>
      <point x="330" y="24"/>
      <point x="317" y="24" type="curve" smooth="yes"/>
      <point x="302" y="24"/>
      <point x="296" y="41"/>
      <point x="302" y="76" type="curve" smooth="yes"/>
      <point x="330" y="228" type="line" smooth="yes"/>
      <point x="345" y="309"/>
      <point x="330" y="341"/>
      <point x="281" y="341" type="curve" smooth="yes"/>
      <point x="197" y="341"/>
      <point x="119" y="204"/>
      <point x="84" y="6" type="curve"/>
      <point x="93" y="5" type="line"/>
      <point x="129" y="200"/>
      <point x="201" y="312"/>
      <point x="257" y="312" type="curve" smooth="yes"/>
      <point x="294" y="312"/>
      <point x="304" y="280"/>
      <point x="291" y="212" type="curve" smooth="yes"/>
      <point x="266" y="76" type="line" smooth="yes"/>
      <point x="255" y="14"/>
      <point x="260" y="-8"/>
      <point x="287" y="-8" type="curve" smooth="yes"/>
    </contour>
    <contour>
      <point x="84" y="-7"/>
      <point x="92" y="-2"/>
      <point x="93" y="5" type="curve" smooth="yes"/>
      <point x="137" y="254" type="line" smooth="yes"/>
      <point x="148" y="316"/>
      <point x="143" y="338"/>
      <point x="116" y="338" type="curve" smooth="yes"/>
      <point x="87" y="338"/>
      <point x="56" y="316"/>
      <point x="18" y="273" type="curve" smooth="yes"/>
      <point x="14" y="269"/>
      <point x="21" y="262"/>
      <point x="25" y="266" type="curve" smooth="yes"/>
      <point x="50" y="292"/>
      <point x="73" y="306"/>
      <point x="86" y="306" type="curve" smooth="yes"/>
      <point x="101" y="306"/>
      <point x="107" y="289"/>
      <point x="101" y="254" type="curve" smooth="yes"/>
      <point x="66" y="63" type="line" smooth="yes"/>
      <point x="61" y="33"/>
      <point x="53" y="2"/>
      <point x="53" y="-2" type="curve" smooth="yes"/>
      <point x="53" y="-5"/>
      <point x="56" y="-7"/>
      <point x="71" y="-7" type="curve" smooth="yes"/>
    </contour>
    <contour>
      <point x="222" y="330" type="move" name="top"/>
    </contour>
    <contour>
      <point x="189" y="0" type="move" name="bottom"/>
    </contour>
  </outline>
</glyph>
<glyph name="o" format="1">
  <advance width="339"/>
  <unicode hex="006F"/>
  <outline>
    <contour>
      <point x="208" y="-12"/>
      <point x="290" y="58"/>
      <point x="311" y="165" type="curve" smooth="yes"/>
      <point x="330" y="259"/>
      <point x="294" y="341"/>
      <point x="207" y="341" type="curve" smooth="yes"/>
      <point x="123" y="341"/>
      <point x="48" y="264"/>
      <point x="29" y="165" type="curve" smooth="yes"/>
      <point x="10" y="65"/>
      <point x="51" y="-12"/>
      <point x="131" y="-12" type="curve" smooth="yes"/>
    </contour>
    <contour>
      <point x="82" y="9"/>
      <point x="50" y="118"/>
      <point x="68" y="202" type="curve" smooth="yes"/>
      <point x="83" y="274"/>
      <point x="131" y="321"/>
      <point x="182" y="321" type="curve" smooth="yes"/>
      <point x="262" y="321"/>
      <point x="287" y="207"/>
      <point x="272" y="127" type="curve" smooth="yes"/>
      <point x="258" y="52"/>
      <point x="210" y="9"/>
      <point x="161" y="9" type="curve" smooth="yes"/>
    </contour>
    <contour>
      <point x="147" y="0" type="move" name="bottom"/>
    </contour>
    <contour>
      <point x="211" y="10" type="move" name="ogonek"/>
    </contour>
    <contour>
      <point x="191" y="330" type="move" name="top"/>
    </contour>
    <contour>
      <point x="258" y="330" type="move" name="topright"/>
    </contour>
    <contour>
      <point x="169" y="165" type="move" name="center"/>
    </contour>
  </outline>
</glyph>
<glyph name="p" format="1">
  <advance width="348"/>
  <unicode hex="0070"/>
  <outline>
    <contour>
      <point x="97" y="-214" type="line" smooth="yes"/>
      <point x="102" y="-213"/>
      <point x="99" y="-203"/>
      <point x="95" y="-204" type="curve" smooth="yes"/>
      <point x="46" y="-211"/>
      <point x="36" y="-199"/>
      <point x="44" y="-152" type="curve" smooth="yes"/>
      <point x="140" y="390" type="line" smooth="yes"/>
      <point x="141" y="394"/>
      <point x="132" y="396"/>
      <point x="131" y="392" type="curve" smooth="yes"/>
      <point x="125" y="357"/>
      <point x="93" y="336"/>
      <point x="92" y="330" type="curve" smooth="yes"/>
      <point x="5" y="-158" type="line" smooth="yes"/>
      <point x="-4" y="-211"/>
      <point x="-10" y="-219"/>
      <point x="-49" y="-225" type="curve" smooth="yes"/>
      <point x="-53" y="-226"/>
      <point x="-51" y="-236"/>
      <point x="-47" y="-235" type="curve" smooth="yes"/>
    </contour>
    <contour>
      <point x="214" y="-1"/>
      <point x="307" y="99"/>
      <point x="323" y="216" type="curve" smooth="yes"/>
      <point x="334" y="294"/>
      <point x="306" y="336"/>
      <point x="244" y="336" type="curve" smooth="yes"/>
      <point x="175" y="336"/>
      <point x="101" y="286"/>
      <point x="34" y="226" type="curve" smooth="yes"/>
      <point x="31" y="224"/>
      <point x="38" y="216"/>
      <point x="41" y="218" type="curve" smooth="yes"/>
      <point x="111" y="274"/>
      <point x="160" y="308"/>
      <point x="214" y="308" type="curve" smooth="yes"/>
      <point x="285" y="308"/>
      <point x="290" y="248"/>
      <point x="282" y="188" type="curve" smooth="yes"/>
      <point x="269" y="93"/>
      <point x="226" y="23"/>
      <point x="146" y="23" type="curve" smooth="yes"/>
      <point x="105" y="23"/>
      <point x="79" y="35"/>
      <point x="57" y="50" type="curve"/>
      <point x="49" y="7" type="line"/>
      <point x="65" y="3"/>
      <point x="78" y="-1"/>
      <point x="124" y="-1" type="curve" smooth="yes"/>
    </contour>
    <contour>
      <point x="203" y="330" type="move" name="top"/>
    </contour>
    <contour>
      <point x="145" y="0" type="move" name="bottom"/>
    </contour>
  </outline>
</glyph>
<glyph name="r" format="1">
  <advance width="287"/>
  <unicode hex="0072"/>
  <outline>
    <contour>
      <point x="110" y="109"/>
      <point x="181" y="302"/>
      <point x="223" y="302" type="curve" smooth="yes"/>
      <point x="240" y="302"/>
      <point x="238" y="273"/>
      <point x="263" y="273" type="curve" smooth="yes"/>
      <point x="275" y="273"/>
      <point x="285" y="279"/>
      <point x="288" y="293" type="curve" smooth="yes"/>
      <point x="293" y="317"/>
      <point x="267" y="338"/>
      <point x="245" y="338" type="curve" smooth="yes"/>
      <point x="183" y="338"/>
      <point x="104" y="128"/>
      <point x="81" y="6" type="curve"/>
      <point x="90" y="5" type="line"/>
    </contour>
    <contour>
      <point x="81" y="-7"/>
      <point x="89" y="-2"/>
      <point x="90" y="5" type="curve" smooth="yes"/>
      <point x="127" y="213" type="line" smooth="yes"/>
      <point x="145" y="314"/>
      <point x="133" y="338"/>
      <point x="104" y="338" type="curve" smooth="yes"/>
      <point x="76" y="338"/>
      <point x="47" y="318"/>
      <point x="15" y="282" type="curve" smooth="yes"/>
      <point x="13" y="279"/>
      <point x="20" y="273"/>
      <point x="22" y="275" type="curve" smooth="yes"/>
      <point x="37" y="289"/>
      <point x="57" y="306"/>
      <point x="74" y="306" type="curve" smooth="yes"/>
      <point x="89" y="306"/>
      <point x="105" y="291"/>
      <point x="91" y="213" type="curve" smooth="yes"/>
      <point x="64" y="63" type="line" smooth="yes"/>
      <point x="60" y="38"/>
      <point x="51" y="2"/>
      <point x="51" y="-2" type="curve" smooth="yes"/>
      <point x="51" y="-5"/>
      <point x="53" y="-7"/>
      <point x="68" y="-7" type="curve" smooth="yes"/>
    </contour>
    <contour>
      <point x="170" y="330" type="move" name="top"/>
    </contour>
    <contour>
      <point x="77" y="0" type="move" name="bottom"/>
    </contour>
  </outline>
</glyph>
<glyph name="s" format="1">
  <advance width="255"/>
  <unicode hex="0073"/>
  <outline>
    <contour>
      <point x="143" y="-9"/>
      <point x="192" y="36"/>
      <point x="201" y="87" type="curve" smooth="yes"/>
      <point x="216" y="179"/>
      <point x="79" y="200"/>
      <point x="92" y="285" type="curve" smooth="yes"/>
      <point x="96" y="311"/>
      <point x="117" y="321"/>
      <point x="139" y="321" type="curve" smooth="yes"/>
      <point x="184" y="321"/>
      <point x="184" y="278"/>
      <point x="211" y="278" type="curve" smooth="yes"/>
      <point x="221" y="278"/>
      <point x="232" y="284"/>
      <point x="234" y="298" type="curve" smooth="yes"/>
      <point x="238" y="320"/>
      <point x="207" y="339"/>
      <point x="169" y="339" type="curve" smooth="yes"/>
      <point x="123" y="339"/>
      <point x="69" y="311"/>
      <point x="59" y="256" type="curve" smooth="yes"/>
      <point x="42" y="167"/>
      <point x="180" y="152"/>
      <point x="167" y="63" type="curve" smooth="yes"/>
      <point x="162" y="26"/>
      <point x="140" y="7"/>
      <point x="107" y="7" type="curve" smooth="yes"/>
      <point x="50" y="7"/>
      <point x="57" y="62"/>
      <point x="33" y="62" type="curve" smooth="yes"/>
      <point x="23" y="62"/>
      <point x="12" y="56"/>
      <point x="10" y="42" type="curve" smooth="yes"/>
      <point x="6" y="13"/>
      <point x="44" y="-9"/>
      <point x="85" y="-9" type="curve" smooth="yes"/>
    </contour>
    <contour>
      <point x="152" y="330" type="move" name="top"/>
    </contour>
    <contour>
      <point x="91" y="0" type="move" name="bottom"/>
    </contour>
  </outline>
</glyph>
<glyph name="u" format="1">
  <advance width="395"/>
  <unicode hex="0075"/>
  <outline>
    <contour>
      <point x="198" y="-11"/>
      <point x="276" y="126"/>
      <point x="311" y="324" type="curve"/>
      <point x="302" y="325" type="line"/>
      <point x="266" y="130"/>
      <point x="194" y="18"/>
      <point x="138" y="18" type="curve" smooth="yes"/>
      <point x="101" y="18"/>
      <point x="90" y="50"/>
      <point x="104" y="118" type="curve" smooth="yes"/>
      <point x="132" y="254" type="line" smooth="yes"/>
      <point x="145" y="316"/>
      <point x="138" y="338"/>
      <point x="111" y="338" type="curve" smooth="yes"/>
      <point x="82" y="338"/>
      <point x="53" y="314"/>
      <point x="15" y="271" type="curve" smooth="yes"/>
      <point x="11" y="267"/>
      <point x="18" y="260"/>
      <point x="22" y="264" type="curve" smooth="yes"/>
      <point x="47" y="290"/>
      <point x="68" y="306"/>
      <point x="81" y="306" type="curve" smooth="yes"/>
      <point x="96" y="306"/>
      <point x="103" y="289"/>
      <point x="96" y="254" type="curve" smooth="yes"/>
      <point x="65" y="102" type="line" smooth="yes"/>
      <point x="48" y="21"/>
      <point x="65" y="-11"/>
      <point x="114" y="-11" type="curve" smooth="yes"/>
    </contour>
    <contour>
      <point x="308" y="-8"/>
      <point x="339" y="14"/>
      <point x="377" y="57" type="curve" smooth="yes"/>
      <point x="381" y="61"/>
      <point x="374" y="68"/>
      <point x="370" y="64" type="curve" smooth="yes"/>
      <point x="345" y="38"/>
      <point x="322" y="24"/>
      <point x="309" y="24" type="curve" smooth="yes"/>
      <point x="294" y="24"/>
      <point x="288" y="41"/>
      <point x="294" y="76" type="curve" smooth="yes"/>
      <point x="329" y="267" type="line" smooth="yes"/>
      <point x="334" y="297"/>
      <point x="342" y="328"/>
      <point x="342" y="332" type="curve" smooth="yes"/>
      <point x="342" y="335"/>
      <point x="339" y="337"/>
      <point x="324" y="337" type="curve" smooth="yes"/>
      <point x="311" y="337"/>
      <point x="303" y="332"/>
      <point x="302" y="325" type="curve" smooth="yes"/>
      <point x="258" y="76" type="line" smooth="yes"/>
      <point x="247" y="14"/>
      <point x="252" y="-8"/>
      <point x="279" y="-8" type="curve" smooth="yes"/>
    </contour>
    <contour>
      <point x="227" y="10" type="move" name="ogonek"/>
    </contour>
    <contour>
      <point x="212" y="330" type="move" name="top"/>
    </contour>
    <contour>
      <point x="404" y="330" type="move" name="topright"/>
    </contour>
    <contour>
      <point x="156" y="0" type="move" name="bottom"/>
    </contour>
  </outline>
</glyph>
<glyph name="v" format="1">
  <advance width="366"/>
  <unicode hex="0076"/>
  <outline>
    <contour>
      <point x="223" y="-11"/>
      <point x="314" y="68"/>
      <point x="335" y="204" type="curve" smooth="yes"/>
      <point x="344" y="261"/>
      <point x="342" y="339"/>
      <point x="303" y="339" type="curve" smooth="yes"/>
      <point x="291" y="339"/>
      <point x="273" y="332"/>
      <point x="273" y="313" type="curve" smooth="yes"/>
      <point x="273" y="297"/>
      <point x="287" y="287"/>
      <point x="292" y="283" type="curve" smooth="yes"/>
      <point x="301" y="276"/>
      <point x="332" y="251"/>
      <point x="308" y="166" type="curve" smooth="yes"/>
      <point x="284" y="80"/>
      <point x="228" y="25"/>
      <point x="177" y="25" type="curve" smooth="yes"/>
      <point x="137" y="25"/>
      <point x="113" y="62"/>
      <point x="121" y="127" type="curve" smooth="yes"/>
      <point x="128" y="183"/>
      <point x="157" y="258"/>
      <point x="185" y="321" type="curve" smooth="yes"/>
      <point x="189" y="329"/>
      <point x="188" y="331"/>
      <point x="178" y="331" type="curve" smooth="yes"/>
      <point x="103" y="331" type="line" smooth="yes"/>
      <point x="52" y="331"/>
      <point x="44" y="323"/>
      <point x="19" y="250" type="curve" smooth="yes"/>
      <point x="16" y="244"/>
      <point x="26" y="240"/>
      <point x="28" y="245" type="curve" smooth="yes"/>
      <point x="42" y="287"/>
      <point x="48" y="292"/>
      <point x="92" y="292" type="curve" smooth="yes"/>
      <point x="137" y="292" type="line" smooth="yes"/>
      <point x="150" y="292"/>
      <point x="153" y="286"/>
      <point x="146" y="271" type="curve" smooth="yes"/>
      <point x="125" y="222"/>
      <point x="92" y="163"/>
      <point x="84" y="111" type="curve" smooth="yes"/>
      <point x="75" y="52"/>
      <point x="98" y="-11"/>
      <point x="157" y="-11" type="curve" smooth="yes"/>
    </contour>
    <contour>
      <point x="212" y="330" type="move" name="top"/>
    </contour>
    <contour>
      <point x="154" y="0" type="move" name="bottom"/>
    </contour>
  </outline>
</glyph>
<glyph name="w" format="1">
  <advance width="527"/>
  <unicode hex="0077"/>
  <outline>
    <contour>
      <point x="223" y="-11"/>
      <point x="316" y="68"/>
      <point x="346" y="241" type="curve" smooth="yes"/>
      <point x="355" y="290"/>
      <point x="346" y="335"/>
      <point x="321" y="335" type="curve" smooth="yes"/>
      <point x="294" y="335"/>
      <point x="266" y="273"/>
      <point x="255" y="198" type="curve" smooth="yes"/>
      <point x="237" y="97"/>
      <point x="270" y="-11"/>
      <point x="335" y="-11" type="curve" smooth="yes"/>
      <point x="390" y="-11"/>
      <point x="476" y="68"/>
      <point x="496" y="204" type="curve" smooth="yes"/>
      <point x="504" y="261"/>
      <point x="503" y="339"/>
      <point x="464" y="339" type="curve" smooth="yes"/>
      <point x="452" y="339"/>
      <point x="434" y="332"/>
      <point x="434" y="313" type="curve" smooth="yes"/>
      <point x="434" y="303"/>
      <point x="440" y="296"/>
      <point x="447" y="288" type="curve" smooth="yes"/>
      <point x="462" y="270"/>
      <point x="483" y="245"/>
      <point x="469" y="166" type="curve" smooth="yes"/>
      <point x="453" y="78"/>
      <point x="395" y="21"/>
      <point x="355" y="21" type="curve" smooth="yes"/>
      <point x="291" y="21"/>
      <point x="256" y="110"/>
      <point x="272" y="223" type="curve" smooth="yes"/>
      <point x="275" y="251"/>
      <point x="284" y="288"/>
      <point x="303" y="288" type="curve" smooth="yes"/>
      <point x="321" y="288"/>
      <point x="328" y="261"/>
      <point x="322" y="219" type="curve" smooth="yes"/>
      <point x="305" y="103"/>
      <point x="236" y="21"/>
      <point x="177" y="21" type="curve" smooth="yes"/>
      <point x="137" y="21"/>
      <point x="117" y="62"/>
      <point x="125" y="127" type="curve" smooth="yes"/>
      <point x="132" y="183"/>
      <point x="157" y="258"/>
      <point x="185" y="321" type="curve" smooth="yes"/>
      <point x="189" y="329"/>
      <point x="188" y="331"/>
      <point x="178" y="331" type="curve" smooth="yes"/>
      <point x="103" y="331" type="line" smooth="yes"/>
      <point x="52" y="331"/>
      <point x="44" y="323"/>
      <point x="19" y="250" type="curve" smooth="yes"/>
      <point x="16" y="244"/>
      <point x="26" y="240"/>
      <point x="28" y="245" type="curve" smooth="yes"/>
      <point x="42" y="287"/>
      <point x="48" y="292"/>
      <point x="92" y="292" type="curve" smooth="yes"/>
      <point x="137" y="292" type="line" smooth="yes"/>
      <point x="150" y="292"/>
      <point x="153" y="286"/>
      <point x="146" y="271" type="curve" smooth="yes"/>
      <point x="126" y="224"/>
      <point x="92" y="163"/>
      <point x="84" y="111" type="curve" smooth="yes"/>
      <point x="75" y="52"/>
      <point x="98" y="-11"/>
      <point x="157" y="-11" type="curve" smooth="yes"/>
    </contour>
    <contour>
      <point x="322" y="330" type="move" name="top"/>
    </contour>
    <contour>
      <point x="235" y="0" type="move" name="bottom"/>
    </contour>
  </outline>
</glyph>
<glyph name="x" format="1">
  <advance width="358"/>
  <unicode hex="0078"/>
  <outline>
    <contour>
      <point x="267" y="-8"/>
      <point x="296" y="14"/>
      <point x="334" y="57" type="curve" smooth="yes"/>
      <point x="338" y="61"/>
      <point x="331" y="68"/>
      <point x="327" y="64" type="curve" smooth="yes"/>
      <point x="302" y="38"/>
      <point x="281" y="26"/>
      <point x="267" y="26" type="curve" smooth="yes"/>
      <point x="255" y="26"/>
      <point x="239" y="29"/>
      <point x="227" y="71" type="curve" smooth="yes"/>
      <point x="168" y="278" type="line" smooth="yes"/>
      <point x="154" y="327"/>
      <point x="134" y="338"/>
      <point x="114" y="338" type="curve" smooth="yes"/>
      <point x="91" y="338"/>
      <point x="62" y="316"/>
      <point x="24" y="273" type="curve" smooth="yes"/>
      <point x="20" y="269"/>
      <point x="27" y="262"/>
      <point x="31" y="266" type="curve" smooth="yes"/>
      <point x="56" y="292"/>
      <point x="77" y="304"/>
      <point x="91" y="304" type="curve" smooth="yes"/>
      <point x="103" y="304"/>
      <point x="121" y="298"/>
      <point x="135" y="250" type="curve" smooth="yes"/>
      <point x="194" y="44" type="line" smooth="yes"/>
      <point x="207" y="0"/>
      <point x="224" y="-8"/>
      <point x="244" y="-8" type="curve" smooth="yes"/>
    </contour>
    <contour>
      <point x="67" y="-8"/>
      <point x="78" y="2"/>
      <point x="110" y="54" type="curve" smooth="yes"/>
      <point x="174" y="157" type="line"/>
      <point x="168" y="165" type="line"/>
      <point x="98" y="61" type="line" smooth="yes"/>
      <point x="84" y="40"/>
      <point x="69" y="33"/>
      <point x="57" y="33" type="curve" smooth="yes"/>
      <point x="41" y="33"/>
      <point x="39" y="48"/>
      <point x="22" y="48" type="curve" smooth="yes"/>
      <point x="11" y="48"/>
      <point x="3" y="42"/>
      <point x="1" y="31" type="curve" smooth="yes"/>
      <point x="-2" y="10"/>
      <point x="20" y="-8"/>
      <point x="41" y="-8" type="curve" smooth="yes"/>
    </contour>
    <contour>
      <point x="252" y="269" type="line" smooth="yes"/>
      <point x="266" y="289"/>
      <point x="281" y="297"/>
      <point x="293" y="297" type="curve" smooth="yes"/>
      <point x="309" y="297"/>
      <point x="311" y="282"/>
      <point x="328" y="282" type="curve" smooth="yes"/>
      <point x="339" y="282"/>
      <point x="347" y="288"/>
      <point x="349" y="299" type="curve" smooth="yes"/>
      <point x="352" y="320"/>
      <point x="330" y="338"/>
      <point x="309" y="338" type="curve" smooth="yes"/>
      <point x="284" y="338"/>
      <point x="273" y="328"/>
      <point x="240" y="276" type="curve" smooth="yes"/>
      <point x="172" y="169" type="line"/>
      <point x="178" y="161" type="line"/>
    </contour>
    <contour>
      <point x="208" y="330" type="move" name="top"/>
    </contour>
    <contour>
      <point x="150" y="0" type="move" name="bottom"/>
    </contour>
  </outline>
</glyph>
<glyph name="y" format="1">
  <advance width="376"/>
  <unicode hex="0079"/>
  <outline>
    <contour>
      <point x="105" y="-240"/>
      <point x="344" y="149"/>
      <point x="344" y="295" type="curve" smooth="yes"/>
      <point x="344" y="320"/>
      <point x="337" y="339"/>
      <point x="315" y="339" type="curve" smooth="yes"/>
      <point x="298" y="339"/>
      <point x="289" y="328"/>
      <point x="289" y="315" type="curve" smooth="yes"/>
      <point x="289" y="299"/>
      <point x="315" y="245"/>
      <point x="301" y="185" type="curve" smooth="yes"/>
      <point x="280" y="99"/>
      <point x="148" y="-117"/>
      <point x="86" y="-161" type="curve" smooth="yes"/>
      <point x="59" y="-180"/>
      <point x="19" y="-190"/>
      <point x="-16" y="-190" type="curve" smooth="yes"/>
      <point x="-32" y="-190"/>
      <point x="-43" y="-195"/>
      <point x="-46" y="-209" type="curve" smooth="yes"/>
      <point x="-49" y="-231"/>
      <point x="-34" y="-240"/>
      <point x="-16" y="-240" type="curve" smooth="yes"/>
    </contour>
    <contour>
      <point x="196" y="-34" type="line"/>
      <point x="206" y="168"/>
      <point x="163" y="338"/>
      <point x="80" y="338" type="curve" smooth="yes"/>
      <point x="50" y="338"/>
      <point x="27" y="316"/>
      <point x="6" y="273" type="curve" smooth="yes"/>
      <point x="4" y="268"/>
      <point x="14" y="265"/>
      <point x="16" y="270" type="curve" smooth="yes"/>
      <point x="29" y="295"/>
      <point x="45" y="303"/>
      <point x="61" y="303" type="curve" smooth="yes"/>
      <point x="127" y="303"/>
      <point x="167" y="158"/>
      <point x="160" y="-92" type="curve"/>
    </contour>
    <contour>
      <point x="196" y="330" type="move" name="top"/>
    </contour>
    <contour>
      <point x="159" y="0" type="move" name="bottom"/>
    </contour>
  </outline>
</glyph>
<glyph name="braceleft" format="1">
  <advance width="222"/>
  <unicode hex="007B"/>
  <outline>
    <contour>
      <point x="151" y="-100"/>
      <point x="151" y="-90"/>
      <point x="148" y="-90" type="curve" smooth="yes"/>
      <point x="108" y="-90"/>
      <point x="91" y="-57"/>
      <point x="101" y="1" type="curve" smooth="yes"/>
      <point x="129" y="180"/>
      <point x="135" y="221"/>
      <point x="64" y="261" type="curve" smooth="yes"/>
      <point x="149" y="300"/>
      <point x="156" y="336"/>
      <point x="192" y="519" type="curve" smooth="yes"/>
      <point x="203" y="577"/>
      <point x="231" y="610"/>
      <point x="273" y="610" type="curve" smooth="yes"/>
      <point x="276" y="610"/>
      <point x="276" y="620"/>
      <point x="273" y="620" type="curve" smooth="yes"/>
      <point x="189" y="620"/>
      <point x="166" y="596"/>
      <point x="141" y="452" type="curve" smooth="yes"/>
      <point x="126" y="367"/>
      <point x="102" y="274"/>
      <point x="40" y="266" type="curve" smooth="yes"/>
      <point x="37" y="266"/>
      <point x="37" y="255"/>
      <point x="40" y="255" type="curve" smooth="yes"/>
      <point x="97" y="247"/>
      <point x="88" y="156"/>
      <point x="73" y="68" type="curve" smooth="yes"/>
      <point x="48" y="-74"/>
      <point x="60" y="-100"/>
      <point x="148" y="-100" type="curve" smooth="yes"/>
    </contour>
  </outline>
</glyph>
<glyph name="bar" format="1">
  <advance width="130"/>
  <unicode hex="007C"/>
  <outline>
    <contour>
      <point x="161" y="622" type="line" smooth="yes"/>
      <point x="162" y="630"/>
      <point x="134" y="633"/>
      <point x="132" y="625" type="curve" smooth="yes"/>
      <point x="0" y="-129" type="line" smooth="yes"/>
      <point x="-2" y="-137"/>
      <point x="26" y="-140"/>
      <point x="28" y="-132" type="curve" smooth="yes"/>
    </contour>
  </outline>
</glyph>
<glyph name="asciitilde" format="1">
  <advance width="379"/>
  <unicode hex="007E"/>
  <outline>
    <contour>
      <point x="68" y="152"/>
      <point x="77" y="165"/>
      <point x="111" y="165" type="curve" smooth="yes"/>
      <point x="163" y="165"/>
      <point x="200" y="134"/>
      <point x="250" y="134" type="curve" smooth="yes"/>
      <point x="279" y="134"/>
      <point x="298" y="145"/>
      <point x="339" y="193" type="curve" smooth="yes"/>
      <point x="341" y="196"/>
      <point x="335" y="201"/>
      <point x="333" y="199" type="curve" smooth="yes"/>
      <point x="319" y="183"/>
      <point x="304" y="166"/>
      <point x="268" y="166" type="curve" smooth="yes"/>
      <point x="219" y="166"/>
      <point x="174" y="197"/>
      <point x="136" y="197" type="curve" smooth="yes"/>
      <point x="94" y="197"/>
      <point x="59" y="160"/>
      <point x="41" y="138" type="curve" smooth="yes"/>
      <point x="39" y="135"/>
      <point x="45" y="130"/>
      <point x="47" y="132" type="curve" smooth="yes"/>
    </contour>
  </outline>
</glyph>
<glyph name="cent" format="1">
  <advance width="416"/>
  <unicode hex="00A2"/>
  <outline>
    <contour>
      <point x="165" y="-94"/>
      <point x="180" y="-96"/>
      <point x="181" y="-88" type="curve" smooth="yes"/>
      <point x="281" y="479" type="line" smooth="yes"/>
      <point x="282" y="487"/>
      <point x="267" y="489"/>
      <point x="266" y="481" type="curve" smooth="yes"/>
      <point x="166" y="-86" type="line" smooth="yes"/>
    </contour>
    <contour>
      <point x="160" y="410"/>
      <point x="53" y="322"/>
      <point x="33" y="205" type="curve" smooth="yes"/>
      <point x="17" y="113"/>
      <point x="48" y="-10"/>
      <point x="204" y="-10" type="curve" smooth="yes"/>
      <point x="238" y="-10"/>
      <point x="283" y="-4"/>
      <point x="331" y="12" type="curve" smooth="yes"/>
      <point x="340" y="17"/>
      <point x="341" y="18"/>
      <point x="343" y="27" type="curve" smooth="yes"/>
      <point x="370" y="118" type="line" smooth="yes"/>
      <point x="371" y="122"/>
      <point x="362" y="125"/>
      <point x="360" y="120" type="curve" smooth="yes"/>
      <point x="329" y="37"/>
      <point x="274" y="0"/>
      <point x="211" y="0" type="curve" smooth="yes"/>
      <point x="98" y="0"/>
      <point x="62" y="111"/>
      <point x="80" y="212" type="curve" smooth="yes"/>
      <point x="99" y="320"/>
      <point x="177" y="399"/>
      <point x="261" y="399" type="curve" smooth="yes"/>
      <point x="334" y="399"/>
      <point x="382" y="365"/>
      <point x="382" y="284" type="curve" smooth="yes"/>
      <point x="382" y="278"/>
      <point x="392" y="278"/>
      <point x="392" y="284" type="curve" smooth="yes"/>
      <point x="399" y="370" type="line" smooth="yes"/>
      <point x="400" y="379"/>
      <point x="400" y="380"/>
      <point x="392" y="385" type="curve" smooth="yes"/>
      <point x="365" y="400"/>
      <point x="317" y="410"/>
      <point x="280" y="410" type="curve" smooth="yes"/>
    </contour>
    <contour>
      <point x="249" y="400" type="move" name="top"/>
    </contour>
    <contour>
      <point x="192" y="0" type="move" name="bottom"/>
    </contour>
  </outline>
</glyph>
<glyph name="sterling" format="1">
  <advance width="332"/>
  <unicode hex="00A3"/>
  <outline>
    <contour>
      <point x="247" y="0" type="line" smooth="yes"/>
      <point x="256" y="0"/>
      <point x="259" y="2"/>
      <point x="260" y="10" type="curve" smooth="yes"/>
      <point x="265" y="41"/>
      <point x="276" y="79"/>
      <point x="283" y="102" type="curve" smooth="yes"/>
      <point x="285" y="107"/>
      <point x="275" y="109"/>
      <point x="274" y="105" type="curve" smooth="yes"/>
      <point x="252" y="46"/>
      <point x="237" y="34"/>
      <point x="172" y="34" type="curve" smooth="yes"/>
      <point x="55" y="34" type="line"/>
      <point x="58" y="25" type="line"/>
      <point x="88" y="45"/>
      <point x="117" y="68"/>
      <point x="127" y="123" type="curve" smooth="yes"/>
      <point x="139" y="193"/>
      <point x="117" y="242"/>
      <point x="129" y="308" type="curve" smooth="yes"/>
      <point x="137" y="353"/>
      <point x="165" y="399"/>
      <point x="225" y="399" type="curve" smooth="yes"/>
      <point x="281" y="399"/>
      <point x="295" y="339"/>
      <point x="290" y="294" type="curve" smooth="yes"/>
      <point x="289" y="288"/>
      <point x="300" y="288"/>
      <point x="301" y="293" type="curve" smooth="yes"/>
      <point x="311" y="379" type="line" smooth="yes"/>
      <point x="311" y="387"/>
      <point x="308" y="391"/>
      <point x="300" y="395" type="curve" smooth="yes"/>
      <point x="278" y="406"/>
      <point x="254" y="410"/>
      <point x="233" y="410" type="curve" smooth="yes"/>
      <point x="169" y="410"/>
      <point x="101" y="374"/>
      <point x="86" y="288" type="curve" smooth="yes"/>
      <point x="73" y="215"/>
      <point x="100" y="179"/>
      <point x="85" y="94" type="curve" smooth="yes"/>
      <point x="77" y="47"/>
      <point x="59" y="26"/>
      <point x="2" y="11" type="curve" smooth="yes"/>
      <point x="-4" y="9"/>
      <point x="-3" y="0"/>
      <point x="2" y="0" type="curve" smooth="yes"/>
    </contour>
    <contour>
      <point x="220" y="188" type="line" smooth="yes"/>
      <point x="227" y="188"/>
      <point x="227" y="205"/>
      <point x="220" y="205" type="curve" smooth="yes"/>
      <point x="48" y="205" type="line" smooth="yes"/>
      <point x="41" y="205"/>
      <point x="41" y="188"/>
      <point x="48" y="188" type="curve" smooth="yes"/>
    </contour>
    <contour>
      <point x="179" y="534" type="move" name="top"/>
    </contour>
    <contour>
      <point x="186" y="0" type="move" name="bottom"/>
    </contour>
    <contour>
      <point x="439" y="534" type="move" name="topright"/>
    </contour>
  </outline>
</glyph>
<glyph name="currency" format="1">
  <advance width="319"/>
  <unicode hex="00A4"/>
  <outline>
    <contour>
      <point x="73" y="97" type="line"/>
      <point x="24" y="50" type="line"/>
      <point x="37" y="32" type="line"/>
      <point x="84" y="80" type="line"/>
    </contour>
    <contour>
      <point x="118" y="266" type="line"/>
      <point x="87" y="314" type="line"/>
      <point x="63" y="294" type="line"/>
      <point x="97" y="248" type="line"/>
    </contour>
    <contour>
      <point x="204" y="82" type="line"/>
      <point x="235" y="32" type="line"/>
      <point x="259" y="53" type="line"/>
      <point x="225" y="100" type="line"/>
    </contour>
    <contour>
      <point x="254" y="250" type="line"/>
      <point x="301" y="294" type="line"/>
      <point x="289" y="311" type="line"/>
      <point x="242" y="265" type="line"/>
    </contour>
    <contour>
      <point x="190" y="56"/>
      <point x="257" y="97"/>
      <point x="270" y="169" type="curve" smooth="yes"/>
      <point x="282" y="236"/>
      <point x="244" y="286"/>
      <point x="183" y="286" type="curve" smooth="yes"/>
      <point x="134" y="286"/>
      <point x="63" y="251"/>
      <point x="50" y="176" type="curve" smooth="yes"/>
      <point x="39" y="116"/>
      <point x="66" y="56"/>
      <point x="134" y="56" type="curve" smooth="yes"/>
    </contour>
    <contour>
      <point x="93" y="69"/>
      <point x="80" y="134"/>
      <point x="90" y="188" type="curve" smooth="yes"/>
      <point x="100" y="245"/>
      <point x="129" y="273"/>
      <point x="166" y="273" type="curve" smooth="yes"/>
      <point x="219" y="273"/>
      <point x="238" y="215"/>
      <point x="228" y="157" type="curve" smooth="yes"/>
      <point x="218" y="100"/>
      <point x="187" y="69"/>
      <point x="149" y="69" type="curve" smooth="yes"/>
    </contour>
  </outline>
</glyph>
<glyph name="yen" format="1">
  <advance width="367"/>
  <unicode hex="00A5"/>
  <outline>
    <contour>
      <point x="64" y="133"/>
      <point x="64" y="116"/>
      <point x="71" y="116" type="curve" smooth="yes"/>
      <point x="278" y="116" type="line" smooth="yes"/>
      <point x="285" y="116"/>
      <point x="285" y="133"/>
      <point x="278" y="133" type="curve" smooth="yes"/>
      <point x="71" y="133" type="line" smooth="yes"/>
    </contour>
    <contour>
      <point x="72" y="182"/>
      <point x="72" y="165"/>
      <point x="79" y="165" type="curve" smooth="yes"/>
      <point x="287" y="165" type="line" smooth="yes"/>
      <point x="294" y="165"/>
      <point x="294" y="182"/>
      <point x="287" y="182" type="curve" smooth="yes"/>
      <point x="79" y="182" type="line" smooth="yes"/>
    </contour>
    <contour>
      <point x="181" y="161" type="line"/>
      <point x="292" y="312" type="line" smooth="yes"/>
      <point x="327" y="361"/>
      <point x="366" y="390"/>
      <point x="401" y="390" type="curve" smooth="yes"/>
      <point x="405" y="390"/>
      <point x="405" y="400"/>
      <point x="401" y="400" type="curve" smooth="yes"/>
      <point x="383" y="400"/>
      <point x="372" y="398"/>
      <point x="350" y="398" type="curve" smooth="yes"/>
      <point x="316" y="398"/>
      <point x="300" y="400"/>
      <point x="275" y="400" type="curve" smooth="yes"/>
      <point x="271" y="400"/>
      <point x="271" y="390"/>
      <point x="275" y="390" type="curve" smooth="yes"/>
      <point x="304" y="390"/>
      <point x="311" y="362"/>
      <point x="278" y="315" type="curve" smooth="yes"/>
      <point x="175" y="168" type="line"/>
    </contour>
    <contour>
      <point x="208" y="201" type="line"/>
      <point x="144" y="355" type="line" smooth="yes"/>
      <point x="134" y="378"/>
      <point x="145" y="390"/>
      <point x="178" y="390" type="curve" smooth="yes"/>
      <point x="182" y="390"/>
      <point x="182" y="400"/>
      <point x="178" y="400" type="curve" smooth="yes"/>
      <point x="155" y="400"/>
      <point x="124" y="398"/>
      <point x="86" y="398" type="curve" smooth="yes"/>
      <point x="72" y="398"/>
      <point x="55" y="400"/>
      <point x="39" y="400" type="curve" smooth="yes"/>
      <point x="35" y="400"/>
      <point x="35" y="390"/>
      <point x="39" y="390" type="curve" smooth="yes"/>
      <point x="72" y="390"/>
      <point x="87" y="374"/>
      <point x="106" y="330" type="curve" smooth="yes"/>
      <point x="175" y="162" type="line"/>
    </contour>
    <contour>
      <point x="146" y="70" type="line" smooth="yes"/>
      <point x="138" y="21"/>
      <point x="125" y="10"/>
      <point x="66" y="10" type="curve" smooth="yes"/>
      <point x="62" y="10"/>
      <point x="62" y="0"/>
      <point x="66" y="0" type="curve" smooth="yes"/>
      <point x="89" y="0"/>
      <point x="122" y="2"/>
      <point x="154" y="2" type="curve" smooth="yes"/>
      <point x="188" y="2"/>
      <point x="217" y="0"/>
      <point x="242" y="0" type="curve" smooth="yes"/>
      <point x="246" y="0"/>
      <point x="246" y="10"/>
      <point x="242" y="10" type="curve" smooth="yes"/>
      <point x="183" y="10"/>
      <point x="176" y="19"/>
      <point x="185" y="68" type="curve" smooth="yes"/>
      <point x="209" y="203" type="line"/>
      <point x="168" y="195" type="line"/>
    </contour>
    <contour>
      <point x="208" y="400" type="move" name="top"/>
    </contour>
    <contour>
      <point x="135" y="0" type="move" name="bottom"/>
    </contour>
  </outline>
</glyph>
<glyph name="section" format="1">
  <advance width="330"/>
  <unicode hex="00A7"/>
  <outline>
    <contour>
      <point x="156" y="-161"/>
      <point x="219" y="-127"/>
      <point x="232" y="-48" type="curve" smooth="yes"/>
      <point x="254" y="72"/>
      <point x="68" y="68"/>
      <point x="95" y="219" type="curve" smooth="yes"/>
      <point x="101" y="253"/>
      <point x="114" y="285"/>
      <point x="150" y="311" type="curve"/>
      <point x="145" y="319" type="line"/>
      <point x="86" y="270"/>
      <point x="66" y="238"/>
      <point x="59" y="192" type="curve" smooth="yes"/>
      <point x="35" y="34"/>
      <point x="218" y="42"/>
      <point x="198" y="-77" type="curve" smooth="yes"/>
      <point x="189" y="-124"/>
      <point x="162" y="-141"/>
      <point x="133" y="-141" type="curve" smooth="yes"/>
      <point x="80" y="-141"/>
      <point x="45" y="-90"/>
      <point x="47" y="-51" type="curve" smooth="yes"/>
      <point x="48" y="-48"/>
      <point x="39" y="-48"/>
      <point x="38" y="-51" type="curve" smooth="yes"/>
      <point x="30" y="-131" type="line" smooth="yes"/>
      <point x="29" y="-138"/>
      <point x="32" y="-142"/>
      <point x="36" y="-145" type="curve" smooth="yes"/>
      <point x="52" y="-155"/>
      <point x="72" y="-161"/>
      <point x="101" y="-161" type="curve" smooth="yes"/>
    </contour>
    <contour>
      <point x="256" y="58"/>
      <point x="276" y="90"/>
      <point x="283" y="136" type="curve" smooth="yes"/>
      <point x="307" y="295"/>
      <point x="123" y="286"/>
      <point x="144" y="405" type="curve" smooth="yes"/>
      <point x="152" y="452"/>
      <point x="180" y="469"/>
      <point x="208" y="469" type="curve" smooth="yes"/>
      <point x="262" y="469"/>
      <point x="297" y="418"/>
      <point x="294" y="379" type="curve" smooth="yes"/>
      <point x="294" y="376"/>
      <point x="303" y="376"/>
      <point x="303" y="379" type="curve" smooth="yes"/>
      <point x="311" y="459" type="line" smooth="yes"/>
      <point x="312" y="466"/>
      <point x="309" y="470"/>
      <point x="305" y="473" type="curve" smooth="yes"/>
      <point x="290" y="483"/>
      <point x="270" y="489"/>
      <point x="241" y="489" type="curve" smooth="yes"/>
      <point x="186" y="489"/>
      <point x="123" y="455"/>
      <point x="109" y="376" type="curve" smooth="yes"/>
      <point x="88" y="256"/>
      <point x="272" y="262"/>
      <point x="247" y="109" type="curve" smooth="yes"/>
      <point x="241" y="74"/>
      <point x="227" y="42"/>
      <point x="192" y="17" type="curve"/>
      <point x="197" y="9" type="line"/>
    </contour>
  </outline>
</glyph>
<glyph name="dieresis" format="1">
  <advance width="235"/>
  <unicode hex="00A8"/>
  <outline>
    <contour>
      <point x="251" y="411"/>
      <point x="263" y="423"/>
      <point x="263" y="444" type="curve" smooth="yes"/>
      <point x="263" y="464"/>
      <point x="251" y="476"/>
      <point x="230" y="476" type="curve" smooth="yes"/>
      <point x="209" y="476"/>
      <point x="196" y="464"/>
      <point x="196" y="444" type="curve" smooth="yes"/>
      <point x="196" y="423"/>
      <point x="209" y="411"/>
      <point x="230" y="411" type="curve" smooth="yes"/>
    </contour>
    <contour>
      <point x="124" y="411"/>
      <point x="136" y="423"/>
      <point x="136" y="444" type="curve" smooth="yes"/>
      <point x="136" y="464"/>
      <point x="124" y="476"/>
      <point x="103" y="476" type="curve" smooth="yes"/>
      <point x="82" y="476"/>
      <point x="69" y="464"/>
      <point x="69" y="444" type="curve" smooth="yes"/>
      <point x="69" y="423"/>
      <point x="82" y="411"/>
      <point x="103" y="411" type="curve" smooth="yes"/>
    </contour>
    <contour>
      <point x="146" y="330" type="move" name="_top"/>
    </contour>
  </outline>
</glyph>
<glyph name="copyright" format="1">
  <advance width="619"/>
  <unicode hex="00A9"/>
  <outline>
    <contour>
      <point x="384" y="-86"/>
      <point x="447" y="-77"/>
      <point x="512" y="-28" type="curve" smooth="yes"/>
      <point x="514" y="-26"/>
      <point x="510" y="-21"/>
      <point x="508" y="-22" type="curve" smooth="yes"/>
      <point x="442" y="-56"/>
      <point x="400" y="-61"/>
      <point x="336" y="-61" type="curve" smooth="yes"/>
      <point x="242" y="-61"/>
      <point x="100" y="13"/>
      <point x="100" y="182" type="curve" smooth="yes"/>
      <point x="100" y="305"/>
      <point x="175" y="405"/>
      <point x="313" y="405" type="curve" smooth="yes"/>
      <point x="432" y="405"/>
      <point x="523" y="316"/>
      <point x="523" y="207" type="curve" smooth="yes"/>
      <point x="523" y="100"/>
      <point x="446" y="56"/>
      <point x="368" y="56" type="curve" smooth="yes"/>
      <point x="271" y="56"/>
      <point x="240" y="117"/>
      <point x="240" y="187" type="curve" smooth="yes"/>
      <point x="240" y="253"/>
      <point x="260" y="298"/>
      <point x="316" y="298" type="curve" smooth="yes"/>
      <point x="344" y="298"/>
      <point x="355" y="285"/>
      <point x="366" y="269" type="curve" smooth="yes"/>
      <point x="372" y="261"/>
      <point x="382" y="249"/>
      <point x="395" y="249" type="curve" smooth="yes"/>
      <point x="407" y="249"/>
      <point x="417" y="260"/>
      <point x="417" y="271" type="curve" smooth="yes"/>
      <point x="415" y="294"/>
      <point x="376" y="311"/>
      <point x="338" y="311" type="curve" smooth="yes"/>
      <point x="269" y="311"/>
      <point x="192" y="259"/>
      <point x="192" y="167" type="curve" smooth="yes"/>
      <point x="192" y="103"/>
      <point x="236" y="33"/>
      <point x="344" y="33" type="curve" smooth="yes"/>
      <point x="460" y="33"/>
      <point x="550" y="124"/>
      <point x="550" y="231" type="curve" smooth="yes"/>
      <point x="550" y="336"/>
      <point x="469" y="425"/>
      <point x="339" y="425" type="curve" smooth="yes"/>
      <point x="197" y="425"/>
      <point x="67" y="319"/>
      <point x="67" y="163" type="curve" smooth="yes"/>
      <point x="67" y="-8"/>
      <point x="208" y="-86"/>
      <point x="315" y="-86" type="curve" smooth="yes"/>
    </contour>
    <contour>
      <point x="292" y="264" type="move" name="top"/>
    </contour>
    <contour>
      <point x="299" y="0" type="move" name="bottom"/>
    </contour>
  </outline>
</glyph>
<glyph name="ordfeminine" format="1">
  <advance width="236"/>
  <unicode hex="00AA"/>
  <outline>
    <contour>
      <point x="126" y="309"/>
      <point x="181" y="370"/>
      <point x="217" y="454" type="curve"/>
      <point x="207" y="445" type="line"/>
      <point x="193" y="366" type="line" smooth="yes"/>
      <point x="185" y="325"/>
      <point x="189" y="311"/>
      <point x="207" y="311" type="curve" smooth="yes"/>
      <point x="226" y="311"/>
      <point x="245" y="327"/>
      <point x="270" y="355" type="curve" smooth="yes"/>
      <point x="272" y="357"/>
      <point x="264" y="363"/>
      <point x="262" y="361" type="curve" smooth="yes"/>
      <point x="246" y="343"/>
      <point x="235" y="332"/>
      <point x="226" y="332" type="curve" smooth="yes"/>
      <point x="217" y="332"/>
      <point x="213" y="343"/>
      <point x="217" y="366" type="curve" smooth="yes"/>
      <point x="250" y="545" type="line" smooth="yes"/>
      <point x="250" y="547"/>
      <point x="241" y="548"/>
      <point x="240" y="546" type="curve" smooth="yes"/>
      <point x="237" y="531"/>
      <point x="225" y="519"/>
      <point x="217" y="517" type="curve"/>
      <point x="238" y="503" type="line"/>
      <point x="236" y="531"/>
      <point x="215" y="541"/>
      <point x="194" y="541" type="curve" smooth="yes"/>
      <point x="135" y="541"/>
      <point x="59" y="450"/>
      <point x="48" y="367" type="curve" smooth="yes"/>
      <point x="42" y="325"/>
      <point x="56" y="309"/>
      <point x="80" y="309" type="curve" smooth="yes"/>
    </contour>
    <contour>
      <point x="230" y="246" type="line" smooth="yes"/>
      <point x="235" y="246"/>
      <point x="235" y="268"/>
      <point x="230" y="268" type="curve" smooth="yes"/>
      <point x="37" y="268" type="line" smooth="yes"/>
      <point x="33" y="268"/>
      <point x="33" y="246"/>
      <point x="38" y="246" type="curve" smooth="yes"/>
    </contour>
    <contour>
      <point x="75" y="333"/>
      <point x="69" y="352"/>
      <point x="74" y="388" type="curve" smooth="yes"/>
      <point x="84" y="461"/>
      <point x="137" y="522"/>
      <point x="177" y="523" type="curve" smooth="yes"/>
      <point x="206" y="524"/>
      <point x="217" y="501"/>
      <point x="212" y="476" type="curve" smooth="yes"/>
      <point x="197" y="409"/>
      <point x="132" y="333"/>
      <point x="96" y="333" type="curve" smooth="yes"/>
    </contour>
    <contour>
      <point x="211" y="323" type="move" name="ogonek"/>
    </contour>
    <contour>
      <point x="79" y="316" type="move" name="bottom"/>
    </contour>
    <contour>
      <point x="118" y="534" type="move" name="top"/>
    </contour>
  </outline>
</glyph>
<glyph name="guillemetleft" format="1">
  <advance width="360"/>
  <unicode hex="00AB"/>
  <outline>
    <contour>
      <point x="50" y="181" type="line" smooth="yes"/>
      <point x="43" y="175"/>
      <point x="43" y="167"/>
      <point x="47" y="162" type="curve" smooth="yes"/>
      <point x="159" y="34" type="line" smooth="yes"/>
      <point x="161" y="31"/>
      <point x="168" y="37"/>
      <point x="166" y="40" type="curve" smooth="yes"/>
      <point x="88" y="172" type="line"/>
      <point x="212" y="304" type="line" smooth="yes"/>
      <point x="215" y="307"/>
      <point x="208" y="313"/>
      <point x="205" y="311" type="curve" smooth="yes"/>
    </contour>
    <contour>
      <point x="176" y="181" type="line" smooth="yes"/>
      <point x="169" y="175"/>
      <point x="169" y="167"/>
      <point x="173" y="162" type="curve" smooth="yes"/>
      <point x="285" y="34" type="line" smooth="yes"/>
      <point x="287" y="31"/>
      <point x="294" y="37"/>
      <point x="292" y="40" type="curve" smooth="yes"/>
      <point x="214" y="172" type="line"/>
      <point x="338" y="304" type="line" smooth="yes"/>
      <point x="341" y="307"/>
      <point x="334" y="313"/>
      <point x="331" y="311" type="curve" smooth="yes"/>
    </contour>
  </outline>
</glyph>
<glyph name="logicalnot" format="1">
  <advance width="338"/>
  <unicode hex="00AC"/>
  <outline>
    <contour>
      <point x="311" y="196" type="line"/>
      <point x="311" y="228" type="line"/>
      <point x="28" y="228" type="line" smooth="yes"/>
      <point x="24" y="228"/>
      <point x="24" y="196"/>
      <point x="29" y="196" type="curve" smooth="yes"/>
    </contour>
    <contour>
      <point x="279" y="61"/>
      <point x="311" y="61"/>
      <point x="311" y="66" type="curve" smooth="yes"/>
      <point x="311" y="228" type="line"/>
      <point x="279" y="228" type="line"/>
      <point x="279" y="65" type="line" smooth="yes"/>
    </contour>
  </outline>
</glyph>
<glyph name="registered" format="1">
  <advance width="654"/>
  <unicode hex="00AE"/>
  <outline>
    <contour>
      <point x="495" y="118"/>
      <point x="616" y="235"/>
      <point x="616" y="386" type="curve" smooth="yes"/>
      <point x="616" y="511"/>
      <point x="523" y="620"/>
      <point x="375" y="620" type="curve" smooth="yes"/>
      <point x="233" y="620"/>
      <point x="103" y="514"/>
      <point x="103" y="368" type="curve" smooth="yes"/>
      <point x="103" y="204"/>
      <point x="234" y="118"/>
      <point x="353" y="118" type="curve" smooth="yes"/>
    </contour>
    <contour>
      <point x="268" y="143"/>
      <point x="136" y="225"/>
      <point x="136" y="387" type="curve" smooth="yes"/>
      <point x="136" y="500"/>
      <point x="211" y="600"/>
      <point x="349" y="600" type="curve" smooth="yes"/>
      <point x="486" y="600"/>
      <point x="589" y="495"/>
      <point x="589" y="362" type="curve" smooth="yes"/>
      <point x="589" y="227"/>
      <point x="502" y="143"/>
      <point x="374" y="143" type="curve" smooth="yes"/>
    </contour>
    <contour>
      <point x="233" y="237"/>
      <point x="260" y="238"/>
      <point x="280" y="238" type="curve" smooth="yes"/>
      <point x="305" y="238"/>
      <point x="325" y="237"/>
      <point x="342" y="237" type="curve" smooth="yes"/>
      <point x="344" y="237"/>
      <point x="346" y="247"/>
      <point x="344" y="247" type="curve" smooth="yes"/>
      <point x="304" y="247"/>
      <point x="298" y="251"/>
      <point x="304" y="285" type="curve" smooth="yes"/>
      <point x="336" y="467" type="line" smooth="yes"/>
      <point x="343" y="507"/>
      <point x="354" y="508"/>
      <point x="384" y="508" type="curve" smooth="yes"/>
      <point x="419" y="508"/>
      <point x="438" y="489"/>
      <point x="430" y="443" type="curve" smooth="yes"/>
      <point x="420" y="388"/>
      <point x="379" y="379"/>
      <point x="316" y="390" type="curve"/>
      <point x="313" y="373" type="line"/>
      <point x="401" y="368"/>
      <point x="455" y="405"/>
      <point x="466" y="463" type="curve" smooth="yes"/>
      <point x="473" y="502"/>
      <point x="449" y="519"/>
      <point x="400" y="519" type="curve" smooth="yes"/>
      <point x="381" y="519"/>
      <point x="350" y="516"/>
      <point x="329" y="516" type="curve" smooth="yes"/>
      <point x="309" y="516"/>
      <point x="285" y="517"/>
      <point x="268" y="517" type="curve" smooth="yes"/>
      <point x="266" y="517"/>
      <point x="264" y="507"/>
      <point x="266" y="507" type="curve" smooth="yes"/>
      <point x="307" y="507"/>
      <point x="312" y="500"/>
      <point x="307" y="469" type="curve" smooth="yes"/>
      <point x="274" y="285" type="line" smooth="yes"/>
      <point x="268" y="251"/>
      <point x="262" y="247"/>
      <point x="221" y="247" type="curve" smooth="yes"/>
      <point x="219" y="247"/>
      <point x="217" y="237"/>
      <point x="219" y="237" type="curve" smooth="yes"/>
    </contour>
    <contour>
      <point x="444" y="237"/>
      <point x="466" y="237"/>
      <point x="498" y="237" type="curve" smooth="yes"/>
      <point x="500" y="237"/>
      <point x="501" y="244"/>
      <point x="499" y="244" type="curve" smooth="yes"/>
      <point x="453" y="244"/>
      <point x="441" y="284"/>
      <point x="405" y="389" type="curve"/>
      <point x="371" y="377" type="line"/>
      <point x="401" y="292"/>
      <point x="423" y="237"/>
      <point x="435" y="237" type="curve" smooth="yes"/>
    </contour>
    <contour>
      <point x="344" y="509" type="move" name="top"/>
    </contour>
    <contour>
      <point x="377" y="229" type="move" name="bottom"/>
    </contour>
  </outline>
</glyph>
<glyph name="macron" format="1">
  <advance width="285"/>
  <unicode hex="00AF"/>
  <outline>
    <contour>
      <point x="290" y="410" type="line" smooth="yes"/>
      <point x="296" y="410"/>
      <point x="296" y="433"/>
      <point x="290" y="433" type="curve" smooth="yes"/>
      <point x="85" y="433" type="line" smooth="yes"/>
      <point x="79" y="433"/>
      <point x="79" y="410"/>
      <point x="85" y="410" type="curve" smooth="yes"/>
    </contour>
    <contour>
      <point x="167" y="330" type="move" name="_top"/>
    </contour>
  </outline>
</glyph>
<glyph name="degree" format="1">
  <advance width="256"/>
  <unicode hex="00B0"/>
  <outline>
    <contour>
      <point x="221" y="319"/>
      <point x="274" y="360"/>
      <point x="287" y="418" type="curve" smooth="yes"/>
      <point x="299" y="473"/>
      <point x="274" y="539"/>
      <point x="193" y="539" type="curve" smooth="yes"/>
      <point x="124" y="539"/>
      <point x="72" y="491"/>
      <point x="61" y="440" type="curve" smooth="yes"/>
      <point x="49" y="388"/>
      <point x="75" y="319"/>
      <point x="157" y="319" type="curve" smooth="yes"/>
    </contour>
    <contour>
      <point x="97" y="329"/>
      <point x="90" y="382"/>
      <point x="103" y="443" type="curve" smooth="yes"/>
      <point x="113" y="489"/>
      <point x="132" y="529"/>
      <point x="189" y="529" type="curve" smooth="yes"/>
      <point x="245" y="529"/>
      <point x="260" y="491"/>
      <point x="245" y="412" type="curve" smooth="yes"/>
      <point x="236" y="365"/>
      <point x="221" y="329"/>
      <point x="165" y="329" type="curve" smooth="yes"/>
    </contour>
    <contour>
      <point x="258" y="594" type="move" name="top"/>
    </contour>
  </outline>
</glyph>
<glyph name="plusminus" format="1">
  <advance width="340"/>
  <unicode hex="00B1"/>
  <outline>
    <contour>
      <point x="311" y="1" type="line" smooth="yes"/>
      <point x="316" y="1"/>
      <point x="316" y="30"/>
      <point x="311" y="30" type="curve" smooth="yes"/>
      <point x="28" y="30" type="line" smooth="yes"/>
      <point x="24" y="30"/>
      <point x="24" y="1"/>
      <point x="29" y="1" type="curve" smooth="yes"/>
    </contour>
    <component base="endash" yOffset="54"/>
    <component base="endash" xOffset="332" yOffset="46" xScale="0" yScale="0" xyScale="1" yxScale="-1"/>
  </outline>
</glyph>
<glyph name="acute" format="1">
  <advance width="181"/>
  <unicode hex="00B4"/>
  <outline>
    <contour>
      <point x="223" y="622" type="line" smooth="yes"/>
      <point x="227" y="630"/>
      <point x="180" y="619"/>
      <point x="177" y="612" type="curve" smooth="yes"/>
      <point x="93" y="407" type="line" smooth="yes"/>
      <point x="91" y="404"/>
      <point x="100" y="401"/>
      <point x="102" y="404" type="curve" smooth="yes"/>
    </contour>
    <contour>
      <point x="96" y="330" type="move" name="_top"/>
    </contour>
  </outline>
</glyph>
<glyph name="paragraph" format="1">
  <advance width="508"/>
  <unicode hex="00B6"/>
  <outline>
    <contour>
      <point x="302" y="-165"/>
      <point x="349" y="-100"/>
      <point x="375" y="47" type="curve" smooth="yes"/>
      <point x="446" y="455" type="line" smooth="yes"/>
      <point x="454" y="499"/>
      <point x="485" y="524"/>
      <point x="529" y="524" type="curve" smooth="yes"/>
      <point x="534" y="524"/>
      <point x="534" y="534"/>
      <point x="529" y="534" type="curve" smooth="yes"/>
      <point x="504" y="534"/>
      <point x="473" y="532"/>
      <point x="444" y="532" type="curve" smooth="yes"/>
      <point x="399" y="532"/>
      <point x="365" y="537"/>
      <point x="330" y="537" type="curve" smooth="yes"/>
      <point x="195" y="537"/>
      <point x="97" y="468"/>
      <point x="70" y="330" type="curve" smooth="yes"/>
      <point x="38" y="160"/>
      <point x="159" y="104"/>
      <point x="275" y="104" type="curve" smooth="yes"/>
      <point x="301" y="104"/>
      <point x="322" y="105"/>
      <point x="343" y="107" type="curve"/>
      <point x="325" y="7" type="line" smooth="yes"/>
      <point x="303" y="-119"/>
      <point x="291" y="-145"/>
      <point x="256" y="-145" type="curve" smooth="yes"/>
      <point x="217" y="-145"/>
      <point x="237" y="-105"/>
      <point x="204" y="-105" type="curve" smooth="yes"/>
      <point x="192" y="-105"/>
      <point x="179" y="-114"/>
      <point x="176" y="-131" type="curve" smooth="yes"/>
      <point x="173" y="-148"/>
      <point x="190" y="-165"/>
      <point x="224" y="-165" type="curve" smooth="yes"/>
    </contour>
  </outline>
</glyph>
<glyph name="onesuperior" format="1">
  <advance width="202"/>
  <unicode hex="00B9"/>
  <outline>
    <component base="one.sinf" xOffset="82" yOffset="464"/>
    <contour>
      <point x="112" y="910" type="move" name="top"/>
    </contour>
    <contour>
      <point x="117" y="344" type="move" name="bottom"/>
    </contour>
    <contour>
      <point x="199" y="674" type="move" name="topright"/>
    </contour>
  </outline>
</glyph>
<glyph name="ordmasculine" format="1">
  <advance width="230"/>
  <unicode hex="00BA"/>
  <outline>
    <contour>
      <point x="182" y="307"/>
      <point x="239" y="358"/>
      <point x="251" y="423" type="curve" smooth="yes"/>
      <point x="260" y="482"/>
      <point x="235" y="539"/>
      <point x="179" y="539" type="curve" smooth="yes"/>
      <point x="133" y="539"/>
      <point x="71" y="503"/>
      <point x="58" y="426" type="curve" smooth="yes"/>
      <point x="47" y="362"/>
      <point x="75" y="307"/>
      <point x="129" y="307" type="curve" smooth="yes"/>
    </contour>
    <contour>
      <point x="230" y="246" type="line" smooth="yes"/>
      <point x="235" y="246"/>
      <point x="235" y="268"/>
      <point x="230" y="268" type="curve" smooth="yes"/>
      <point x="41" y="268" type="line" smooth="yes"/>
      <point x="37" y="268"/>
      <point x="37" y="246"/>
      <point x="42" y="246" type="curve" smooth="yes"/>
    </contour>
    <contour>
      <point x="99" y="322"/>
      <point x="76" y="375"/>
      <point x="88" y="442" type="curve" smooth="yes"/>
      <point x="97" y="498"/>
      <point x="126" y="524"/>
      <point x="161" y="524" type="curve" smooth="yes"/>
      <point x="207" y="524"/>
      <point x="232" y="476"/>
      <point x="221" y="408" type="curve" smooth="yes"/>
      <point x="210" y="350"/>
      <point x="179" y="322"/>
      <point x="145" y="322" type="curve" smooth="yes"/>
    </contour>
    <contour>
      <point x="171" y="532" type="move" name="top"/>
    </contour>
  </outline>
</glyph>
<glyph name="guillemetright" format="1">
  <advance width="360"/>
  <unicode hex="00BB"/>
  <outline>
    <contour>
      <point x="312" y="162" type="line" smooth="yes"/>
      <point x="319" y="168"/>
      <point x="319" y="176"/>
      <point x="315" y="181" type="curve" smooth="yes"/>
      <point x="203" y="309" type="line" smooth="yes"/>
      <point x="201" y="312"/>
      <point x="194" y="306"/>
      <point x="196" y="303" type="curve" smooth="yes"/>
      <point x="274" y="171" type="line"/>
      <point x="150" y="39" type="line" smooth="yes"/>
      <point x="147" y="36"/>
      <point x="154" y="30"/>
      <point x="157" y="32" type="curve" smooth="yes"/>
    </contour>
    <contour>
      <point x="186" y="162" type="line" smooth="yes"/>
      <point x="193" y="168"/>
      <point x="193" y="176"/>
      <point x="189" y="181" type="curve" smooth="yes"/>
      <point x="77" y="309" type="line" smooth="yes"/>
      <point x="75" y="312"/>
      <point x="68" y="306"/>
      <point x="70" y="303" type="curve" smooth="yes"/>
      <point x="148" y="171" type="line"/>
      <point x="24" y="39" type="line" smooth="yes"/>
      <point x="21" y="36"/>
      <point x="28" y="30"/>
      <point x="31" y="32" type="curve" smooth="yes"/>
    </contour>
  </outline>
</glyph>
<glyph name="AE" format="1">
  <advance width="657"/>
  <unicode hex="00C6"/>
  <outline>
    <contour>
      <point x="-18" y="0"/>
      <point x="-2" y="3"/>
      <point x="34" y="3" type="curve" smooth="yes"/>
      <point x="73" y="3"/>
      <point x="93" y="0"/>
      <point x="124" y="0" type="curve" smooth="yes"/>
      <point x="128" y="0"/>
      <point x="129" y="10"/>
      <point x="124" y="10" type="curve" smooth="yes"/>
      <point x="54" y="10"/>
      <point x="58" y="40"/>
      <point x="107" y="105" type="curve" smooth="yes"/>
      <point x="419" y="515" type="line"/>
      <point x="398" y="524" type="line"/>
      <point x="339" y="69" type="line" smooth="yes"/>
      <point x="333" y="20"/>
      <point x="317" y="10"/>
      <point x="259" y="10" type="curve" smooth="yes"/>
      <point x="254" y="10"/>
      <point x="254" y="0"/>
      <point x="259" y="0" type="curve" smooth="yes"/>
      <point x="578" y="0" type="line" smooth="yes"/>
      <point x="587" y="0"/>
      <point x="590" y="3"/>
      <point x="592" y="13" type="curve" smooth="yes"/>
      <point x="598" y="48"/>
      <point x="610" y="94"/>
      <point x="618" y="124" type="curve" smooth="yes"/>
      <point x="620" y="127"/>
      <point x="610" y="129"/>
      <point x="609" y="126" type="curve" smooth="yes"/>
      <point x="589" y="61"/>
      <point x="550" y="15"/>
      <point x="509" y="15" type="curve" smooth="yes"/>
      <point x="437" y="15" type="line" smooth="yes"/>
      <point x="380" y="15"/>
      <point x="375" y="25"/>
      <point x="381" y="73" type="curve" smooth="yes"/>
      <point x="430" y="464" type="line" smooth="yes"/>
      <point x="436" y="513"/>
      <point x="450" y="522"/>
      <point x="526" y="522" type="curve" smooth="yes"/>
      <point x="563" y="522" type="line" smooth="yes"/>
      <point x="616" y="522"/>
      <point x="638" y="482"/>
      <point x="628" y="423" type="curve" smooth="yes"/>
      <point x="627" y="420"/>
      <point x="637" y="419"/>
      <point x="638" y="422" type="curve" smooth="yes"/>
      <point x="642" y="446"/>
      <point x="649" y="496"/>
      <point x="654" y="527" type="curve" smooth="yes"/>
      <point x="655" y="532"/>
      <point x="654" y="534"/>
      <point x="648" y="534" type="curve" smooth="yes"/>
      <point x="331" y="534" type="line" smooth="yes"/>
      <point x="326" y="534"/>
      <point x="326" y="524"/>
      <point x="331" y="524" type="curve" smooth="yes"/>
      <point x="395" y="524"/>
      <point x="398" y="522"/>
      <point x="375" y="491" type="curve" smooth="yes"/>
      <point x="89" y="113" type="line" smooth="yes"/>
      <point x="26" y="30"/>
      <point x="-5" y="10"/>
      <point x="-48" y="10" type="curve" smooth="yes"/>
      <point x="-53" y="10"/>
      <point x="-53" y="0"/>
      <point x="-48" y="0" type="curve" smooth="yes"/>
    </contour>
    <contour>
      <point x="402" y="270" type="line"/>
      <point x="399" y="286" type="line"/>
      <point x="241" y="286" type="line"/>
      <point x="226" y="270" type="line"/>
    </contour>
    <contour>
      <point x="574" y="229"/>
      <point x="577" y="252"/>
      <point x="581" y="278" type="curve" smooth="yes"/>
      <point x="584" y="298"/>
      <point x="588" y="312"/>
      <point x="593" y="345" type="curve" smooth="yes"/>
      <point x="594" y="349"/>
      <point x="584" y="351"/>
      <point x="584" y="347" type="curve" smooth="yes"/>
      <point x="576" y="304"/>
      <point x="558" y="286"/>
      <point x="511" y="286" type="curve" smooth="yes"/>
      <point x="399" y="286" type="line"/>
      <point x="397" y="270" type="line" smooth="yes"/>
      <point x="505" y="270" type="line" smooth="yes"/>
      <point x="555" y="270"/>
      <point x="568" y="254"/>
      <point x="559" y="203" type="curve" smooth="yes"/>
      <point x="559" y="200"/>
      <point x="568" y="198"/>
      <point x="569" y="201" type="curve" smooth="yes"/>
    </contour>
    <contour>
      <point x="151" y="10" type="move" name="ogonek"/>
    </contour>
    <contour>
      <point x="300" y="0" type="move" name="bottom"/>
    </contour>
    <contour>
      <point x="510" y="534" type="move" name="top"/>
    </contour>
  </outline>
</glyph>
<glyph name="Oslash" format="1">
  <advance width="556"/>
  <unicode hex="00D8"/>
  <outline>
    <contour>
      <point x="566" y="528" type="line" smooth="yes"/>
      <point x="570" y="532"/>
      <point x="557" y="541"/>
      <point x="554" y="538" type="curve" smooth="yes"/>
      <point x="30" y="6" type="line" smooth="yes"/>
      <point x="26" y="2"/>
      <point x="38" y="-9"/>
      <point x="41" y="-6" type="curve" smooth="yes"/>
    </contour>
    <component base="O"/>
    <contour>
      <point x="328" y="534" type="move" name="top"/>
    </contour>
    <contour>
      <point x="249" y="0" type="move" name="bottom"/>
    </contour>
  </outline>
</glyph>
<glyph name="Thorn" format="1">
  <advance width="454"/>
  <unicode hex="00DE"/>
  <outline>
    <contour>
      <point x="32" y="0"/>
      <point x="62" y="2"/>
      <point x="93" y="2" type="curve" smooth="yes"/>
      <point x="135" y="2"/>
      <point x="172" y="0"/>
      <point x="200" y="0" type="curve" smooth="yes"/>
      <point x="203" y="0"/>
      <point x="203" y="10"/>
      <point x="200" y="10" type="curve" smooth="yes"/>
      <point x="123" y="10"/>
      <point x="117" y="19"/>
      <point x="126" y="69" type="curve" smooth="yes"/>
      <point x="195" y="463" type="line" smooth="yes"/>
      <point x="205" y="518"/>
      <point x="215" y="524"/>
      <point x="292" y="524" type="curve" smooth="yes"/>
      <point x="295" y="524"/>
      <point x="295" y="534"/>
      <point x="292" y="534" type="curve" smooth="yes"/>
      <point x="265" y="534"/>
      <point x="229" y="532"/>
      <point x="185" y="532" type="curve"/>
      <point x="153" y="532"/>
      <point x="124" y="534"/>
      <point x="102" y="534" type="curve" smooth="yes"/>
      <point x="99" y="534"/>
      <point x="99" y="524"/>
      <point x="102" y="524" type="curve" smooth="yes"/>
      <point x="157" y="524"/>
      <point x="165" y="514"/>
      <point x="156" y="465" type="curve" smooth="yes"/>
      <point x="86" y="69" type="line" smooth="yes"/>
      <point x="77" y="20"/>
      <point x="65" y="10"/>
      <point x="10" y="10" type="curve" smooth="yes"/>
      <point x="7" y="10"/>
      <point x="7" y="0"/>
      <point x="10" y="0" type="curve" smooth="yes"/>
    </contour>
    <contour>
      <point x="284" y="104"/>
      <point x="415" y="153"/>
      <point x="437" y="267" type="curve" smooth="yes"/>
      <point x="459" y="380"/>
      <point x="374" y="427"/>
      <point x="271" y="427" type="curve" smooth="yes"/>
      <point x="229" y="427"/>
      <point x="186" y="423"/>
      <point x="154" y="413" type="curve"/>
      <point x="159" y="403" type="line"/>
      <point x="180" y="410"/>
      <point x="203" y="416"/>
      <point x="252" y="416" type="curve" smooth="yes"/>
      <point x="338" y="416"/>
      <point x="409" y="355"/>
      <point x="386" y="250" type="curve" smooth="yes"/>
      <point x="366" y="158"/>
      <point x="270" y="116"/>
      <point x="190" y="116" type="curve" smooth="yes"/>
      <point x="182" y="116"/>
      <point x="173" y="117"/>
      <point x="165" y="119" type="curve" smooth="yes"/>
      <point x="161" y="120"/>
      <point x="158" y="109"/>
      <point x="161" y="108" type="curve" smooth="yes"/>
      <point x="172" y="105"/>
      <point x="183" y="104"/>
      <point x="196" y="104" type="curve" smooth="yes"/>
    </contour>
    <contour>
      <point x="292" y="534" type="move" name="top"/>
    </contour>
    <contour>
      <point x="198" y="0" type="move" name="bottom"/>
    </contour>
  </outline>
</glyph>
<glyph name="germandbls" format="1">
  <advance width="377"/>
  <unicode hex="00DF"/>
  <outline>
    <contour>
      <point x="22" y="-235"/>
      <point x="49" y="-181"/>
      <point x="75" y="-18" type="curve" smooth="yes"/>
      <point x="139" y="381" type="line" smooth="yes"/>
      <point x="162" y="524"/>
      <point x="214" y="609"/>
      <point x="272" y="609" type="curve" smooth="yes"/>
      <point x="327" y="609"/>
      <point x="325" y="547"/>
      <point x="319" y="509" type="curve" smooth="yes"/>
      <point x="303" y="418"/>
      <point x="230" y="394"/>
      <point x="215" y="313" type="curve" smooth="yes"/>
      <point x="197" y="217"/>
      <point x="307" y="171"/>
      <point x="295" y="73" type="curve" smooth="yes"/>
      <point x="290" y="32"/>
      <point x="270" y="9"/>
      <point x="243" y="9" type="curve" smooth="yes"/>
      <point x="203" y="9"/>
      <point x="215" y="58"/>
      <point x="185" y="58" type="curve" smooth="yes"/>
      <point x="170" y="58"/>
      <point x="161" y="48"/>
      <point x="161" y="34" type="curve" smooth="yes"/>
      <point x="161" y="14"/>
      <point x="178" y="-9"/>
      <point x="218" y="-9" type="curve" smooth="yes"/>
      <point x="282" y="-9"/>
      <point x="323" y="54"/>
      <point x="330" y="102" type="curve" smooth="yes"/>
      <point x="345" y="200"/>
      <point x="233" y="256"/>
      <point x="248" y="347" type="curve" smooth="yes"/>
      <point x="258" y="409"/>
      <point x="347" y="456"/>
      <point x="361" y="536" type="curve" smooth="yes"/>
      <point x="367" y="569"/>
      <point x="358" y="621"/>
      <point x="290" y="621" type="curve" smooth="yes"/>
      <point x="200" y="621"/>
      <point x="128" y="534"/>
      <point x="103" y="383" type="curve" smooth="yes"/>
      <point x="34" y="-40" type="line" smooth="yes"/>
      <point x="9" y="-194"/>
      <point x="2" y="-220"/>
      <point x="-19" y="-220" type="curve" smooth="yes"/>
      <point x="-46" y="-220"/>
      <point x="-33" y="-177"/>
      <point x="-66" y="-177" type="curve" smooth="yes"/>
      <point x="-83" y="-177"/>
      <point x="-94" y="-188"/>
      <point x="-95" y="-201" type="curve" smooth="yes"/>
      <point x="-97" y="-218"/>
      <point x="-84" y="-235"/>
      <point x="-46" y="-235" type="curve" smooth="yes"/>
    </contour>
    <contour>
      <point x="218" y="330" type="move" name="top"/>
    </contour>
    <contour>
      <point x="160" y="0" type="move" name="bottom"/>
    </contour>
  </outline>
</glyph>
<glyph name="ae" format="1">
  <advance width="452"/>
  <unicode hex="00E6"/>
  <outline>
    <contour>
      <point x="128" y="-11"/>
      <point x="198" y="83"/>
      <point x="244" y="210" type="curve" smooth="yes"/>
      <point x="253" y="236"/>
      <point x="267" y="259"/>
      <point x="278" y="284" type="curve"/>
      <point x="275" y="325"/>
      <point x="248" y="341"/>
      <point x="221" y="341" type="curve" smooth="yes"/>
      <point x="139" y="341"/>
      <point x="36" y="203"/>
      <point x="19" y="78" type="curve" smooth="yes"/>
      <point x="10" y="14"/>
      <point x="32" y="-11"/>
      <point x="68" y="-11" type="curve" smooth="yes"/>
    </contour>
    <contour>
      <point x="60" y="26"/>
      <point x="52" y="55"/>
      <point x="59" y="109" type="curve" smooth="yes"/>
      <point x="74" y="224"/>
      <point x="140" y="312"/>
      <point x="195" y="314" type="curve" smooth="yes"/>
      <point x="231" y="315"/>
      <point x="245" y="281"/>
      <point x="238" y="242" type="curve" smooth="yes"/>
      <point x="220" y="141"/>
      <point x="148" y="26"/>
      <point x="93" y="26" type="curve" smooth="yes"/>
    </contour>
    <contour>
      <point x="337" y="-10"/>
      <point x="368" y="3"/>
      <point x="406" y="38" type="curve"/>
      <point x="409" y="41"/>
      <point x="402" y="47"/>
      <point x="399" y="45" type="curve"/>
      <point x="376" y="24"/>
      <point x="355" y="15"/>
      <point x="325" y="15" type="curve" smooth="yes"/>
      <point x="274" y="15"/>
      <point x="251" y="72"/>
      <point x="266" y="184" type="curve" smooth="yes"/>
      <point x="277" y="267"/>
      <point x="318" y="325"/>
      <point x="366" y="325" type="curve" smooth="yes"/>
      <point x="400" y="325"/>
      <point x="406" y="294"/>
      <point x="402" y="276" type="curve" smooth="yes"/>
      <point x="393" y="231"/>
      <point x="310" y="205"/>
      <point x="253" y="188" type="curve"/>
      <point x="252" y="178" type="line"/>
      <point x="395" y="218"/>
      <point x="441" y="250"/>
      <point x="447" y="288" type="curve" smooth="yes"/>
      <point x="451" y="312"/>
      <point x="441" y="341"/>
      <point x="394" y="341" type="curve" smooth="yes"/>
      <point x="348" y="341"/>
      <point x="296" y="314"/>
      <point x="257" y="261" type="curve"/>
      <point x="227" y="180" type="line"/>
      <point x="203" y="63"/>
      <point x="231" y="-10"/>
      <point x="300" y="-10" type="curve" smooth="yes"/>
    </contour>
    <contour>
      <point x="290" y="330" type="move" name="top"/>
    </contour>
    <contour>
      <point x="197" y="0" type="move" name="bottom"/>
    </contour>
  </outline>
</glyph>
<glyph name="eth" format="1">
  <advance width="343"/>
  <unicode hex="00F0"/>
  <outline>
    <contour>
      <point x="214" y="-11"/>
      <point x="296" y="54"/>
      <point x="319" y="185" type="curve" smooth="yes"/>
      <point x="349" y="355"/>
      <point x="278" y="547"/>
      <point x="159" y="620" type="curve" smooth="yes"/>
      <point x="152" y="624"/>
      <point x="120" y="613"/>
      <point x="127" y="609" type="curve" smooth="yes"/>
      <point x="239" y="540"/>
      <point x="309" y="343"/>
      <point x="276" y="174" type="curve"/>
      <point x="298" y="285" type="line"/>
      <point x="282" y="321"/>
      <point x="245" y="341"/>
      <point x="207" y="341" type="curve" smooth="yes"/>
      <point x="143" y="341"/>
      <point x="49" y="284"/>
      <point x="27" y="159" type="curve" smooth="yes"/>
      <point x="11" y="68"/>
      <point x="48" y="-11"/>
      <point x="132" y="-11" type="curve" smooth="yes"/>
    </contour>
    <contour>
      <point x="86" y="4"/>
      <point x="55" y="87"/>
      <point x="72" y="184" type="curve" smooth="yes"/>
      <point x="88" y="275"/>
      <point x="142" y="326"/>
      <point x="195" y="326" type="curve" smooth="yes"/>
      <point x="276" y="326"/>
      <point x="293" y="270"/>
      <point x="276" y="174" type="curve" smooth="yes"/>
      <point x="255" y="53"/>
      <point x="209" y="4"/>
      <point x="155" y="4" type="curve" smooth="yes"/>
    </contour>
    <contour>
      <point x="354" y="535" type="line" smooth="yes"/>
      <point x="359" y="537"/>
      <point x="351" y="552"/>
      <point x="347" y="550" type="curve" smooth="yes"/>
      <point x="113" y="439" type="line" smooth="yes"/>
      <point x="108" y="437"/>
      <point x="116" y="422"/>
      <point x="120" y="424" type="curve" smooth="yes"/>
    </contour>
    <contour>
      <point x="198" y="330" type="move" name="top"/>
    </contour>
  </outline>
</glyph>
<glyph name="oslash" format="1">
  <advance width="349"/>
  <unicode hex="00F8"/>
  <outline>
    <contour>
      <point x="342" y="330" type="line" smooth="yes"/>
      <point x="346" y="334"/>
      <point x="333" y="343"/>
      <point x="330" y="340" type="curve" smooth="yes"/>
      <point x="0" y="0" type="line" smooth="yes"/>
      <point x="-4" y="-4"/>
      <point x="8" y="-15"/>
      <point x="11" y="-12" type="curve" smooth="yes"/>
    </contour>
    <component base="o"/>
    <contour>
      <point x="204" y="330" type="move" name="top"/>
    </contour>
  </outline>
</glyph>
<glyph name="thorn" format="1">
  <advance width="349"/>
  <unicode hex="00FE"/>
  <outline>
    <contour>
      <point x="97" y="-214" type="line" smooth="yes"/>
      <point x="102" y="-213"/>
      <point x="99" y="-203"/>
      <point x="95" y="-204" type="curve" smooth="yes"/>
      <point x="46" y="-211"/>
      <point x="36" y="-199"/>
      <point x="44" y="-152" type="curve" smooth="yes"/>
      <point x="181" y="613" type="line" smooth="yes"/>
      <point x="182" y="616"/>
      <point x="176" y="622"/>
      <point x="172" y="620" type="curve" smooth="yes"/>
      <point x="67" y="569" type="line" smooth="yes"/>
      <point x="62" y="567"/>
      <point x="66" y="557"/>
      <point x="71" y="559" type="curve" smooth="yes"/>
      <point x="124" y="585"/>
      <point x="139" y="573"/>
      <point x="132" y="536" type="curve" smooth="yes"/>
      <point x="5" y="-158" type="line" smooth="yes"/>
      <point x="-5" y="-211"/>
      <point x="-10" y="-219"/>
      <point x="-49" y="-225" type="curve" smooth="yes"/>
      <point x="-53" y="-226"/>
      <point x="-51" y="-236"/>
      <point x="-47" y="-235" type="curve" smooth="yes"/>
    </contour>
    <contour>
      <point x="193" y="-1"/>
      <point x="302" y="74"/>
      <point x="330" y="215" type="curve" smooth="yes"/>
      <point x="343" y="283"/>
      <point x="312" y="336"/>
      <point x="253" y="336" type="curve" smooth="yes"/>
      <point x="179" y="336"/>
      <point x="102" y="285"/>
      <point x="35" y="225" type="curve" smooth="yes"/>
      <point x="32" y="223"/>
      <point x="38" y="216"/>
      <point x="41" y="218" type="curve" smooth="yes"/>
      <point x="111" y="274"/>
      <point x="167" y="308"/>
      <point x="219" y="308" type="curve" smooth="yes"/>
      <point x="279" y="308"/>
      <point x="292" y="249"/>
      <point x="282" y="188" type="curve" smooth="yes"/>
      <point x="263" y="84"/>
      <point x="227" y="23"/>
      <point x="146" y="23" type="curve" smooth="yes"/>
      <point x="105" y="23"/>
      <point x="79" y="35"/>
      <point x="57" y="50" type="curve"/>
      <point x="49" y="7" type="line"/>
      <point x="65" y="3"/>
      <point x="78" y="-1"/>
      <point x="124" y="-1" type="curve" smooth="yes"/>
    </contour>
    <contour>
      <point x="204" y="330" type="move" name="top"/>
    </contour>
    <contour>
      <point x="146" y="0" type="move" name="bottom"/>
    </contour>
  </outline>
</glyph>
<glyph name="aogonek" format="1">
  <advance width="369"/>
  <unicode hex="0105"/>
  <outline>
    <contour>
      <point x="258" y="-235"/>
      <point x="285" y="-224"/>
      <point x="316" y="-197" type="curve" smooth="yes"/>
      <point x="319" y="-194"/>
      <point x="313" y="-187"/>
      <point x="310" y="-189" type="curve" smooth="yes"/>
      <point x="296" y="-200"/>
      <point x="282" y="-212"/>
      <point x="257" y="-212" type="curve" smooth="yes"/>
      <point x="210" y="-212"/>
      <point x="194" y="-173"/>
      <point x="204" y="-128" type="curve" smooth="yes"/>
      <point x="219" y="-61"/>
      <point x="289" y="-10"/>
      <point x="356" y="59" type="curve" smooth="yes"/>
      <point x="359" y="62"/>
      <point x="352" y="69"/>
      <point x="349" y="66" type="curve" smooth="yes"/>
      <point x="324" y="40"/>
      <point x="303" y="24"/>
      <point x="290" y="24" type="curve" smooth="yes"/>
      <point x="275" y="24"/>
      <point x="269" y="41"/>
      <point x="275" y="76" type="curve" smooth="yes"/>
      <point x="325" y="347" type="line"/>
      <point x="326" y="350"/>
      <point x="316" y="351"/>
      <point x="315" y="348" type="curve"/>
      <point x="313" y="336"/>
      <point x="305" y="325"/>
      <point x="296" y="317" type="curve"/>
      <point x="283" y="334"/>
      <point x="262" y="341"/>
      <point x="241" y="341" type="curve" smooth="yes"/>
      <point x="151" y="341"/>
      <point x="37" y="203"/>
      <point x="19" y="78" type="curve" smooth="yes"/>
      <point x="10" y="14"/>
      <point x="32" y="-11"/>
      <point x="68" y="-11" type="curve" smooth="yes"/>
      <point x="130" y="-11"/>
      <point x="202" y="64"/>
      <point x="255" y="170" type="curve"/>
      <point x="239" y="76" type="line" smooth="yes"/>
      <point x="228" y="14"/>
      <point x="233" y="-8"/>
      <point x="260" y="-8" type="curve" smooth="yes"/>
      <point x="270" y="-8"/>
      <point x="277" y="-5"/>
      <point x="285" y="-1" type="curve"/>
      <point x="299" y="18" type="line"/>
      <point x="234" y="-40"/>
      <point x="179" y="-98"/>
      <point x="168" y="-153" type="curve" smooth="yes"/>
      <point x="159" y="-197"/>
      <point x="182" y="-235"/>
      <point x="231" y="-235" type="curve" smooth="yes"/>
    </contour>
    <contour>
      <point x="60" y="26"/>
      <point x="51" y="55"/>
      <point x="59" y="109" type="curve" smooth="yes"/>
      <point x="76" y="224"/>
      <point x="152" y="312"/>
      <point x="215" y="314" type="curve" smooth="yes"/>
      <point x="259" y="315"/>
      <point x="276" y="281"/>
      <point x="268" y="242" type="curve" smooth="yes"/>
      <point x="246" y="141"/>
      <point x="159" y="26"/>
      <point x="93" y="26" type="curve" smooth="yes"/>
    </contour>
    <contour>
      <point x="317" y="10" type="move" name="ogonek"/>
    </contour>
    <contour>
      <point x="110" y="0" type="move" name="bottom"/>
    </contour>
    <contour>
      <point x="233" y="330" type="move" name="top"/>
    </contour>
  </outline>
</glyph>
<glyph name="Eogonek" format="1">
  <advance width="436"/>
  <unicode hex="0118"/>
  <outline>
    <component base="E"/>
    <component base="ogonek" xOffset="215"/>
    <contour>
      <point x="283" y="534" type="move" name="top"/>
    </contour>
  </outline>
</glyph>
<glyph name="eogonek" format="1">
  <advance width="296"/>
  <unicode hex="0119"/>
  <outline>
    <contour>
      <point x="161" y="-235"/>
      <point x="188" y="-224"/>
      <point x="219" y="-197" type="curve" smooth="yes"/>
      <point x="222" y="-194"/>
      <point x="216" y="-187"/>
      <point x="213" y="-189" type="curve" smooth="yes"/>
      <point x="199" y="-200"/>
      <point x="185" y="-212"/>
      <point x="160" y="-212" type="curve" smooth="yes"/>
      <point x="114" y="-212"/>
      <point x="98" y="-177"/>
      <point x="107" y="-132" type="curve" smooth="yes"/>
      <point x="117" y="-84"/>
      <point x="149" y="-45"/>
      <point x="252" y="38" type="curve"/>
      <point x="246" y="45" type="line"/>
      <point x="119" y="-45"/>
      <point x="80" y="-102"/>
      <point x="71" y="-153" type="curve" smooth="yes"/>
      <point x="62" y="-203"/>
      <point x="87" y="-235"/>
      <point x="134" y="-235" type="curve" smooth="yes"/>
    </contour>
    <component base="e"/>
    <contour>
      <point x="173" y="330" type="move" name="top"/>
    </contour>
  </outline>
</glyph>
<glyph name="iogonek" format="1">
  <advance width="211"/>
  <unicode hex="012F"/>
  <outline>
    <contour>
      <point x="90" y="-235"/>
      <point x="114" y="-224"/>
      <point x="141" y="-204" type="curve" smooth="yes"/>
      <point x="144" y="-201"/>
      <point x="138" y="-194"/>
      <point x="135" y="-196" type="curve" smooth="yes"/>
      <point x="124" y="-204"/>
      <point x="112" y="-212"/>
      <point x="92" y="-212" type="curve" smooth="yes"/>
      <point x="45" y="-212"/>
      <point x="29" y="-173"/>
      <point x="39" y="-128" type="curve" smooth="yes"/>
      <point x="54" y="-61"/>
      <point x="124" y="-10"/>
      <point x="191" y="59" type="curve" smooth="yes"/>
      <point x="194" y="62"/>
      <point x="187" y="69"/>
      <point x="184" y="66" type="curve" smooth="yes"/>
      <point x="159" y="40"/>
      <point x="138" y="24"/>
      <point x="125" y="24" type="curve" smooth="yes"/>
      <point x="110" y="24"/>
      <point x="104" y="41"/>
      <point x="110" y="76" type="curve" smooth="yes"/>
      <point x="142" y="254" type="line" smooth="yes"/>
      <point x="153" y="316"/>
      <point x="148" y="338"/>
      <point x="121" y="338" type="curve" smooth="yes"/>
      <point x="92" y="338"/>
      <point x="61" y="316"/>
      <point x="23" y="273" type="curve" smooth="yes"/>
      <point x="19" y="269"/>
      <point x="26" y="262"/>
      <point x="30" y="266" type="curve" smooth="yes"/>
      <point x="55" y="292"/>
      <point x="78" y="306"/>
      <point x="91" y="306" type="curve" smooth="yes"/>
      <point x="106" y="306"/>
      <point x="112" y="289"/>
      <point x="106" y="254" type="curve" smooth="yes"/>
      <point x="73" y="76" type="line" smooth="yes"/>
      <point x="62" y="14"/>
      <point x="68" y="-8"/>
      <point x="95" y="-8" type="curve" smooth="yes"/>
      <point x="105" y="-8"/>
      <point x="112" y="-5"/>
      <point x="120" y="-1" type="curve"/>
      <point x="134" y="18" type="line"/>
      <point x="69" y="-40"/>
      <point x="14" y="-98"/>
      <point x="3" y="-153" type="curve" smooth="yes"/>
      <point x="-6" y="-197"/>
      <point x="17" y="-235"/>
      <point x="66" y="-235" type="curve" smooth="yes"/>
    </contour>
    <contour>
      <point x="168" y="442"/>
      <point x="180" y="454"/>
      <point x="180" y="475" type="curve" smooth="yes"/>
      <point x="180" y="495"/>
      <point x="168" y="507"/>
      <point x="147" y="507" type="curve" smooth="yes"/>
      <point x="126" y="507"/>
      <point x="113" y="495"/>
      <point x="113" y="475" type="curve" smooth="yes"/>
      <point x="113" y="454"/>
      <point x="126" y="442"/>
      <point x="147" y="442" type="curve" smooth="yes"/>
    </contour>
  </outline>
</glyph>
<glyph name="idotless" format="1">
  <advance width="211"/>
  <unicode hex="0131"/>
  <outline>
    <contour>
      <point x="122" y="-8"/>
      <point x="153" y="14"/>
      <point x="191" y="57" type="curve" smooth="yes"/>
      <point x="195" y="61"/>
      <point x="188" y="68"/>
      <point x="184" y="64" type="curve" smooth="yes"/>
      <point x="159" y="38"/>
      <point x="136" y="24"/>
      <point x="123" y="24" type="curve" smooth="yes"/>
      <point x="108" y="24"/>
      <point x="102" y="41"/>
      <point x="109" y="76" type="curve" smooth="yes"/>
      <point x="143" y="254" type="line" smooth="yes"/>
      <point x="155" y="316"/>
      <point x="149" y="338"/>
      <point x="121" y="338" type="curve" smooth="yes"/>
      <point x="93" y="338"/>
      <point x="62" y="316"/>
      <point x="24" y="273" type="curve" smooth="yes"/>
      <point x="20" y="269"/>
      <point x="27" y="262"/>
      <point x="31" y="266" type="curve" smooth="yes"/>
      <point x="56" y="292"/>
      <point x="79" y="306"/>
      <point x="92" y="306" type="curve" smooth="yes"/>
      <point x="107" y="306"/>
      <point x="114" y="289"/>
      <point x="107" y="254" type="curve" smooth="yes"/>
      <point x="72" y="76" type="line" smooth="yes"/>
      <point x="59" y="10"/>
      <point x="68" y="-8"/>
      <point x="94" y="-8" type="curve" smooth="yes"/>
    </contour>
    <contour>
      <point x="109" y="10" type="move" name="ogonek"/>
    </contour>
    <contour>
      <point x="96" y="0" type="move" name="bottom"/>
    </contour>
    <contour>
      <point x="120" y="330" type="move" name="top"/>
    </contour>
  </outline>
</glyph>
